{"glyphs":{"0":{"ha":744,"x_min":97,"x_max":647,"o":"m 585 283 l 585 625 q 524 783 585 717 q 372 849 464 849 q 219 783 281 849 q 158 625 158 717 l 158 283 q 219 126 158 192 q 372 60 281 60 q 524 126 464 60 q 585 283 585 192 m 372 910 q 568 826 489 910 q 647 625 647 743 l 647 283 q 568 81 647 165 q 372 -3 489 -3 q 176 81 256 -3 q 97 283 97 165 l 97 625 q 176 826 97 743 q 372 910 256 910 m 481 283 l 481 625 q 450 709 481 672 q 372 746 419 746 q 294 709 325 746 q 263 625 263 672 l 263 283 q 293 198 263 233 q 372 163 324 163 q 451 198 421 163 q 481 283 481 233 m 372 807 q 495 753 446 807 q 544 625 544 699 l 544 283 q 495 154 544 208 q 372 100 446 100 q 249 154 297 100 q 200 283 200 208 l 200 625 q 249 753 200 700 q 372 807 297 807 z "},"1":{"ha":442,"x_min":49,"x_max":310,"o":"m 246 75 l 246 818 q 226 839 246 839 l 131 839 q 110 818 110 839 q 131 797 110 797 l 206 797 l 206 75 q 226 56 206 56 q 246 75 246 56 m 226 903 q 285 878 260 903 q 310 818 310 853 l 310 75 q 285 17 310 42 q 226 -7 260 -7 q 167 17 192 -7 q 143 75 143 42 l 143 736 l 131 736 q 73 760 97 736 q 49 818 49 783 q 73 878 49 853 q 131 903 97 903 l 226 903 z "},"2":{"ha":689,"x_min":56,"x_max":633,"o":"m 550 60 q 571 79 571 60 q 550 100 571 100 l 189 100 q 207 119 192 104 l 426 356 q 517 465 490 424 q 560 601 560 533 q 467 794 560 717 q 339 842 410 842 q 181 765 244 842 q 117 600 119 696 q 138 579 117 581 q 158 599 157 579 q 211 739 161 678 q 339 800 261 800 q 468 738 413 800 q 519 600 519 675 q 481 485 519 542 q 396 383 457 449 l 125 93 q 119 79 119 88 q 140 60 119 60 l 550 60 m 550 163 q 609 138 585 163 q 633 79 633 114 q 609 22 633 46 q 550 -3 585 -3 l 140 -3 q 81 22 106 -3 q 57 79 57 46 q 81 138 57 114 l 132 192 l 351 426 q 457 601 457 540 q 449 644 457 624 q 339 738 414 738 q 253 690 288 738 q 221 596 224 649 q 196 539 219 561 q 138 517 172 517 l 133 517 q 78 541 100 517 q 56 600 56 565 l 56 604 q 138 813 56 724 q 339 903 221 903 q 540 811 457 903 q 622 601 622 719 q 571 435 622 517 q 474 314 540 385 l 332 163 l 550 163 z "},"3":{"ha":733,"x_min":56,"x_max":664,"o":"m 360 60 q 531 123 458 60 q 603 282 603 186 q 562 405 603 350 q 456 486 521 460 q 558 650 558 539 q 499 785 558 732 q 360 838 440 838 q 219 784 278 838 q 161 650 161 731 q 182 629 161 629 q 203 650 203 629 q 249 755 203 714 q 360 796 296 796 q 471 755 424 796 q 518 650 518 714 q 472 545 518 588 q 364 503 426 503 l 360 503 q 339 483 339 503 q 360 463 339 463 l 364 463 q 502 411 443 463 q 561 282 561 360 q 501 151 561 203 q 360 100 440 100 q 219 152 279 100 q 158 282 158 204 q 138 303 158 303 q 117 282 117 303 q 190 124 117 188 q 360 60 263 60 m 563 493 q 664 282 664 408 q 574 78 664 158 q 360 -3 485 -3 q 147 76 236 -3 q 56 282 56 160 q 80 340 56 317 q 138 364 104 364 q 197 340 172 364 q 221 282 221 317 q 263 196 221 229 q 360 163 306 163 q 456 195 414 163 q 499 282 499 228 q 458 367 499 335 q 364 400 417 400 l 360 400 q 299 424 325 400 q 276 483 274 449 q 299 542 274 517 q 360 567 325 567 l 365 565 q 428 591 401 567 q 454 650 454 615 q 426 711 454 688 q 360 735 397 735 q 279 690 300 735 q 253 611 265 650 q 182 567 235 567 q 124 592 147 567 q 100 650 100 617 q 176 828 100 757 q 360 900 251 900 q 544 829 467 900 q 621 650 621 758 q 563 493 621 563 z "},"4":{"ha":671,"x_min":0,"x_max":615,"o":"m 533 275 q 554 296 554 275 q 533 317 554 317 l 454 317 l 454 815 q 433 836 454 836 q 417 826 424 836 l 65 307 q 61 296 61 301 q 82 275 61 275 l 413 275 l 413 72 q 433 51 413 51 q 454 72 454 51 l 454 275 l 533 275 m 533 378 q 592 354 568 378 q 615 296 615 331 q 592 236 615 261 q 533 211 568 211 l 517 211 l 517 72 q 492 14 517 39 q 433 -11 467 -11 q 374 14 399 -11 q 350 72 350 39 l 350 211 l 82 211 q 24 236 49 211 q 0 296 0 261 q 14 342 0 321 l 364 863 q 433 899 388 899 q 492 874 467 899 q 517 815 517 850 l 517 378 l 533 378 m 350 378 l 350 544 l 239 378 l 350 378 m 413 317 l 122 317 l 413 749 l 413 317 z "},"5":{"ha":690,"x_min":35,"x_max":635,"o":"m 326 63 q 501 137 431 63 q 572 318 572 211 q 502 499 572 424 q 326 575 432 575 q 217 547 268 575 l 251 799 l 546 799 q 567 819 567 799 q 546 840 567 840 l 233 840 q 214 822 217 840 l 169 506 q 190 486 167 486 q 203 489 197 486 q 326 533 257 533 q 472 469 414 533 q 531 318 531 406 q 472 166 531 229 q 326 103 413 103 q 212 139 263 103 q 136 233 161 175 q 117 247 131 247 q 96 226 96 247 q 182 110 96 163 q 326 63 257 63 m 326 636 q 546 543 457 636 q 635 318 635 450 q 546 94 635 188 q 326 0 457 0 q 153 53 231 0 q 40 196 76 107 q 35 226 35 208 q 59 285 35 261 q 117 310 83 310 q 194 257 174 310 q 326 165 231 165 q 428 210 388 165 q 469 318 469 256 q 428 426 469 379 q 326 472 388 472 q 240 442 278 472 q 190 424 219 424 q 131 448 156 424 q 106 506 106 472 q 107 518 106 513 l 151 832 q 233 903 161 903 l 546 903 q 606 878 581 903 q 631 819 631 854 q 606 761 631 785 q 546 738 581 738 l 306 738 l 292 633 q 326 636 317 636 z "},"6":{"ha":628,"x_min":21,"x_max":593,"o":"m 307 68 q 465 129 400 68 q 531 282 531 190 q 465 435 531 374 q 307 497 400 497 q 215 479 260 497 l 421 814 q 424 825 424 818 q 403 846 424 846 q 386 836 392 846 l 103 374 q 100 364 100 369 q 82 282 82 325 q 148 129 82 190 q 307 68 214 68 m 338 558 q 519 469 446 547 q 593 282 593 390 q 509 85 593 165 q 307 4 425 4 q 105 85 189 4 q 21 282 21 165 q 40 381 21 332 q 50 406 43 394 l 333 869 q 403 907 356 907 q 447 896 426 907 q 486 825 486 872 q 475 782 486 803 l 338 558 m 307 171 q 391 203 354 171 q 428 282 428 235 q 392 362 428 331 q 307 393 356 393 q 222 362 257 393 q 186 282 186 331 q 222 203 186 235 q 307 171 258 171 m 307 457 q 435 406 382 457 q 489 282 489 356 q 435 158 489 208 q 307 108 382 108 q 177 158 231 108 q 124 282 124 208 q 177 406 124 356 q 307 457 231 457 z "},"7":{"ha":604,"x_min":21,"x_max":583,"o":"m 519 811 q 521 819 521 814 q 500 840 521 840 l 103 840 q 82 819 82 840 q 103 799 82 799 l 471 799 l 176 82 q 175 74 175 79 q 196 54 175 54 q 214 67 208 54 l 519 811 m 583 819 q 578 788 583 801 l 272 43 q 196 -8 251 -8 q 137 16 161 -8 q 113 74 113 40 q 118 106 113 92 l 376 736 l 103 736 q 45 760 69 736 q 21 819 21 785 q 45 878 21 854 q 103 903 69 903 l 500 903 q 559 878 535 903 q 583 819 583 854 z "},"8":{"ha":704,"x_min":56,"x_max":649,"o":"m 353 57 q 517 122 449 57 q 586 282 586 186 q 547 406 586 349 q 444 488 508 463 q 543 654 543 542 q 487 789 543 733 q 353 844 431 844 q 216 790 272 844 q 160 654 160 735 q 258 488 160 542 q 156 406 196 463 q 117 282 117 349 q 185 122 117 186 q 353 57 254 57 m 549 494 q 649 282 649 410 q 562 77 649 160 q 353 -6 475 -6 q 142 77 229 -6 q 56 282 56 160 q 154 494 56 410 q 99 654 99 565 q 172 833 99 761 q 353 906 244 906 q 532 833 458 906 q 606 654 606 761 q 549 494 606 565 m 353 161 q 444 195 406 161 q 483 282 483 229 q 445 369 483 335 q 356 403 407 403 l 349 403 q 258 369 296 403 q 221 282 221 335 q 260 195 221 229 q 353 161 299 161 m 356 465 q 490 414 436 465 q 544 282 544 363 q 488 151 544 204 q 353 97 432 97 q 215 151 272 97 q 158 282 158 204 q 213 413 158 361 q 349 465 268 465 l 356 465 m 263 654 q 288 594 263 621 q 349 568 314 568 l 356 568 q 415 594 389 568 q 440 654 440 621 q 414 715 440 690 q 353 740 388 740 q 289 716 315 740 q 263 654 263 692 m 349 506 q 243 549 285 506 q 201 654 201 592 q 246 760 201 717 q 353 803 290 803 q 458 760 414 803 q 503 654 503 717 q 460 549 503 592 q 356 506 418 506 l 349 506 z "},"9":{"ha":628,"x_min":35,"x_max":607,"o":"m 321 904 q 523 825 439 904 q 607 626 607 746 q 588 529 607 582 q 578 503 585 514 l 294 42 q 224 1 269 1 q 166 25 190 1 q 142 83 142 49 q 154 128 142 107 l 290 351 q 108 440 182 363 q 35 626 35 518 q 119 825 35 746 q 321 904 203 904 m 528 544 q 544 626 544 596 q 479 781 544 719 q 321 843 414 843 q 162 781 228 843 q 96 626 96 719 q 162 474 96 536 q 321 413 228 413 q 413 431 368 413 l 207 94 q 204 83 204 90 q 224 64 204 64 q 242 72 236 64 l 525 536 l 528 544 m 321 801 q 449 752 396 801 q 503 626 503 703 q 449 503 503 553 q 321 454 396 454 q 191 503 244 454 q 138 626 138 553 q 191 752 138 703 q 321 801 244 801 m 442 626 q 406 707 442 675 q 321 739 369 739 q 235 707 271 739 q 200 626 200 675 q 236 548 200 581 q 321 515 272 515 q 406 547 369 515 q 442 626 442 579 z "}," ":{"ha":413,"x_min":0,"x_max":0,"o":""},"!":{"ha":289,"x_min":56,"x_max":233,"o":"m 110 75 q 144 43 110 43 q 178 75 178 43 q 144 110 178 110 q 110 75 110 110 m 56 75 q 81 139 56 113 q 144 165 107 165 q 208 139 182 165 q 233 75 233 113 q 207 14 233 40 q 144 -12 181 -12 q 81 13 107 -12 q 56 75 56 39 m 158 318 l 158 838 q 138 858 158 858 q 117 838 117 858 l 117 318 q 138 297 117 297 q 158 318 158 297 m 138 919 q 197 896 172 919 q 221 838 221 872 l 221 318 q 197 258 221 283 q 138 233 172 233 q 80 258 104 233 q 56 318 56 283 l 56 838 q 80 896 56 872 q 138 919 104 919 z "},"\"":{"ha":429,"x_min":56,"x_max":374,"o":"m 311 669 l 311 839 q 290 860 311 860 q 269 839 269 860 l 269 669 q 290 647 269 647 q 311 669 311 647 m 158 669 l 158 839 q 138 860 158 860 q 117 839 117 860 l 117 669 q 138 647 117 647 q 158 669 158 647 m 290 921 q 349 897 325 921 q 374 839 374 874 l 374 669 q 349 610 374 635 q 290 586 325 586 q 214 635 236 586 q 138 586 193 586 q 80 610 104 586 q 56 669 56 635 l 56 839 q 80 897 56 874 q 138 921 104 921 q 214 872 193 921 q 290 921 236 921 z "},"#":{"ha":743,"x_min":56,"x_max":688,"o":"m 604 314 q 625 335 625 314 q 604 354 625 354 l 510 354 l 535 586 l 604 586 q 625 607 625 586 q 604 626 625 626 l 540 626 l 564 840 q 546 861 567 861 l 543 861 q 522 843 524 861 l 499 626 l 279 626 l 304 840 q 286 861 307 861 l 283 861 q 263 843 264 861 l 239 626 l 138 626 q 117 607 117 626 q 138 586 117 586 l 235 586 l 207 354 l 138 354 q 117 335 117 354 q 138 314 117 314 l 203 314 l 178 100 q 197 79 175 79 l 199 79 q 219 97 218 79 l 243 314 l 463 314 l 439 100 q 457 79 436 79 l 460 79 q 481 97 479 79 l 504 314 l 604 314 m 604 417 q 663 392 639 417 q 688 335 688 368 q 663 276 688 300 q 604 251 639 251 l 560 251 l 540 90 q 514 39 536 60 q 460 18 492 18 q 401 42 425 18 q 376 100 376 67 q 378 110 376 104 l 392 251 l 300 251 l 281 90 q 254 39 276 60 q 199 18 232 18 q 140 42 164 18 q 115 100 115 67 q 117 110 115 104 l 132 251 q 78 277 100 253 q 56 335 56 301 q 80 392 56 368 q 138 417 104 417 l 151 417 l 164 524 l 138 524 q 80 548 104 524 q 56 607 56 572 q 80 665 56 640 q 138 689 104 689 l 183 689 l 201 850 q 228 902 206 882 q 283 922 251 922 q 342 899 318 922 q 367 840 367 875 l 367 831 l 350 689 l 443 689 l 461 850 q 489 902 465 882 q 543 922 513 922 q 602 899 578 922 q 626 840 626 875 l 626 831 l 610 689 q 665 663 643 688 q 688 607 688 639 q 663 548 688 572 q 604 524 639 524 l 590 524 l 579 417 l 604 417 m 331 524 l 318 417 l 411 417 l 424 524 l 331 524 m 249 354 l 275 586 l 494 586 l 468 354 l 249 354 z "},"$":{"ha":639,"x_min":56,"x_max":583,"o":"m 340 69 q 469 115 418 71 q 521 235 521 158 q 463 360 521 308 q 340 431 424 394 l 340 707 q 481 606 415 692 q 497 596 486 596 q 518 617 518 596 q 515 626 518 624 q 340 750 444 733 l 340 836 q 319 857 340 857 q 299 836 299 857 l 299 751 q 172 706 221 747 q 119 585 119 661 q 294 404 119 463 l 299 403 l 299 113 q 156 214 221 128 q 138 224 149 224 q 117 204 117 224 q 121 192 117 197 q 299 69 193 86 l 299 -47 q 319 -68 299 -68 q 340 -47 340 -68 l 340 69 m 401 471 q 583 235 583 385 q 534 93 583 151 q 401 14 485 35 l 401 -47 q 378 -105 401 -81 q 319 -129 354 -129 q 261 -105 285 -129 q 238 -47 238 -81 l 238 22 q 69 157 135 61 q 56 204 56 178 q 80 262 56 238 q 138 286 104 286 q 207 250 182 286 q 238 217 218 235 l 238 360 q 146 410 178 385 q 58 585 58 479 q 106 726 58 668 q 238 804 154 785 l 238 836 q 261 894 238 871 q 319 918 285 918 q 378 894 354 918 q 401 836 401 871 l 401 796 q 565 661 503 758 q 579 617 579 640 q 556 557 579 581 q 497 533 532 533 q 428 569 453 533 q 401 601 415 588 l 401 471 m 401 194 q 417 235 417 208 q 401 275 417 257 l 401 194 m 340 385 q 479 235 479 325 q 440 144 479 176 q 340 110 400 113 l 340 385 m 238 624 q 224 585 224 608 q 238 551 224 567 l 238 624 m 161 585 q 299 710 161 703 l 299 447 q 211 490 235 474 q 161 585 161 529 z "},"%":{"ha":1124,"x_min":56,"x_max":1068,"o":"m 799 63 q 945 122 885 63 q 1006 267 1006 182 q 945 413 1006 351 q 799 474 885 474 q 654 413 714 474 q 594 267 594 351 q 654 122 594 182 q 799 63 714 63 m 586 721 q 592 668 592 694 q 590 638 592 653 l 654 722 q 604 721 626 721 l 586 721 m 285 65 l 872 838 q 876 851 876 843 q 854 872 876 872 q 846 869 850 872 q 604 824 746 824 q 404 857 542 824 q 324 874 367 874 q 178 814 239 874 q 117 668 117 754 q 178 523 117 583 q 324 463 239 463 q 469 523 408 463 q 529 668 529 583 q 488 793 529 738 q 606 782 544 782 q 799 808 703 782 l 251 89 q 247 76 247 83 q 268 57 247 57 q 285 65 278 57 m 799 535 q 991 458 914 535 q 1068 267 1068 381 q 990 76 1068 154 q 799 -1 913 -1 q 608 76 686 -1 q 531 267 531 154 q 532 289 531 275 l 335 28 q 268 -6 310 -6 q 210 18 233 -6 q 186 76 186 42 q 203 128 186 106 l 424 419 q 324 400 376 400 q 133 477 210 400 q 56 668 56 554 q 133 858 56 781 q 324 935 211 935 q 426 915 369 935 q 604 888 514 888 q 821 926 729 888 q 854 933 836 933 q 914 910 890 933 q 938 850 938 886 q 921 800 938 824 l 707 518 q 799 535 753 535 m 799 165 q 872 194 842 165 q 903 267 903 224 q 872 340 903 310 q 799 369 842 369 q 727 340 757 369 q 697 267 697 310 q 728 195 697 225 q 799 165 758 165 m 799 432 q 916 384 868 432 q 964 267 964 336 q 916 151 964 199 q 799 103 868 103 q 684 151 732 103 q 636 267 636 200 q 683 384 636 336 q 799 432 731 432 m 324 565 q 396 595 367 565 q 425 668 425 625 q 396 740 425 711 q 324 769 367 769 q 251 740 281 769 q 221 668 221 711 q 251 595 221 625 q 324 565 281 565 m 324 832 q 440 784 390 832 q 489 668 489 736 q 440 551 489 600 q 324 503 392 503 q 206 551 254 503 q 158 668 158 600 q 206 785 158 738 q 324 832 254 832 z "},"&":{"ha":911,"x_min":56,"x_max":856,"o":"m 794 86 q 789 100 794 94 l 656 244 q 751 335 714 296 q 758 349 758 342 q 736 369 758 369 q 722 363 728 369 q 626 275 704 346 l 381 540 q 403 560 386 546 q 518 738 518 657 q 467 833 518 799 q 358 864 422 864 q 249 829 292 864 q 201 728 201 790 q 297 564 201 650 q 317 544 310 553 q 117 240 117 382 l 117 232 q 211 89 117 136 q 315 67 257 67 q 506 129 414 67 q 624 218 564 171 l 758 72 q 774 67 765 67 q 794 86 794 67 m 833 143 q 856 86 856 119 q 831 28 856 53 q 774 4 807 4 q 713 31 738 4 l 617 135 q 539 78 583 108 q 314 4 433 4 q 183 35 244 4 q 56 229 56 97 l 56 240 q 225 546 56 383 q 139 728 139 631 q 204 875 139 819 q 360 925 265 925 q 460 906 411 925 q 579 738 579 858 q 469 536 579 636 l 631 361 q 736 432 700 432 q 796 408 772 432 q 819 349 819 385 q 794 288 819 318 q 743 240 793 286 l 833 143 m 503 256 l 342 429 q 222 240 222 315 l 222 238 q 315 171 222 171 q 503 256 392 171 m 158 240 q 347 515 158 364 l 594 249 q 465 154 515 183 q 314 108 386 108 q 207 139 250 108 q 158 235 158 174 l 158 240 m 306 728 q 353 653 306 697 q 414 738 415 711 l 413 740 q 358 761 413 761 q 306 728 306 761 m 351 571 q 286 632 322 594 q 243 728 243 679 q 358 822 243 822 q 438 804 404 822 q 476 738 476 781 q 431 644 476 694 q 351 571 417 629 z "},"'":{"ha":276,"x_min":56,"x_max":221,"o":"m 158 676 l 158 838 q 138 858 158 858 q 117 838 117 858 l 117 676 q 138 656 117 656 q 158 676 158 656 m 138 919 q 197 896 172 919 q 221 838 221 872 l 221 676 q 197 618 221 642 q 138 594 172 594 q 80 618 104 594 q 56 676 56 642 l 56 838 q 80 896 56 872 q 138 919 104 919 z "},"(":{"ha":376,"x_min":56,"x_max":342,"o":"m 269 -101 q 267 -89 269 -94 q 158 372 158 69 q 274 844 158 686 q 278 857 278 850 q 257 878 278 878 q 242 869 247 878 q 117 372 117 707 q 233 -112 117 58 q 249 -122 240 -122 q 269 -101 269 -122 m 221 372 q 318 -54 221 89 q 332 -101 332 -75 q 308 -160 332 -137 q 249 -183 285 -183 q 181 -149 206 -183 q 56 372 56 36 q 192 907 56 724 q 257 940 218 940 q 317 916 292 940 q 342 857 342 892 q 325 807 342 829 q 221 372 221 671 z "},")":{"ha":469,"x_min":128,"x_max":414,"o":"m 197 -99 q 218 -119 197 -119 q 236 -110 229 -119 q 350 375 350 60 q 226 872 350 710 q 210 881 219 881 q 189 860 189 881 q 193 847 189 853 q 310 375 310 693 q 201 -86 310 72 q 197 -99 197 -92 m 247 375 q 225 601 247 492 q 144 810 197 739 q 128 860 128 832 q 151 919 128 896 q 210 943 175 943 q 276 910 250 943 q 414 375 414 726 q 288 -146 414 40 q 218 -181 263 -181 q 160 -157 183 -181 q 136 -99 136 -133 q 151 -51 136 -74 q 247 375 247 90 z "},"*":{"ha":649,"x_min":56,"x_max":593,"o":"m 519 694 q 531 713 531 700 q 511 733 531 733 q 501 732 506 733 l 342 657 l 342 831 q 321 851 342 851 q 300 831 300 851 l 300 660 l 147 732 q 138 733 143 733 q 117 713 117 733 q 129 694 117 700 l 289 619 l 193 489 q 189 478 189 485 q 210 457 189 457 q 226 465 221 457 l 324 597 l 422 465 q 439 457 428 457 q 460 478 460 457 q 456 489 460 485 l 360 619 l 519 694 m 593 713 q 544 638 593 660 l 454 596 l 507 526 q 521 478 521 507 q 497 419 521 443 q 439 394 474 394 q 374 428 397 394 l 324 493 l 275 428 q 210 394 251 394 q 150 419 175 394 q 125 478 125 443 q 142 526 125 504 l 194 596 l 104 638 q 56 713 56 660 q 80 771 56 747 q 138 794 104 794 q 174 788 158 794 l 239 758 l 239 831 q 263 889 239 865 q 321 913 286 913 q 379 889 356 913 q 403 831 403 865 l 403 756 l 475 788 q 511 794 490 794 q 569 771 544 794 q 593 713 593 747 z "},"+":{"ha":750,"x_min":56,"x_max":694,"o":"m 611 456 q 632 476 632 456 q 611 496 632 496 l 394 496 l 394 713 q 375 733 394 733 q 354 713 354 733 l 354 496 l 138 496 q 117 476 117 496 q 138 456 117 456 l 354 456 l 354 239 q 375 218 354 218 q 394 239 394 218 l 394 456 l 611 456 m 611 558 q 670 534 646 558 q 694 476 694 510 q 670 417 694 442 q 611 393 646 393 l 458 393 l 458 239 q 433 181 458 206 q 375 157 408 157 q 316 181 340 157 q 292 239 292 206 l 292 393 l 138 393 q 80 417 104 393 q 56 476 56 442 q 80 534 56 510 q 138 558 104 558 l 292 558 l 292 713 q 316 771 292 747 q 375 794 340 794 q 433 771 408 794 q 458 713 458 747 l 458 558 l 611 558 z "},",":{"ha":335,"x_min":56,"x_max":279,"o":"m 217 49 q 193 100 217 100 l 190 100 q 172 79 172 96 l 174 75 q 175 49 175 63 q 129 -40 175 -19 q 117 -60 117 -46 q 138 -79 117 -79 q 196 -31 172 -79 q 217 49 217 11 m 274 96 q 279 49 279 69 q 172 -135 279 -85 q 138 -142 157 -142 q 80 -117 104 -142 q 56 -60 56 -93 q 71 -12 56 -29 q 107 21 74 -8 q 113 49 113 28 q 111 63 113 54 q 110 78 110 72 q 135 138 110 113 q 194 163 160 163 q 274 96 260 163 z "},"-":{"ha":542,"x_min":56,"x_max":486,"o":"m 401 379 q 424 400 424 379 q 401 421 424 421 l 138 421 q 117 400 117 421 q 138 379 117 379 l 401 379 m 401 483 q 461 459 436 483 q 486 400 486 435 q 461 341 486 365 q 401 317 436 317 l 138 317 q 80 341 104 317 q 56 400 56 365 q 80 459 56 435 q 138 483 104 483 l 401 483 z "},".":{"ha":289,"x_min":56,"x_max":233,"o":"m 110 75 q 144 43 110 43 q 178 75 178 43 q 144 110 178 110 q 110 75 110 110 m 56 75 q 81 139 56 113 q 144 165 107 165 q 208 139 182 165 q 233 75 233 113 q 207 14 233 40 q 144 -12 181 -12 q 81 13 107 -12 q 56 75 56 39 z "},"/":{"ha":488,"x_min":56,"x_max":432,"o":"m 117 86 q 138 67 117 67 q 158 81 154 67 l 371 826 l 371 832 q 350 853 371 853 q 331 839 335 853 l 118 92 q 117 86 117 89 m 269 856 q 350 915 288 915 q 408 891 383 915 q 432 832 432 867 q 429 810 432 819 l 218 65 q 138 4 200 4 q 80 28 104 4 q 56 86 56 53 q 58 110 56 100 l 269 856 z "},":":{"ha":356,"x_min":56,"x_max":300,"o":"m 217 49 q 193 100 217 100 l 190 100 q 172 79 172 96 l 174 75 q 175 49 175 63 q 129 -40 175 -19 q 117 -60 117 -46 q 138 -79 117 -79 q 196 -31 172 -79 q 217 49 217 11 m 274 96 q 279 49 279 69 q 172 -135 279 -85 q 138 -142 157 -142 q 80 -117 104 -142 q 56 -60 56 -93 q 71 -12 56 -29 q 107 21 74 -8 q 113 49 113 28 q 111 63 113 54 q 110 78 110 72 q 135 138 110 113 q 194 163 160 163 q 274 96 260 163 m 178 667 q 211 632 178 632 q 244 667 244 632 q 211 700 244 700 q 178 667 178 700 m 122 667 q 148 730 122 704 q 211 756 174 756 q 274 730 247 756 q 300 667 300 704 q 274 603 300 629 q 211 578 247 578 q 148 603 174 578 q 122 667 122 629 z "},";":{"ha":356,"x_min":56,"x_max":300,"o":"m 217 49 q 193 100 217 100 l 190 100 q 172 79 172 96 l 174 75 q 175 49 175 63 q 129 -40 175 -19 q 117 -60 117 -46 q 138 -79 117 -79 q 196 -31 172 -79 q 217 49 217 11 m 274 96 q 279 49 279 69 q 172 -135 279 -85 q 138 -142 157 -142 q 80 -117 104 -142 q 56 -60 56 -93 q 71 -12 56 -29 q 107 21 74 -8 q 113 49 113 28 q 111 63 113 54 q 110 78 110 72 q 135 138 110 113 q 194 163 160 163 q 274 96 260 163 m 178 667 q 211 632 178 632 q 244 667 244 632 q 211 700 244 700 q 178 667 178 700 m 122 667 q 148 730 122 704 q 211 756 174 756 q 274 730 247 756 q 300 667 300 704 q 274 603 300 629 q 211 578 247 578 q 148 603 174 578 q 122 667 122 629 z "},"<":{"ha":697,"x_min":56,"x_max":642,"o":"m 578 274 q 565 293 578 288 l 158 476 l 158 481 l 565 663 q 578 681 578 668 q 557 703 578 703 q 549 700 553 703 l 129 513 q 117 493 117 507 l 117 463 q 129 443 117 449 l 549 256 q 557 253 553 253 q 578 274 578 253 m 592 349 q 642 274 642 328 q 617 215 642 239 q 557 192 592 192 q 524 199 539 192 l 104 386 q 56 463 56 408 l 56 493 q 104 569 56 547 l 524 757 q 557 764 542 764 q 617 740 592 764 q 642 682 642 717 q 592 607 642 628 l 306 478 l 592 349 z "},"=":{"ha":750,"x_min":56,"x_max":694,"o":"m 611 261 q 632 282 632 261 q 611 303 632 303 l 138 303 q 117 282 117 303 q 138 261 117 261 l 611 261 m 611 364 q 670 340 646 364 q 694 282 694 317 q 670 224 694 247 q 611 200 646 200 l 138 200 q 80 224 104 200 q 56 282 56 247 q 80 340 56 317 q 138 364 104 364 l 611 364 m 611 436 q 632 457 632 436 q 611 478 632 478 l 138 478 q 117 457 117 478 q 138 436 117 436 l 611 436 m 611 540 q 670 515 646 540 q 694 457 694 490 q 670 398 694 422 q 611 374 646 374 l 138 374 q 80 398 104 374 q 56 457 56 422 q 80 515 56 490 q 138 540 104 540 l 611 540 z "},">":{"ha":697,"x_min":56,"x_max":642,"o":"m 117 274 q 138 253 117 253 q 146 256 142 253 l 565 443 q 578 463 578 449 l 578 493 q 565 513 578 507 l 146 700 q 138 703 142 703 q 117 681 117 703 q 129 663 117 668 l 536 481 l 536 476 l 129 293 q 117 274 117 288 m 389 478 l 104 607 q 56 682 56 628 q 80 740 56 717 q 138 764 104 764 q 172 757 154 764 l 592 569 q 642 493 642 547 l 642 463 q 592 386 642 408 l 172 199 q 138 192 157 192 q 80 215 104 192 q 56 274 56 239 q 104 349 56 328 l 389 478 z "},"?":{"ha":632,"x_min":56,"x_max":576,"o":"m 240 83 q 272 50 240 50 q 307 83 307 50 q 272 117 307 117 q 240 83 240 117 m 185 83 q 210 147 185 121 q 272 172 236 172 q 336 147 310 172 q 363 83 363 121 q 336 21 363 47 q 272 -6 310 -6 q 210 21 236 -6 q 185 83 185 47 m 450 533 q 515 660 515 583 q 461 781 515 736 q 331 826 407 826 l 322 826 q 165 764 229 826 q 118 700 135 736 q 117 692 117 696 q 138 671 117 671 q 157 683 151 671 q 196 736 169 710 q 324 785 246 785 l 331 785 q 432 752 390 785 q 474 660 474 719 q 425 567 474 604 q 390 540 418 561 q 299 456 322 489 q 257 299 257 394 q 278 278 257 278 q 299 299 299 278 q 332 431 299 382 q 415 507 351 458 l 450 533 m 576 660 q 489 486 576 550 l 451 458 q 382 394 399 419 q 361 299 361 361 q 337 240 361 264 q 278 215 313 215 q 219 240 243 215 q 196 299 196 264 q 246 490 196 415 q 354 592 274 531 l 386 617 q 411 660 411 633 q 331 724 411 724 l 326 724 q 214 657 243 724 q 138 610 192 610 q 80 633 104 610 q 56 692 56 657 q 63 724 56 707 q 166 843 94 799 q 321 889 238 888 l 331 890 q 505 828 433 892 q 576 660 576 764 z "},"@":{"ha":1292,"x_min":56,"x_max":1236,"o":"m 997 29 q 1056 5 1032 29 q 1081 -54 1081 -19 q 1026 -132 1081 -111 q 613 -208 822 -208 q 94 85 232 -208 q 56 288 56 168 q 351 822 56 639 q 664 911 496 911 q 926 853 800 911 q 1132 690 1051 794 q 1236 390 1236 554 q 1181 183 1236 276 q 1024 46 1125 89 q 975 26 997 35 q 997 29 986 29 m 963 507 q 942 528 963 528 q 924 511 928 528 l 911 458 q 825 583 889 538 q 676 628 761 628 q 441 528 542 628 q 340 294 340 429 q 409 124 340 190 q 583 57 478 57 q 853 199 747 57 l 829 88 q 860 65 829 65 q 1013 110 936 65 q 1129 218 1090 154 q 1175 390 1175 296 q 1100 626 1175 517 q 914 789 1031 732 q 664 849 793 849 q 385 769 513 849 q 179 554 257 690 q 117 288 117 446 q 150 111 117 182 q 615 -146 271 -146 q 1006 -72 807 -146 q 1018 -54 1018 -69 q 997 -33 1018 -33 q 906 -58 979 -33 q 801 -87 824 -83 q 611 -104 703 -104 q 189 129 297 -104 q 158 288 158 194 q 403 732 158 579 q 665 807 524 807 q 893 753 785 807 q 1067 606 1001 700 q 1133 390 1133 506 q 1094 242 1133 308 q 981 140 1054 172 q 876 107 936 121 l 963 507 m 676 586 q 822 531 765 586 q 879 388 879 476 q 790 184 879 271 q 583 97 700 97 q 439 153 496 97 q 382 296 382 208 q 471 499 382 413 q 676 586 560 586 m 1025 507 q 1024 489 1025 496 l 960 200 q 1072 393 1072 249 q 1013 574 1072 489 q 867 697 957 651 q 663 747 767 747 q 435 681 539 747 q 268 503 332 615 q 222 289 222 421 q 244 156 222 207 q 611 -43 338 -43 q 968 24 790 -43 q 858 1 904 1 q 778 49 801 1 q 583 -7 685 -7 q 347 99 436 -7 q 278 296 278 182 q 397 574 278 457 q 676 690 517 690 q 913 585 824 690 q 942 590 928 590 q 1001 566 976 590 q 1025 507 1025 542 m 815 388 q 777 487 815 450 q 676 524 739 524 q 515 454 586 524 q 443 296 443 385 q 482 197 443 233 q 583 160 521 160 q 744 228 674 160 q 815 388 815 297 z "},"A":{"ha":897,"x_min":28,"x_max":869,"o":"m 807 82 q 806 90 807 88 l 493 835 q 475 847 489 847 l 424 847 q 404 835 410 847 l 90 90 q 89 82 89 88 q 110 63 89 63 q 129 74 124 63 l 249 358 l 646 358 l 768 74 q 786 63 772 63 q 807 82 807 63 m 864 115 q 869 82 869 103 q 845 24 869 49 q 786 0 821 0 q 711 51 733 0 l 608 296 l 290 296 l 188 51 q 110 0 165 0 q 52 24 76 0 q 28 82 28 49 q 35 115 28 99 l 347 860 q 424 910 368 910 l 475 910 q 550 860 528 910 l 864 115 m 358 461 l 538 461 l 449 674 l 358 461 m 438 806 l 461 806 l 632 399 l 265 399 l 438 806 z "},"B":{"ha":817,"x_min":132,"x_max":761,"o":"m 476 64 q 635 128 569 64 q 700 285 700 193 q 653 419 700 360 q 533 497 606 479 q 622 658 622 554 q 567 792 622 738 q 435 847 513 847 l 214 847 q 193 826 193 847 l 193 83 q 214 64 193 64 l 476 64 m 640 515 q 761 285 761 431 q 679 83 761 165 q 476 0 597 0 l 214 0 q 156 25 181 0 q 132 83 132 50 l 132 826 q 156 885 132 861 q 214 908 181 908 l 435 908 q 612 836 539 908 q 685 658 685 764 q 640 515 685 581 m 476 167 q 561 201 526 167 q 596 285 596 235 q 561 369 596 335 q 476 403 526 403 l 297 403 l 297 167 l 476 167 m 476 465 q 605 413 553 465 q 657 285 657 360 q 605 156 657 208 q 476 104 553 104 l 235 104 l 235 465 l 476 465 m 297 744 l 297 572 l 435 572 q 494 598 469 572 q 519 658 519 624 q 494 719 519 694 q 435 744 469 744 l 297 744 m 582 658 q 539 553 582 597 q 435 510 496 510 l 235 510 l 235 806 l 435 806 q 538 763 494 806 q 582 658 582 719 z "},"C":{"ha":978,"x_min":63,"x_max":915,"o":"m 850 240 q 853 251 853 246 q 832 272 853 272 q 814 263 821 272 q 519 101 710 101 q 268 204 371 101 q 165 456 165 307 q 268 706 165 604 q 519 808 371 808 q 688 765 608 808 q 814 646 767 722 q 832 638 821 638 q 853 658 853 638 q 850 669 853 664 q 708 802 796 754 q 519 850 619 850 q 239 735 354 850 q 124 456 124 621 q 238 175 124 289 q 519 61 353 61 q 708 109 619 61 q 850 240 796 157 m 915 251 q 901 207 915 226 q 737 53 838 108 q 519 -1 636 -1 q 195 131 328 -1 q 63 456 63 264 q 195 778 63 646 q 519 911 328 911 q 901 703 765 911 q 915 658 915 682 q 892 599 915 624 q 832 575 868 575 q 763 614 788 575 q 519 746 676 746 q 312 662 396 746 q 228 456 228 578 q 311 248 228 332 q 519 164 394 164 q 763 297 675 164 q 832 335 786 335 q 892 311 868 335 q 915 251 915 288 z "},"D":{"ha":888,"x_min":132,"x_max":825,"o":"m 372 58 q 649 172 536 58 q 763 450 763 286 q 649 727 763 614 q 372 840 536 840 l 214 840 q 193 819 193 840 l 193 78 q 214 58 193 58 l 372 58 m 372 903 q 694 771 563 903 q 825 450 825 639 q 694 128 825 260 q 372 -4 563 -4 l 214 -4 q 156 20 181 -4 q 132 78 132 44 l 132 819 q 156 878 132 854 q 214 903 181 903 l 372 903 m 372 161 q 576 245 493 161 q 660 450 660 329 q 576 654 660 571 q 372 738 493 738 l 297 738 l 297 161 l 372 161 m 372 799 q 621 698 519 799 q 722 450 722 597 q 621 201 722 303 q 372 99 519 99 l 235 99 l 235 799 l 372 799 z "},"E":{"ha":760,"x_min":132,"x_max":732,"o":"m 647 61 q 668 81 668 61 q 647 101 668 101 l 235 101 l 235 429 l 501 429 q 522 450 522 429 q 501 471 522 471 l 235 471 l 235 796 l 647 796 q 668 818 668 796 q 647 839 668 839 l 214 839 q 193 818 193 839 l 193 81 q 214 61 193 61 l 647 61 m 647 164 q 707 140 682 164 q 732 81 732 115 q 707 23 732 47 q 647 -1 682 -1 l 214 -1 q 156 23 181 -1 q 132 81 132 47 l 132 818 q 156 877 132 853 q 214 901 181 901 l 647 901 q 707 877 682 901 q 732 818 732 853 q 707 759 732 783 q 647 735 682 735 l 297 735 l 297 532 l 501 532 q 560 508 536 532 q 585 450 585 485 q 560 390 585 415 q 501 365 536 365 l 297 365 l 297 164 l 647 164 z "},"F":{"ha":760,"x_min":132,"x_max":732,"o":"m 647 801 q 668 822 668 801 q 647 843 668 843 l 214 843 q 193 822 193 843 l 193 85 q 214 65 193 65 q 235 85 235 65 l 235 433 l 501 433 q 522 454 522 433 q 501 475 522 475 l 235 475 l 235 801 l 647 801 m 647 904 q 707 881 682 904 q 732 822 732 857 q 707 764 732 788 q 647 740 682 740 l 297 740 l 297 536 l 501 536 q 560 512 536 536 q 585 454 585 488 q 560 395 585 419 q 501 371 536 371 l 297 371 l 297 85 q 273 27 297 51 q 214 3 249 3 q 156 27 181 3 q 132 85 132 51 l 132 822 q 156 881 132 857 q 214 904 181 904 l 647 904 z "},"G":{"ha":996,"x_min":63,"x_max":968,"o":"m 517 64 q 793 177 679 64 q 907 454 907 290 q 886 475 907 475 l 503 475 q 482 454 482 475 q 503 433 482 433 l 864 433 q 756 199 856 293 q 517 104 657 104 q 267 206 369 104 q 165 454 165 307 q 267 703 165 603 q 517 804 368 804 q 763 703 660 804 q 776 697 768 697 q 797 718 797 697 q 792 732 797 726 q 517 846 676 846 q 238 733 351 846 q 124 454 124 619 q 238 177 124 290 q 517 64 353 64 m 886 538 q 944 513 921 538 q 968 454 968 488 q 837 133 968 264 q 517 1 706 1 q 194 133 326 1 q 63 454 63 264 q 194 776 63 644 q 517 907 325 907 q 835 775 701 907 q 858 718 858 753 q 834 658 858 683 q 776 633 810 633 q 718 658 743 633 q 517 742 636 742 q 310 659 393 742 q 228 454 228 576 q 311 250 228 333 q 517 167 394 167 q 687 224 611 167 q 790 371 763 281 l 503 371 q 443 395 468 371 q 418 454 418 419 q 443 513 418 488 q 503 538 468 538 l 886 538 z "},"H":{"ha":908,"x_min":132,"x_max":776,"o":"m 715 81 l 715 824 q 694 844 715 844 q 674 824 674 844 l 674 474 l 235 474 l 235 824 q 214 844 235 844 q 193 824 193 844 l 193 81 q 214 61 193 61 q 235 81 235 61 l 235 432 l 674 432 l 674 81 q 694 61 674 61 q 715 81 715 61 m 694 906 q 753 882 729 906 q 776 824 776 858 l 776 81 q 753 23 776 47 q 694 -1 729 -1 q 635 23 660 -1 q 611 81 611 47 l 611 369 l 297 369 l 297 81 q 273 23 297 47 q 214 -1 249 -1 q 156 23 181 -1 q 132 81 132 47 l 132 824 q 156 882 132 858 q 214 906 181 906 q 273 882 249 906 q 297 824 297 858 l 297 535 l 611 535 l 611 824 q 635 882 611 858 q 694 906 660 906 z "},"I":{"ha":429,"x_min":132,"x_max":297,"o":"m 235 82 l 235 825 q 214 847 235 847 q 193 825 193 847 l 193 82 q 214 63 193 63 q 235 82 235 63 m 214 908 q 273 884 249 908 q 297 825 297 860 l 297 82 q 273 24 297 49 q 214 0 249 0 q 156 24 181 0 q 132 82 132 49 l 132 825 q 156 884 132 860 q 214 908 181 908 z "},"J":{"ha":632,"x_min":28,"x_max":500,"o":"m 438 265 l 438 829 q 417 850 438 850 q 396 829 396 850 l 396 267 q 272 92 396 92 q 177 113 238 92 q 110 135 117 135 q 89 114 89 135 q 101 94 89 100 q 272 51 201 51 q 438 265 438 51 m 500 267 q 347 0 500 50 q 272 -11 313 -11 q 76 39 190 -11 q 28 114 28 61 q 52 173 28 149 q 110 197 76 197 q 144 190 129 197 q 271 154 224 154 q 326 196 314 154 q 335 272 335 217 l 335 829 q 358 888 335 864 q 417 911 382 911 q 475 888 451 911 q 499 829 499 864 l 500 267 z "},"K":{"ha":785,"x_min":132,"x_max":729,"o":"m 665 83 q 658 99 665 93 l 247 456 l 658 807 q 665 822 665 813 q 644 843 665 843 q 632 839 636 843 l 235 497 l 235 824 q 214 844 235 844 q 193 824 193 844 l 193 78 q 214 58 193 58 q 235 78 235 58 l 235 410 l 632 68 q 644 63 639 63 q 665 83 665 63 m 700 146 q 729 83 729 121 q 704 25 729 50 q 644 0 679 0 q 592 21 614 0 l 297 275 l 297 78 q 273 20 297 44 q 214 -4 249 -4 q 156 20 181 -4 q 132 78 132 44 l 132 824 q 156 882 132 858 q 214 906 181 906 q 273 882 249 906 q 297 824 297 858 l 297 633 l 592 886 q 644 904 613 904 q 704 881 679 904 q 729 822 729 857 q 700 760 729 783 l 343 454 l 700 146 z "},"L":{"ha":760,"x_min":132,"x_max":732,"o":"m 647 58 q 668 78 668 58 q 647 99 668 99 l 235 99 l 235 815 q 214 836 235 836 q 193 815 193 836 l 193 78 q 214 58 193 58 l 647 58 m 647 163 q 707 138 682 163 q 732 78 732 113 q 707 20 732 44 q 647 -4 682 -4 l 214 -4 q 156 20 181 -4 q 132 78 132 44 l 132 815 q 156 874 132 850 q 214 899 181 899 q 273 874 249 899 q 297 815 297 850 l 297 163 l 647 163 z "},"M":{"ha":1092,"x_min":28,"x_max":1064,"o":"m 1003 75 l 1003 79 l 851 818 q 831 835 849 835 l 792 835 q 772 819 778 835 l 546 131 l 319 819 q 300 835 314 835 l 261 835 q 240 818 243 835 l 89 75 q 110 56 89 56 q 131 71 128 56 l 278 793 l 285 793 l 518 79 q 539 67 522 67 l 553 67 q 574 79 569 67 l 807 793 l 814 793 l 961 71 q 982 56 964 56 q 1003 75 1003 56 m 1063 92 q 1064 75 1064 85 q 1040 17 1064 42 q 982 -7 1017 -7 q 901 60 914 -7 l 797 564 l 632 61 q 553 4 615 4 l 539 4 q 460 61 478 4 l 294 564 l 192 60 q 110 -7 178 -7 q 52 17 76 -7 q 28 75 28 42 q 29 92 28 85 l 181 831 q 261 897 194 897 l 300 897 q 378 840 360 897 l 546 331 l 714 840 q 792 897 732 897 l 831 897 q 911 831 899 897 l 1063 92 z "},"N":{"ha":908,"x_min":132,"x_max":776,"o":"m 715 79 l 715 814 q 694 835 715 835 q 674 814 674 835 l 674 100 l 668 100 l 282 818 q 263 829 276 829 l 214 829 q 193 808 193 829 l 193 74 q 214 53 193 53 q 235 74 235 53 l 235 788 l 250 788 l 638 69 q 656 58 643 58 l 694 58 q 715 79 715 58 m 694 899 q 753 874 729 899 q 776 814 776 849 l 776 79 q 753 21 776 46 q 694 -4 729 -4 l 656 -4 q 583 40 606 -4 l 297 571 l 297 74 q 273 15 297 40 q 214 -10 249 -10 q 156 15 181 -10 q 132 74 132 40 l 132 808 q 156 868 132 843 q 214 893 181 893 l 263 893 q 335 849 313 893 l 611 338 l 611 814 q 635 874 611 849 q 694 899 660 899 z "},"O":{"ha":1031,"x_min":63,"x_max":968,"o":"m 517 53 q 793 166 679 53 q 907 443 907 279 q 793 721 907 607 q 517 835 679 835 q 238 722 351 835 q 124 443 124 608 q 238 166 124 279 q 517 53 353 53 m 517 897 q 837 765 706 897 q 968 443 968 632 q 837 122 968 253 q 517 -10 706 -10 q 194 122 326 -10 q 63 443 63 253 q 194 765 63 633 q 517 897 325 897 m 517 156 q 721 239 638 156 q 804 443 804 322 q 721 647 804 564 q 517 731 638 731 q 310 648 393 731 q 228 443 228 565 q 311 239 228 322 q 517 156 394 156 m 517 793 q 765 692 664 793 q 865 443 865 590 q 765 194 865 296 q 517 93 664 93 q 267 194 369 93 q 165 443 165 296 q 267 692 165 590 q 517 793 369 793 z "},"P":{"ha":810,"x_min":132,"x_max":761,"o":"m 476 392 q 635 457 569 392 q 700 615 700 522 q 635 772 700 707 q 476 836 569 836 l 214 836 q 193 815 193 836 l 193 72 q 214 53 193 53 q 235 72 235 53 l 235 392 l 476 392 m 476 899 q 679 817 597 899 q 761 615 761 735 q 679 412 761 493 q 476 331 597 331 l 297 331 l 297 72 q 273 15 297 39 q 214 -10 249 -10 q 156 15 181 -10 q 132 72 132 39 l 132 815 q 156 874 132 850 q 214 899 181 899 l 476 899 m 476 496 q 561 531 526 496 q 596 615 596 565 q 561 699 596 664 q 476 733 526 733 l 297 733 l 297 496 l 476 496 m 476 794 q 604 742 551 794 q 657 615 657 689 q 604 488 657 540 q 476 435 551 435 l 235 435 l 235 794 l 476 794 z "},"Q":{"ha":1031,"x_min":63,"x_max":968,"o":"m 903 71 l 903 74 q 882 92 900 93 l 878 90 q 844 89 863 89 q 744 129 797 89 q 907 446 907 246 q 793 723 907 610 q 517 836 679 836 q 238 724 351 836 q 124 446 124 611 q 238 167 124 281 q 517 54 351 54 q 708 106 619 54 q 804 51 763 60 q 846 49 817 49 q 885 51 867 49 q 903 71 903 54 m 868 153 q 881 154 876 154 q 940 129 915 154 q 964 69 964 104 q 896 -11 964 1 q 846 -15 874 -15 q 701 32 769 -15 q 517 -8 613 -8 q 194 124 326 -8 q 63 446 63 256 q 194 767 63 635 q 517 900 326 900 q 837 767 706 900 q 968 446 968 635 q 860 151 968 279 l 868 153 m 667 317 l 722 246 q 804 446 804 331 q 721 650 804 567 q 517 733 638 733 q 311 650 394 733 q 228 446 228 567 q 310 241 228 324 q 517 158 393 158 q 576 165 546 158 l 538 211 q 519 264 519 235 q 542 324 519 300 q 601 347 565 347 q 667 317 642 347 m 865 446 q 715 158 865 263 l 618 278 q 601 285 613 285 q 581 264 581 285 q 586 251 581 257 l 679 136 q 517 96 603 96 q 267 197 369 96 q 165 446 165 299 q 267 694 165 593 q 517 794 369 794 q 765 694 664 794 q 865 446 865 593 z "},"R":{"ha":824,"x_min":132,"x_max":761,"o":"m 693 79 q 689 92 693 86 l 481 400 q 636 466 572 401 q 700 622 700 531 q 635 779 700 714 q 476 844 569 844 l 214 844 q 193 824 193 844 l 193 79 q 214 60 193 60 q 235 79 235 60 l 235 400 l 432 400 l 654 69 q 672 60 661 60 q 693 79 693 60 m 585 358 l 740 126 q 754 79 754 106 q 731 21 754 44 q 672 -3 708 -3 q 603 35 628 -3 l 399 339 l 297 339 l 297 79 q 273 22 297 46 q 214 -3 249 -3 q 156 22 181 -3 q 132 79 132 46 l 132 824 q 156 882 132 858 q 214 906 181 906 l 476 906 q 679 824 597 906 q 761 622 761 743 q 713 464 761 536 q 585 358 664 392 m 476 503 q 561 538 526 503 q 596 622 596 572 q 561 706 596 671 q 476 742 526 742 l 297 742 l 297 503 l 476 503 m 657 622 q 605 494 657 546 q 476 442 553 442 l 235 442 l 235 803 l 476 803 q 605 750 553 803 q 657 622 657 697 z "},"S":{"ha":778,"x_min":49,"x_max":729,"o":"m 399 61 q 578 101 506 61 q 667 250 667 153 q 582 399 667 342 q 403 474 526 436 q 228 546 279 513 q 156 656 156 592 q 233 772 156 735 q 379 804 294 804 q 556 742 467 804 q 628 678 603 708 q 643 671 633 671 q 663 692 663 671 q 658 706 663 699 q 578 776 633 739 q 379 846 481 846 q 203 804 274 846 q 114 656 114 754 q 206 511 114 568 q 360 449 246 486 q 539 375 490 404 q 626 250 626 324 q 547 132 626 171 q 399 101 488 101 q 219 164 307 101 q 147 226 174 196 q 131 235 140 235 q 110 214 110 235 q 115 201 110 207 q 197 128 147 163 q 399 61 294 61 m 390 547 q 614 451 544 497 q 729 250 729 372 q 622 57 729 124 q 399 -1 532 -1 q 163 76 276 -1 q 68 161 104 117 q 49 213 49 185 q 72 273 49 249 q 131 297 96 297 q 253 215 164 297 q 399 164 328 164 q 564 250 564 164 q 500 328 564 292 q 340 389 456 351 q 249 421 283 407 q 171 458 199 442 q 53 656 53 533 q 158 849 53 779 q 379 907 249 907 q 613 828 499 907 q 707 744 674 785 q 725 692 725 722 q 701 633 725 656 q 643 610 678 610 q 519 690 610 610 q 379 742 449 742 q 279 725 324 742 q 218 656 218 703 q 260 599 218 625 q 390 547 288 581 z "},"T":{"ha":718,"x_min":28,"x_max":690,"o":"m 608 794 q 629 815 629 794 q 608 836 629 836 l 110 836 q 89 815 89 836 q 110 794 89 794 l 339 794 l 339 81 q 358 61 339 61 q 379 81 379 61 l 379 794 l 608 794 m 608 900 q 666 875 642 900 q 690 815 690 850 q 666 757 690 781 q 608 733 642 733 l 442 733 l 442 81 q 417 23 442 47 q 358 -1 393 -1 q 301 23 325 -1 q 276 81 276 47 l 276 733 l 110 733 q 52 757 76 733 q 28 815 28 781 q 52 875 28 850 q 110 900 76 900 l 608 900 z "},"U":{"ha":922,"x_min":125,"x_max":797,"o":"m 797 324 q 697 92 797 186 q 460 -1 597 -1 q 225 89 321 -1 q 125 321 125 183 l 125 335 l 126 357 l 126 828 q 150 886 126 863 q 208 910 174 910 q 268 886 243 910 q 293 828 293 863 l 292 328 q 342 211 292 258 q 460 164 392 164 q 581 211 531 164 q 631 329 631 258 l 631 828 q 655 886 631 863 q 714 910 679 910 q 772 886 747 910 q 796 828 796 863 l 797 324 m 460 61 q 653 136 574 61 q 733 325 733 211 l 733 828 q 714 849 733 849 q 693 828 693 849 l 693 335 q 625 169 693 238 q 460 101 557 101 q 294 169 361 101 q 229 335 228 236 l 229 828 q 208 849 229 849 q 188 828 188 849 l 186 322 q 267 135 186 210 q 460 61 347 61 z "},"V":{"ha":872,"x_min":28,"x_max":844,"o":"m 781 814 q 782 821 782 817 q 763 842 782 842 q 743 829 749 842 l 447 99 l 425 99 l 129 829 q 110 842 124 842 q 89 821 89 842 q 90 814 89 817 l 392 69 q 411 57 397 57 l 461 57 q 481 69 475 57 l 781 814 m 844 821 q 839 790 844 804 l 538 47 q 461 -6 517 -6 l 411 -6 q 335 47 354 -6 l 33 790 q 28 821 28 804 q 52 880 28 856 q 110 904 76 904 q 188 853 167 904 l 436 238 l 685 853 q 763 904 706 904 q 820 880 796 904 q 844 821 844 856 z "},"W":{"ha":1221,"x_min":49,"x_max":1172,"o":"m 1110 817 q 1089 838 1110 838 q 1069 822 1074 838 l 879 100 l 872 100 l 638 813 q 618 826 633 826 l 603 826 q 583 813 588 826 l 350 100 l 342 100 l 151 822 q 131 838 147 838 q 110 817 110 838 q 111 813 110 814 l 306 74 q 325 60 310 60 l 364 60 q 383 72 379 60 l 611 763 l 838 72 q 857 60 842 60 l 896 60 q 917 74 913 60 l 1110 817 m 1172 817 q 1169 796 1172 807 l 975 58 q 896 -4 958 -4 l 857 -4 q 779 54 797 -4 l 611 564 l 443 54 q 364 -4 424 -4 l 325 -4 q 244 58 261 -4 l 51 796 q 49 817 49 807 q 73 876 49 851 q 131 901 97 901 q 213 839 196 901 l 351 307 l 524 832 q 603 890 543 890 l 618 890 q 696 832 676 890 l 869 307 l 1010 839 q 1089 901 1026 901 q 1148 876 1124 901 q 1172 817 1172 851 z "},"X":{"ha":768,"x_min":49,"x_max":719,"o":"m 657 82 q 653 94 657 89 l 408 457 l 653 818 q 657 831 657 824 q 638 851 657 851 q 619 842 626 851 l 383 493 l 149 842 q 131 851 142 851 q 110 831 110 851 q 114 818 110 824 l 360 457 l 114 94 q 110 82 110 89 q 131 63 110 63 q 149 71 142 63 l 383 419 l 619 71 q 638 63 626 63 q 657 82 657 63 m 485 457 l 706 129 q 719 82 719 108 q 695 24 719 49 q 638 0 671 0 q 568 36 593 0 l 383 308 l 200 36 q 131 0 175 0 q 73 24 97 0 q 49 82 49 49 q 63 129 49 108 l 283 457 l 63 783 q 49 831 49 804 q 73 889 49 865 q 131 913 97 913 q 200 876 175 913 l 383 604 l 568 876 q 638 913 593 913 q 695 889 671 913 q 719 831 719 865 q 706 783 719 804 l 485 457 z "},"Y":{"ha":724,"x_min":28,"x_max":696,"o":"m 631 807 q 633 818 633 813 q 614 839 633 839 q 596 829 601 839 l 361 444 l 128 829 q 110 839 122 839 q 89 818 89 839 q 92 807 89 811 l 335 408 q 342 403 338 406 l 342 74 q 361 54 342 54 q 382 74 382 54 l 382 403 q 389 408 386 406 l 631 807 m 656 889 q 696 818 696 865 q 683 775 696 796 l 444 381 l 444 74 q 420 16 444 40 q 361 -8 396 -8 q 303 16 328 -8 q 279 74 279 40 l 279 381 l 40 775 q 28 818 28 796 q 68 889 28 864 q 110 901 88 901 q 182 861 157 901 l 361 564 l 542 861 q 614 901 567 901 q 656 889 635 901 z "},"Z":{"ha":753,"x_min":63,"x_max":690,"o":"m 629 804 l 629 821 q 608 843 629 843 l 147 843 q 126 821 126 843 q 147 800 126 800 l 581 800 l 128 110 q 124 99 124 106 l 124 82 q 144 63 124 63 l 608 63 q 629 82 629 63 q 608 103 629 103 l 172 103 l 626 793 q 629 804 629 799 m 690 804 q 676 760 690 779 l 288 165 l 608 165 q 667 141 643 165 q 690 82 690 117 q 667 24 690 49 q 608 0 643 0 l 144 0 q 87 24 111 0 q 63 82 63 49 l 63 99 q 76 144 63 124 l 465 739 l 147 739 q 89 763 113 739 q 65 821 65 786 q 89 880 65 856 q 147 904 113 904 l 608 904 q 667 880 643 904 q 690 821 690 856 l 690 804 z "},"[":{"ha":333,"x_min":56,"x_max":344,"o":"m 261 -147 q 282 -126 282 -147 q 261 -106 282 -106 l 158 -106 l 158 888 l 261 888 q 282 908 282 888 q 261 929 282 929 l 138 929 q 117 908 117 929 l 117 -126 q 138 -147 117 -147 l 261 -147 m 261 -44 q 320 -68 296 -44 q 344 -126 344 -92 q 320 -185 344 -161 q 261 -208 296 -208 l 138 -208 q 80 -185 104 -208 q 56 -126 56 -161 l 56 908 q 80 967 56 943 q 138 990 104 990 l 261 990 q 320 967 296 990 q 344 908 344 943 q 320 850 344 874 q 261 826 296 826 l 221 826 l 221 -44 l 261 -44 z "},"\\":{"ha":488,"x_min":56,"x_max":432,"o":"m 371 86 l 371 92 l 158 839 q 138 853 154 853 q 117 832 117 853 q 118 826 117 829 l 331 81 q 350 67 335 67 q 371 86 371 67 m 429 110 q 432 86 432 100 q 408 28 432 53 q 350 4 383 4 q 269 65 288 4 l 58 810 q 56 832 56 819 q 80 891 56 867 q 138 915 104 915 q 218 856 200 915 l 429 110 z "},"]":{"ha":400,"x_min":56,"x_max":344,"o":"m 261 -147 q 282 -126 282 -147 l 282 907 q 261 928 282 928 l 138 928 q 117 907 117 928 q 138 886 117 886 l 242 886 l 242 -106 l 138 -106 q 117 -126 117 -106 q 138 -147 117 -147 l 261 -147 m 179 -44 l 179 825 l 138 825 q 80 849 104 825 q 56 907 56 872 q 80 965 56 942 q 138 989 104 989 l 261 989 q 320 965 296 989 q 344 907 344 942 l 344 -126 q 320 -185 344 -161 q 261 -208 296 -208 l 138 -208 q 80 -185 104 -208 q 56 -126 56 -161 q 80 -68 56 -92 q 138 -44 104 -44 l 179 -44 z "},"^":{"ha":536,"x_min":21,"x_max":515,"o":"m 454 486 q 451 493 454 489 l 300 833 q 281 846 294 846 l 256 846 q 236 833 242 846 l 85 493 q 82 486 82 489 q 103 465 82 465 q 122 478 117 465 l 268 801 l 414 478 q 433 465 419 465 q 454 486 454 465 m 508 519 q 515 486 515 504 q 492 427 515 451 q 433 403 468 403 q 357 451 379 403 l 268 650 l 179 451 q 103 403 157 403 q 45 427 69 403 q 21 486 21 451 q 28 519 21 504 l 181 858 q 256 907 203 907 l 281 907 q 356 858 335 907 l 508 519 z "},"_":{"ha":942,"x_min":21,"x_max":921,"o":"m 21 -36 l 921 -36 l 921 -108 l 21 -108 l 21 -36 z "},"`":{"ha":132,"x_min":14,"x_max":118,"o":"m 118 754 q 90 726 118 726 q 69 738 76 726 l 19 807 q 14 824 14 815 q 42 851 14 851 q 64 839 54 851 l 114 768 q 118 754 118 764 z "},"a":{"ha":849,"x_min":56,"x_max":751,"o":"m 689 81 l 689 599 q 668 619 689 619 q 649 599 649 619 l 649 482 q 403 619 564 619 q 199 537 282 619 q 117 333 117 454 q 199 129 117 211 q 403 47 282 47 q 649 186 564 47 l 649 81 q 668 60 649 60 q 689 81 689 60 m 668 681 q 727 656 703 681 q 751 599 751 632 l 751 81 q 727 22 751 47 q 668 -3 703 -3 q 596 43 618 -3 q 403 -15 508 -15 q 156 86 257 -15 q 56 333 56 188 q 156 581 56 481 q 403 682 256 682 q 592 625 506 682 q 668 681 611 681 m 403 151 q 533 204 479 151 q 586 333 586 257 q 533 462 586 408 q 403 515 479 515 q 274 462 328 515 q 221 333 221 408 q 274 204 221 257 q 403 151 328 151 m 403 578 q 577 506 506 578 q 649 333 649 435 q 577 159 649 231 q 403 88 506 88 q 230 159 301 88 q 158 333 158 231 q 230 506 158 435 q 403 578 301 578 z "},"b":{"ha":849,"x_min":97,"x_max":793,"o":"m 444 49 q 648 131 565 49 q 731 335 731 213 q 648 538 731 456 q 444 621 565 621 q 200 482 285 621 l 200 824 q 179 844 200 844 q 158 824 158 844 l 158 78 q 179 58 158 58 q 200 78 200 58 l 200 188 q 444 49 285 49 m 444 682 q 692 582 592 682 q 793 335 793 482 q 692 88 793 189 q 444 -14 590 -14 q 256 43 342 -14 q 179 -6 233 -6 q 122 19 146 -6 q 97 78 97 44 l 97 824 q 122 882 97 858 q 179 906 146 906 q 238 882 214 906 q 263 824 263 858 l 263 631 q 444 682 346 682 m 444 153 q 574 206 521 153 q 628 335 628 258 q 574 463 628 410 q 444 517 521 517 q 316 463 369 517 q 263 335 263 410 q 316 206 263 258 q 444 153 369 153 m 444 579 q 619 508 547 579 q 690 335 690 436 q 619 160 690 232 q 444 89 547 89 q 272 160 343 89 q 200 335 200 232 q 272 508 200 436 q 444 579 343 579 z "},"c":{"ha":750,"x_min":56,"x_max":694,"o":"m 631 182 q 633 193 633 188 q 613 213 633 213 q 596 206 601 213 q 397 99 524 99 q 228 168 297 99 q 158 339 158 238 q 228 508 158 439 q 397 576 297 576 q 596 472 525 576 q 613 463 603 463 q 633 483 633 463 q 631 494 633 489 q 397 618 546 618 q 198 538 279 618 q 117 339 117 457 q 198 139 117 219 q 397 58 279 58 q 631 182 546 58 m 694 193 q 681 147 694 168 q 397 -4 579 -4 q 154 95 253 -4 q 56 339 56 194 q 154 582 56 483 q 397 681 253 681 q 681 529 579 681 q 694 483 694 508 q 672 424 694 447 q 613 400 649 400 q 543 438 568 400 q 397 514 492 514 q 273 463 325 514 q 221 339 221 411 q 273 214 221 265 q 397 163 325 163 q 543 239 492 163 q 613 276 568 276 q 671 251 647 276 q 694 193 694 226 z "},"d":{"ha":849,"x_min":56,"x_max":751,"o":"m 689 83 l 689 829 q 668 850 689 850 q 649 829 649 850 l 649 486 q 403 625 564 625 q 199 543 282 625 q 117 340 117 461 q 199 136 117 218 q 403 54 282 54 q 649 193 564 54 l 649 83 q 668 64 649 64 q 689 83 689 64 m 668 911 q 727 888 703 911 q 751 829 751 864 l 751 83 q 727 25 751 50 q 668 0 703 0 q 594 49 617 0 q 403 -8 507 -8 q 156 93 257 -8 q 56 340 56 194 q 156 587 56 486 q 403 688 256 688 q 586 636 503 688 l 586 829 q 610 888 586 864 q 668 911 635 911 m 403 158 q 533 211 479 158 q 586 340 586 264 q 533 469 586 415 q 403 522 479 522 q 274 469 328 522 q 221 340 221 415 q 274 211 221 264 q 403 158 328 158 m 403 585 q 577 513 506 585 q 649 340 649 442 q 577 166 649 238 q 403 94 506 94 q 230 166 301 94 q 158 340 158 238 q 230 513 158 442 q 403 585 301 585 z "},"e":{"ha":807,"x_min":56,"x_max":751,"o":"m 403 103 q 229 174 300 103 q 158 347 158 244 l 158 349 l 668 349 q 689 369 689 349 l 689 371 q 674 442 689 399 q 570 581 644 528 q 403 633 496 633 q 199 551 282 633 q 117 347 117 469 q 199 144 117 226 q 403 63 282 63 q 640 189 554 63 q 644 200 644 193 q 624 219 644 219 q 606 210 613 219 q 403 103 532 103 m 668 288 l 233 288 q 299 199 251 232 q 403 167 346 167 q 554 246 500 167 q 624 282 579 282 q 683 258 660 282 q 706 200 706 235 q 692 153 706 174 q 403 0 588 0 q 156 101 257 0 q 56 347 56 203 q 156 595 56 494 q 403 696 256 696 q 607 631 517 696 q 733 461 697 567 q 751 376 751 408 l 751 369 q 727 312 751 336 q 668 288 703 288 m 254 453 l 553 453 q 403 531 499 531 q 254 453 308 531 m 644 390 l 163 390 q 246 536 178 479 q 403 593 314 593 q 561 536 493 593 q 644 390 629 479 z "},"f":{"ha":471,"x_min":49,"x_max":457,"o":"m 231 717 q 288 801 231 801 q 335 790 304 801 q 375 778 365 778 q 394 799 394 778 q 382 818 394 813 q 286 843 328 843 q 188 717 188 843 l 188 615 l 131 615 q 110 594 110 615 q 131 572 110 572 l 188 572 l 188 76 q 210 57 188 57 q 231 76 231 57 l 231 572 l 368 572 q 388 594 388 572 q 368 615 388 615 l 231 615 l 231 717 m 342 724 q 293 739 311 738 q 292 717 292 729 l 292 676 l 368 676 q 426 652 401 676 q 450 594 450 628 q 426 535 450 560 q 368 510 401 510 l 292 510 l 292 76 q 267 19 292 43 q 210 -6 243 -6 q 150 19 175 -6 q 125 76 125 43 l 125 510 q 71 537 93 513 q 49 594 49 561 q 72 649 49 625 q 125 676 94 674 l 125 717 q 199 879 125 831 q 286 904 238 904 q 407 875 340 904 q 457 799 457 853 q 433 740 457 764 q 375 717 408 717 q 342 724 357 717 z "},"g":{"ha":836,"x_min":56,"x_max":739,"o":"m 657 685 q 715 660 690 685 q 739 601 739 635 l 739 38 q 610 -168 739 -97 q 361 -222 508 -222 l 206 -222 q 147 -199 171 -222 q 122 -140 122 -175 q 147 -81 122 -106 q 206 -57 171 -57 l 340 -58 l 365 -58 q 574 40 574 -58 l 574 46 q 397 -4 493 -4 q 154 95 253 -4 q 56 339 56 194 q 155 581 56 482 q 397 679 254 679 q 578 628 496 679 q 657 685 597 685 m 676 38 l 676 601 q 657 624 676 624 q 636 601 636 624 l 636 485 q 397 618 553 618 q 198 538 279 618 q 117 339 117 457 q 198 139 117 219 q 397 58 279 58 q 636 193 553 58 l 636 38 q 535 -87 636 -46 q 367 -119 460 -119 l 206 -119 q 185 -140 185 -119 q 206 -161 185 -161 l 367 -161 q 567 -119 481 -161 q 676 38 676 -68 m 397 576 q 566 506 496 576 q 636 339 636 436 q 567 168 636 238 q 397 99 497 99 q 228 168 297 99 q 158 339 158 238 q 228 507 158 438 q 397 576 297 576 m 397 161 q 522 213 471 161 q 574 339 574 265 q 522 463 574 411 q 397 514 471 514 q 273 463 325 514 q 221 339 221 411 q 273 213 221 265 q 397 161 325 161 z "},"h":{"ha":847,"x_min":97,"x_max":750,"o":"m 689 78 l 689 363 q 613 551 689 475 q 424 628 536 628 q 200 504 279 628 l 200 825 q 179 846 200 846 q 158 825 158 846 l 158 78 q 179 58 158 58 q 200 78 200 58 l 200 363 q 265 522 200 457 q 424 588 331 588 q 583 522 518 588 q 647 363 647 457 l 647 78 q 668 58 647 58 q 689 78 689 58 m 424 690 q 656 595 563 690 q 750 363 750 500 l 750 78 q 726 20 750 44 q 668 -4 701 -4 q 609 20 633 -4 q 585 78 585 44 l 585 363 q 538 477 585 431 q 424 524 492 524 q 310 477 357 524 q 263 363 263 431 l 263 78 q 238 20 263 44 q 179 -4 214 -4 q 122 20 146 -4 q 97 78 97 44 l 97 825 q 122 883 97 860 q 179 907 146 907 q 238 883 214 907 q 263 825 263 860 l 263 647 q 424 690 338 690 z "},"i":{"ha":372,"x_min":97,"x_max":275,"o":"m 151 826 q 186 793 151 793 q 219 826 219 793 q 186 861 219 861 q 151 826 151 861 m 97 826 q 123 890 97 864 q 186 915 149 915 q 249 890 224 915 q 275 826 275 864 q 249 763 275 789 q 186 738 224 738 q 123 763 149 738 q 97 826 97 789 m 200 79 l 200 600 q 179 621 200 621 q 158 600 158 621 l 158 79 q 179 60 158 60 q 200 79 200 60 m 179 682 q 238 658 214 682 q 263 600 263 633 l 263 79 q 238 22 263 46 q 179 -3 214 -3 q 122 22 146 -3 q 97 79 97 46 l 97 600 q 122 658 97 633 q 179 682 146 682 z "},"j":{"ha":343,"x_min":-85,"x_max":246,"o":"m 124 831 q 157 797 124 797 q 192 831 192 797 q 157 865 192 865 q 124 831 124 865 m 69 831 q 94 894 69 868 q 157 919 119 919 q 220 894 194 919 q 246 831 246 868 q 220 768 246 793 q 157 743 194 743 q 95 769 121 743 q 69 831 69 794 m 185 -37 l 185 601 q 164 622 185 622 q 143 601 143 622 l 143 -36 q 86 -121 143 -121 q 39 -109 69 -121 q -3 -97 8 -97 q -24 -118 -24 -97 q -11 -137 -24 -132 q 86 -162 44 -162 q 185 -37 185 -162 m 246 -37 q 205 -172 246 -119 q 86 -224 164 -224 q -36 -194 33 -224 q -85 -118 -85 -172 q -60 -60 -85 -83 q -3 -36 -36 -36 q 40 -47 13 -36 q 81 -58 68 -57 q 82 -36 82 -50 l 82 601 q 106 660 82 635 q 164 685 129 685 q 222 660 199 685 q 246 601 246 635 l 246 -37 z "},"k":{"ha":697,"x_min":97,"x_max":600,"o":"m 539 79 q 532 94 539 88 l 239 363 l 531 583 q 539 600 539 590 q 518 621 539 621 q 506 617 511 621 l 200 386 l 200 825 q 179 846 200 846 q 158 825 158 846 l 158 79 q 179 60 158 60 q 200 79 200 60 l 200 342 l 504 65 q 518 60 510 60 q 539 79 539 60 m 335 358 l 574 142 q 600 79 600 118 q 577 21 600 44 q 518 -3 554 -3 q 461 19 486 -3 l 263 201 l 263 79 q 238 22 263 46 q 179 -3 214 -3 q 122 22 146 -3 q 97 79 97 46 l 97 825 q 122 884 97 860 q 179 908 146 908 q 238 884 214 908 q 263 825 263 860 l 263 511 l 468 665 q 518 682 490 682 q 576 658 553 682 q 600 600 600 633 q 567 533 600 558 l 335 358 z "},"l":{"ha":360,"x_min":97,"x_max":263,"o":"m 200 78 l 200 836 q 179 857 200 857 q 158 836 158 857 l 158 78 q 179 58 158 58 q 200 78 200 58 m 179 918 q 238 894 214 918 q 263 836 263 871 l 263 78 q 238 20 263 44 q 179 -4 214 -4 q 122 20 146 -4 q 97 78 97 44 l 97 836 q 122 894 97 871 q 179 918 146 918 z "},"m":{"ha":1238,"x_min":97,"x_max":1140,"o":"m 1079 78 l 1079 389 q 1009 558 1079 489 q 839 628 939 628 q 707 589 767 628 q 618 486 647 550 q 531 589 590 550 q 400 628 471 628 q 200 524 272 628 l 200 600 q 179 621 200 621 q 158 600 158 621 l 158 78 q 179 58 158 58 q 200 78 200 58 l 200 389 q 258 530 200 472 q 400 588 317 588 q 540 530 482 588 q 597 389 597 472 l 597 78 q 618 58 597 58 q 639 78 639 58 l 639 383 q 699 529 661 485 q 839 588 746 588 q 979 530 921 588 q 1038 389 1038 472 l 1038 78 q 1058 58 1038 58 q 1079 78 1079 58 m 839 690 q 1053 603 967 690 q 1140 389 1140 517 l 1140 78 q 1117 20 1140 44 q 1058 -4 1093 -4 q 1000 20 1024 -4 q 976 78 976 44 l 976 389 q 935 485 976 446 q 839 525 894 525 q 701 379 717 525 l 701 78 q 677 20 701 44 q 618 -4 653 -4 q 560 20 583 -4 q 536 78 536 44 l 536 389 q 496 485 536 446 q 400 525 456 525 q 303 485 343 525 q 263 389 263 446 l 263 78 q 238 20 263 44 q 179 -4 214 -4 q 122 20 146 -4 q 97 78 97 44 l 97 600 q 122 658 97 633 q 179 683 146 683 q 247 649 222 683 q 400 690 317 690 q 618 596 529 690 q 839 690 708 690 z "},"n":{"ha":847,"x_min":97,"x_max":750,"o":"m 689 82 l 689 367 q 613 555 689 479 q 424 631 536 631 q 200 508 279 631 l 200 601 q 179 622 200 622 q 158 601 158 622 l 158 78 q 179 58 158 58 q 200 78 200 58 l 200 367 q 265 526 200 461 q 424 590 331 590 q 582 525 517 590 q 647 367 647 460 l 647 82 q 668 63 647 63 q 689 82 689 63 m 424 693 q 656 599 563 693 q 750 367 750 504 l 750 82 q 726 24 750 49 q 668 -1 701 -1 q 609 24 633 -1 q 585 82 585 49 l 585 367 q 538 481 585 433 q 424 528 490 528 q 310 481 357 528 q 263 367 263 435 l 263 78 q 238 20 263 44 q 179 -4 214 -4 q 122 20 146 -4 q 97 78 97 44 l 97 601 q 122 660 97 635 q 179 685 146 685 q 251 643 226 685 q 424 693 331 693 z "},"o":{"ha":807,"x_min":56,"x_max":751,"o":"m 403 56 q 606 138 524 56 q 689 342 689 219 q 606 544 689 463 q 403 626 524 626 q 199 544 282 626 q 117 342 117 463 q 199 138 117 219 q 403 56 282 56 m 403 689 q 651 588 550 689 q 751 342 751 488 q 651 94 751 194 q 403 -7 550 -7 q 156 94 256 -7 q 56 342 56 194 q 156 588 56 488 q 403 689 256 689 m 403 158 q 533 212 479 158 q 586 342 586 265 q 533 470 586 417 q 403 524 479 524 q 274 470 328 524 q 221 342 221 417 q 274 212 221 265 q 403 158 328 158 m 403 586 q 577 515 506 586 q 649 342 649 443 q 577 167 649 239 q 403 96 506 96 q 230 167 301 96 q 158 342 158 239 q 230 515 158 443 q 403 586 301 586 z "},"p":{"ha":849,"x_min":97,"x_max":793,"o":"m 444 49 q 648 131 565 49 q 731 335 731 213 q 648 538 731 456 q 444 621 565 621 q 200 483 285 621 l 200 606 q 179 625 200 625 q 158 606 158 625 l 158 -140 q 179 -161 158 -161 q 200 -140 200 -161 l 200 188 q 444 49 285 49 m 444 683 q 692 583 592 683 q 793 335 793 482 q 692 88 793 189 q 444 -14 590 -14 q 263 39 346 -14 l 263 -140 q 238 -199 263 -175 q 179 -222 214 -222 q 122 -199 146 -222 q 97 -140 97 -175 l 97 606 q 122 663 97 639 q 179 688 146 688 q 260 628 242 688 q 444 683 344 683 m 444 153 q 574 206 521 153 q 628 335 628 258 q 574 463 628 410 q 444 517 521 517 q 316 463 369 517 q 263 335 263 410 q 316 206 263 258 q 444 153 369 153 m 444 579 q 619 508 547 579 q 690 335 690 436 q 619 161 690 232 q 444 90 549 90 q 272 161 343 90 q 200 335 200 232 q 272 508 200 436 q 444 579 343 579 z "},"q":{"ha":849,"x_min":56,"x_max":751,"o":"m 689 -142 l 689 604 q 668 625 689 625 q 649 604 649 625 l 649 482 q 403 619 564 619 q 199 537 282 619 q 117 333 117 454 q 199 129 117 211 q 403 47 282 47 q 649 186 564 47 l 649 -142 q 668 -162 649 -162 q 689 -142 689 -162 m 668 686 q 727 662 703 686 q 751 604 751 638 l 751 -142 q 727 -201 751 -176 q 668 -225 703 -225 q 610 -201 635 -225 q 586 -142 586 -176 l 586 38 q 403 -15 503 -15 q 156 86 257 -15 q 56 333 56 188 q 156 581 56 481 q 403 681 256 681 q 589 626 504 681 q 668 686 607 686 m 403 151 q 533 204 479 151 q 586 333 586 257 q 533 462 586 408 q 403 515 479 515 q 274 462 328 515 q 221 333 221 408 q 274 204 221 257 q 403 151 328 151 m 403 578 q 577 506 506 578 q 649 333 649 435 q 577 159 649 231 q 403 88 506 88 q 230 159 301 88 q 158 333 158 231 q 230 506 158 435 q 403 578 301 578 z "},"r":{"ha":542,"x_min":97,"x_max":507,"o":"m 424 581 q 444 601 444 581 q 424 622 444 622 q 200 503 279 622 l 200 604 q 179 625 200 625 q 158 604 158 625 l 158 81 q 179 61 158 61 q 200 81 200 61 l 200 367 q 266 520 200 460 q 424 581 332 581 m 424 683 q 483 659 458 683 q 507 601 507 635 q 483 542 507 567 q 424 517 458 517 q 310 474 358 517 q 263 367 263 432 l 263 81 q 238 23 263 47 q 179 -1 214 -1 q 122 23 146 -1 q 97 81 97 47 l 97 604 q 122 662 97 638 q 179 686 146 686 q 256 638 233 686 q 424 683 332 683 z "},"s":{"ha":660,"x_min":63,"x_max":597,"o":"m 338 53 q 469 83 414 53 q 535 194 535 121 q 474 304 535 261 q 344 360 433 332 q 217 411 254 388 q 168 485 168 442 q 222 564 168 538 q 322 585 263 585 q 496 496 415 585 q 513 489 503 489 q 532 510 532 489 q 528 522 532 517 q 468 576 506 550 q 322 625 397 625 q 192 594 246 625 q 126 485 126 557 q 194 375 126 418 q 315 326 232 351 q 433 279 397 300 q 494 194 494 243 q 439 114 494 140 q 338 93 396 93 q 161 182 243 93 q 144 189 154 189 q 124 168 124 189 q 129 154 124 161 q 189 101 150 128 q 338 53 261 53 m 339 429 q 507 354 456 390 q 597 194 597 292 q 515 39 597 93 q 338 -10 443 -10 q 158 47 243 -10 q 63 168 63 111 q 86 227 63 204 q 144 250 110 250 q 208 221 182 250 q 338 156 269 156 q 432 194 432 156 q 286 271 432 222 q 161 324 199 300 q 65 485 65 383 q 146 639 65 585 q 322 688 217 688 q 500 629 414 688 q 594 510 594 567 q 570 452 594 476 q 513 428 546 428 q 447 457 474 428 q 322 522 388 522 q 232 485 232 522 q 339 429 232 465 z "},"t":{"ha":478,"x_min":35,"x_max":443,"o":"m 368 72 q 381 92 381 78 q 361 113 381 113 q 321 101 351 113 q 274 89 290 89 q 217 175 217 89 l 217 558 l 354 558 q 374 579 374 558 q 354 600 374 600 l 217 600 l 217 814 q 196 835 217 835 q 174 814 174 835 l 174 600 l 117 600 q 96 579 96 600 q 117 558 96 558 l 174 558 l 174 175 q 272 49 174 49 q 368 72 314 49 m 443 92 q 393 17 443 39 q 272 -14 326 -14 q 185 13 224 -14 q 111 174 111 61 l 111 496 q 57 522 79 497 q 35 579 35 546 q 57 635 35 613 q 111 661 79 658 l 111 814 q 136 873 111 849 q 196 897 161 897 q 253 873 229 897 q 278 814 278 849 l 278 661 l 354 661 q 412 638 388 661 q 436 579 436 614 q 412 519 436 544 q 354 494 388 494 l 278 494 l 278 176 q 279 153 278 163 q 328 168 297 154 q 361 175 343 175 q 419 151 394 175 q 443 92 443 126 z "},"u":{"ha":847,"x_min":97,"x_max":750,"o":"m 689 78 l 689 600 q 668 621 689 621 q 647 600 647 621 l 647 313 q 582 154 647 219 q 424 89 517 89 q 265 153 331 89 q 200 313 200 218 l 200 600 q 179 621 200 621 q 158 600 158 621 l 158 313 q 235 125 158 201 q 424 49 313 49 q 647 172 568 49 l 647 78 q 668 58 647 58 q 689 78 689 58 m 668 682 q 726 658 701 682 q 750 600 750 633 l 750 78 q 726 20 750 44 q 668 -4 701 -4 q 596 36 621 -4 q 424 -14 517 -14 q 192 81 286 -14 q 97 313 97 175 l 97 600 q 122 658 97 633 q 179 682 146 682 q 238 658 214 682 q 263 600 263 633 l 263 313 q 310 198 263 244 q 424 151 357 151 q 538 199 490 151 q 585 313 585 246 l 585 600 q 609 658 585 633 q 668 682 633 682 z "},"v":{"ha":721,"x_min":14,"x_max":707,"o":"m 642 590 q 644 599 644 594 q 624 619 644 619 q 606 607 611 619 l 367 100 l 353 100 l 115 607 q 96 619 110 619 q 75 599 75 619 q 78 590 75 594 l 322 69 q 340 58 328 58 l 379 58 q 399 69 393 58 l 642 590 m 707 599 q 699 563 707 581 l 456 44 q 379 -4 433 -4 l 340 -4 q 265 44 288 -4 l 22 563 q 14 599 14 581 q 38 656 14 632 q 96 681 63 681 q 172 633 150 681 l 360 232 l 549 633 q 624 681 571 681 q 683 656 658 681 q 707 599 707 632 z "},"w":{"ha":1099,"x_min":28,"x_max":1071,"o":"m 1008 593 q 1010 601 1010 597 q 989 622 1010 622 q 969 608 975 622 l 774 101 l 771 101 l 576 608 q 557 622 571 622 l 542 622 q 522 608 528 622 l 329 101 l 325 101 l 129 608 q 110 622 124 622 q 89 601 89 622 q 90 593 89 597 l 290 74 q 310 61 296 61 l 343 61 q 361 74 356 61 l 549 563 l 738 74 q 757 61 743 61 l 789 61 q 808 74 803 61 l 1008 593 m 1071 601 q 1065 571 1071 585 l 867 53 q 789 -1 846 -1 l 757 -1 q 679 53 700 -1 l 549 389 l 419 53 q 343 -1 399 -1 l 310 -1 q 232 53 253 -1 l 33 571 q 28 601 28 585 q 52 659 28 635 q 110 683 76 683 q 188 629 167 683 l 326 271 l 465 629 q 542 683 486 683 l 557 683 q 633 629 614 683 l 772 271 l 910 629 q 989 683 931 683 q 1047 659 1024 683 q 1071 601 1071 635 z "},"x":{"ha":668,"x_min":28,"x_max":640,"o":"m 579 76 q 575 90 579 86 l 361 339 l 575 585 q 579 599 579 592 q 558 619 579 619 q 543 613 549 619 l 335 369 l 126 613 q 110 619 121 619 q 89 599 89 619 q 94 585 89 592 l 307 339 l 94 90 q 89 76 89 83 q 110 57 89 57 q 126 65 119 57 l 335 307 l 543 65 q 558 57 549 57 q 579 76 579 57 m 444 339 l 622 132 q 640 78 640 110 q 617 19 640 44 q 558 -6 593 -6 q 494 24 519 -6 l 335 210 l 174 24 q 110 -6 149 -6 q 52 19 76 -6 q 28 78 28 44 q 49 132 28 108 l 225 339 l 49 544 q 28 599 28 568 q 51 657 28 633 q 110 681 75 681 q 174 651 149 681 l 335 465 l 494 651 q 558 681 519 681 q 617 657 594 681 q 640 599 640 633 q 622 544 640 567 l 444 339 z "},"y":{"ha":847,"x_min":97,"x_max":750,"o":"m 689 39 l 689 596 q 668 617 689 617 q 647 596 647 617 l 647 311 q 583 151 647 217 q 424 86 518 86 q 265 151 331 86 q 200 311 200 217 l 200 596 q 179 617 200 617 q 158 596 158 617 l 158 311 q 235 122 158 199 q 424 46 311 46 q 647 169 568 46 l 647 39 q 547 -87 647 -47 q 376 -118 474 -118 l 217 -118 q 194 -139 194 -118 q 217 -160 194 -160 l 378 -160 q 578 -118 493 -160 q 689 39 689 -65 m 668 678 q 726 653 701 678 q 750 596 750 629 l 750 39 q 621 -165 750 -94 q 372 -221 517 -221 l 217 -221 q 158 -197 182 -221 q 133 -139 133 -174 q 158 -81 133 -104 q 217 -57 182 -57 l 376 -57 q 579 24 543 -57 q 424 -17 507 -17 q 191 78 285 -17 q 97 311 97 172 l 97 596 q 122 653 97 629 q 179 678 146 678 q 238 653 214 678 q 263 596 263 629 l 263 311 q 310 197 263 243 q 424 150 357 150 q 538 197 492 150 q 585 311 585 243 l 585 596 q 609 653 585 629 q 668 678 633 678 z "},"z":{"ha":658,"x_min":14,"x_max":644,"o":"m 583 585 l 583 596 q 563 617 583 617 l 99 617 q 78 596 78 617 q 99 575 78 575 l 525 575 l 81 107 q 75 93 75 101 l 75 81 q 96 61 75 61 l 563 61 q 583 81 583 61 q 563 103 583 103 l 133 103 l 578 569 q 583 585 583 575 m 644 585 q 622 526 644 550 l 278 165 l 563 165 q 621 140 597 165 q 644 81 644 115 q 621 23 644 47 q 563 -1 597 -1 l 96 -1 q 38 23 63 -1 q 14 81 14 47 l 14 93 q 38 151 14 126 l 381 513 l 99 513 q 40 537 64 513 q 17 596 17 561 q 40 653 17 629 q 99 678 64 678 l 563 678 q 621 653 597 678 q 644 596 644 629 l 644 585 z "},"{":{"ha":449,"x_min":56,"x_max":456,"o":"m 374 -157 q 393 -136 393 -157 q 374 -115 393 -115 l 317 -115 q 282 -79 282 -115 l 282 306 q 260 360 282 338 q 206 382 238 382 l 158 382 l 158 436 l 194 436 q 248 458 226 436 q 269 513 269 481 l 269 856 q 304 890 269 890 l 374 890 q 393 911 393 890 q 374 932 393 932 l 304 932 q 251 909 274 932 q 229 856 229 886 l 229 513 q 194 478 229 478 l 138 478 q 117 457 117 478 l 117 361 q 138 340 117 340 l 206 340 q 240 306 240 340 l 240 -79 q 263 -134 240 -111 q 317 -157 285 -157 l 374 -157 m 374 -53 q 431 -77 407 -53 q 456 -136 456 -101 q 431 -194 456 -171 q 374 -218 407 -218 l 317 -218 q 218 -178 258 -218 q 178 -79 178 -137 l 178 278 l 138 278 q 80 302 104 278 q 56 361 56 326 l 56 457 q 80 516 56 492 q 138 540 104 540 l 167 540 l 167 856 q 207 953 167 913 q 304 993 247 993 l 374 993 q 431 969 407 993 q 456 911 456 946 q 431 853 456 876 q 374 829 407 829 l 333 829 l 333 513 q 290 413 333 454 q 344 306 344 372 l 344 -53 l 374 -53 z "},"|":{"ha":276,"x_min":56,"x_max":221,"o":"m 158 -136 l 158 825 q 138 846 158 846 q 117 825 117 846 l 117 -136 q 138 -157 117 -157 q 158 -136 158 -157 m 138 908 q 197 884 172 908 q 221 825 221 860 l 221 -136 q 197 -194 221 -171 q 138 -218 172 -218 q 80 -194 104 -218 q 56 -136 56 -171 l 56 825 q 80 884 56 860 q 138 908 104 908 z "},"}":{"ha":511,"x_min":56,"x_max":456,"o":"m 194 -157 q 248 -134 226 -157 q 269 -79 269 -111 l 269 294 q 304 329 269 329 l 374 329 q 393 350 393 329 l 393 446 q 374 467 393 467 l 317 467 q 282 501 282 467 l 282 846 q 260 900 282 878 q 206 922 238 922 l 138 922 q 117 901 117 922 q 138 881 117 881 l 206 881 q 240 846 240 881 l 240 501 q 263 447 240 469 q 317 425 285 425 l 351 425 l 351 371 l 304 371 q 251 349 272 371 q 229 294 229 326 l 229 -79 q 194 -115 229 -115 l 138 -115 q 117 -136 117 -115 q 138 -157 117 -157 l 194 -157 m 167 -53 l 167 294 q 221 401 167 361 q 178 501 178 443 l 178 819 l 138 819 q 80 843 104 819 q 56 901 56 867 q 80 960 56 936 q 138 983 104 983 l 206 983 q 303 944 263 983 q 344 846 344 904 l 344 529 l 374 529 q 431 505 407 529 q 456 446 456 481 l 456 350 q 431 291 456 315 q 374 267 407 267 l 333 267 l 333 -79 q 292 -178 333 -137 q 194 -218 251 -218 l 138 -218 q 80 -194 104 -218 q 56 -136 56 -171 q 80 -77 56 -101 q 138 -53 104 -53 l 167 -53 z "},"~":{"ha":672,"x_min":56,"x_max":617,"o":"m 551 433 q 554 444 554 439 q 533 465 554 465 q 517 454 521 465 q 431 401 488 401 q 340 437 404 401 q 244 472 276 472 l 243 472 q 119 390 165 472 q 117 381 117 385 q 138 360 117 360 q 156 369 150 360 q 243 431 194 431 q 329 395 264 431 q 431 360 394 360 q 551 433 513 360 m 617 443 q 544 336 617 388 q 431 297 493 297 q 292 346 369 297 q 243 367 256 367 q 210 339 228 368 q 138 299 186 299 q 97 310 115 299 q 56 381 56 333 q 67 421 56 401 q 243 533 131 533 l 244 533 q 371 490 303 533 l 379 486 q 431 464 415 464 q 463 486 449 464 q 533 525 489 525 q 593 502 569 525 q 617 443 617 479 z "},"":{"ha":0,"x_min":0,"x_max":0,"o":""},"":{"ha":289,"x_min":56,"x_max":233,"o":"m 178 597 q 144 631 178 631 q 110 597 110 631 q 144 564 110 564 q 178 597 178 564 m 233 597 q 207 535 233 561 q 144 508 181 508 q 81 534 107 508 q 56 597 56 560 q 81 660 56 633 q 144 686 107 686 q 208 660 182 686 q 233 597 233 633 m 129 356 l 129 -164 q 150 -185 129 -185 q 171 -164 171 -185 l 171 356 q 150 376 171 376 q 129 356 129 376 m 150 -246 q 92 -222 115 -246 q 68 -164 68 -199 l 68 356 q 92 415 68 390 q 150 439 115 439 q 209 415 185 439 q 233 356 233 390 l 233 -164 q 209 -222 233 -199 q 150 -246 185 -246 z "},"":{"ha":750,"x_min":56,"x_max":694,"o":"m 631 190 q 633 203 633 196 q 613 222 633 222 q 596 213 603 222 q 397 108 525 108 q 358 111 379 108 l 457 578 q 596 481 544 556 q 613 472 601 472 q 633 492 633 472 q 631 503 633 497 q 465 619 569 593 l 486 713 q 488 718 488 715 q 465 739 488 739 q 446 722 450 739 l 425 625 q 397 626 410 626 q 198 546 279 626 q 117 347 117 465 q 170 183 117 257 q 308 81 224 110 l 279 -57 q 300 -76 279 -76 q 321 -61 317 -76 l 349 71 q 397 68 375 68 q 631 190 546 68 m 694 203 q 681 156 694 176 q 397 4 579 6 l 382 -72 q 300 -139 368 -139 q 242 -115 265 -139 q 218 -57 218 -90 q 219 -39 218 -46 l 238 46 q 104 171 153 90 q 56 347 56 251 q 147 581 56 483 q 375 688 239 679 l 385 735 q 465 800 400 800 q 524 776 500 800 q 549 718 549 753 q 546 700 549 708 l 538 658 q 681 538 626 619 q 694 492 694 517 q 671 433 694 458 q 613 408 647 408 q 543 446 568 408 q 503 489 526 471 l 435 175 q 543 249 504 190 q 613 285 568 285 q 672 261 649 285 q 694 203 694 238 m 274 219 l 338 513 q 253 447 285 493 q 221 347 221 401 q 274 219 221 272 m 397 586 q 415 585 406 586 l 317 122 q 201 209 244 147 q 158 347 158 271 q 228 516 158 446 q 397 586 299 586 z "},"":{"ha":826,"x_min":56,"x_max":771,"o":"m 708 213 l 708 214 q 689 235 708 235 l 688 235 q 667 217 668 235 q 639 129 661 165 q 563 85 610 85 q 461 136 519 85 q 371 217 436 160 l 371 219 q 338 449 371 304 l 469 449 q 490 469 490 449 q 469 489 490 489 l 328 489 l 326 494 l 300 607 q 290 685 290 647 q 328 772 290 740 q 419 804 365 804 q 553 715 501 804 q 588 618 582 664 q 608 600 589 600 l 610 600 q 629 621 629 600 l 629 622 q 593 734 629 676 q 510 821 557 792 q 419 846 468 846 q 274 772 322 846 q 249 685 249 736 q 260 600 249 649 l 285 489 l 213 489 q 192 469 192 489 q 213 449 192 449 l 294 449 q 326 244 324 325 q 247 264 289 264 q 157 238 193 264 q 117 157 117 208 q 158 78 117 107 q 244 53 194 53 q 367 167 350 53 q 456 85 435 101 q 563 43 514 43 q 668 97 626 43 q 708 213 708 149 m 694 297 q 749 272 728 296 q 771 214 771 247 l 771 208 q 712 49 771 117 q 561 -19 653 -19 q 389 61 481 -19 q 244 -10 339 -10 q 112 35 168 -10 q 56 157 56 81 q 113 282 56 235 q 246 326 167 326 l 256 326 q 243 386 251 351 l 213 386 q 153 410 178 386 q 129 469 129 435 q 151 526 129 501 q 207 551 174 550 l 199 588 q 188 683 188 635 q 252 845 188 783 q 418 907 317 907 q 644 769 558 907 q 690 628 690 694 l 690 621 q 669 563 690 589 q 617 538 649 538 l 608 538 q 551 558 575 538 q 525 613 528 579 q 494 697 521 658 q 419 743 463 743 q 353 685 353 743 q 363 619 353 661 l 378 551 l 469 551 q 528 527 504 551 q 551 469 551 503 q 528 410 551 435 q 469 386 504 386 l 413 386 q 431 249 428 311 q 471 211 442 239 q 563 147 539 147 l 567 147 q 606 222 599 147 q 633 277 608 254 q 688 299 657 300 l 694 297 m 250 157 q 256 160 253 157 l 246 160 q 231 158 239 160 q 244 156 240 156 l 250 157 m 247 222 q 328 197 289 222 l 328 192 q 257 94 328 103 q 244 93 251 93 q 186 110 214 93 q 158 157 158 126 q 183 205 158 188 q 247 222 207 222 z "},"":{"ha":1043,"x_min":68,"x_max":1021,"o":"m 938 336 q 997 313 974 336 q 1021 253 1021 289 q 1007 208 1021 229 q 842 56 946 111 q 625 0 739 0 q 301 133 436 0 q 193 306 225 208 l 150 306 q 92 328 115 306 q 68 386 68 351 q 90 444 68 421 q 68 503 68 469 q 92 563 68 538 q 150 588 115 588 l 185 588 q 301 778 215 693 q 625 913 438 913 q 842 857 740 913 q 1007 704 944 801 q 1021 660 1021 682 q 997 601 1021 625 q 938 576 972 576 q 868 615 894 576 q 625 747 776 747 q 471 704 540 747 q 363 588 401 661 l 622 588 q 681 563 656 588 q 706 503 706 538 q 681 444 706 469 q 706 386 706 421 q 681 328 706 351 q 622 306 656 306 l 375 306 q 625 167 463 167 q 868 299 776 167 q 938 336 894 336 m 624 63 q 811 110 721 63 q 954 242 907 161 q 957 253 957 246 q 936 274 957 274 q 903 246 925 274 q 875 208 889 226 q 624 103 779 103 q 407 176 503 103 q 282 367 311 250 l 624 367 q 643 386 643 367 q 624 406 643 406 l 274 406 q 271 457 271 433 q 272 483 271 468 l 624 483 q 643 503 643 483 q 624 524 643 524 l 276 524 q 398 728 300 647 q 624 810 496 810 q 894 682 789 810 q 911 656 903 669 q 936 639 925 639 q 957 660 957 639 q 954 671 957 665 q 815 802 907 754 q 624 850 722 850 q 346 735 463 850 q 235 524 254 643 l 150 524 q 129 503 129 524 q 150 483 129 483 l 231 483 q 229 457 229 465 q 232 406 229 433 l 150 406 q 129 386 129 406 q 150 367 129 367 l 239 367 q 377 147 268 232 q 624 63 486 63 z "},"":{"ha":779,"x_min":56,"x_max":724,"o":"m 658 811 q 661 821 661 815 q 642 843 661 843 q 624 832 631 843 l 389 449 l 156 832 q 138 843 149 843 q 117 821 117 843 q 119 811 117 815 l 360 418 l 253 418 q 233 397 233 418 q 253 375 233 375 l 369 375 l 369 249 l 253 249 q 233 228 233 249 q 253 208 233 208 l 369 208 l 369 78 q 389 58 369 58 q 410 78 410 58 l 410 208 l 525 208 q 546 228 546 208 q 525 249 546 249 l 410 249 l 410 375 l 525 375 q 546 397 546 375 q 525 418 546 418 l 419 418 l 658 811 m 683 893 q 724 821 724 868 q 711 778 724 799 l 529 481 q 585 454 563 478 q 608 397 608 431 q 584 338 608 363 q 525 314 560 314 l 472 314 l 472 313 l 525 313 q 584 288 560 313 q 608 228 608 263 q 584 170 608 194 q 525 146 560 146 l 472 146 l 472 78 q 448 19 472 44 q 389 -6 424 -6 q 331 19 356 -6 q 307 78 307 44 l 307 146 l 253 146 q 195 170 219 146 q 171 228 171 194 q 195 288 171 263 q 253 313 219 313 l 307 313 l 307 314 l 253 314 q 195 338 219 314 q 171 397 171 363 q 194 454 171 431 q 249 481 217 478 l 68 778 q 56 821 56 799 q 96 893 56 868 q 138 904 114 904 q 210 865 185 904 l 389 568 l 569 865 q 642 904 594 904 q 683 893 663 904 z "},"":{"ha":276,"x_min":56,"x_max":221,"o":"m 158 486 l 158 824 q 138 844 158 844 q 117 824 117 844 l 117 486 q 138 467 117 467 q 158 486 158 467 m 138 906 q 197 882 172 906 q 221 824 221 858 l 221 486 q 197 428 221 453 q 138 404 172 404 q 80 428 104 404 q 56 486 56 453 l 56 824 q 80 882 56 858 q 138 906 104 906 m 158 -137 l 158 222 q 138 243 158 243 q 117 222 117 243 l 117 -137 q 138 -158 117 -158 q 158 -137 158 -158 m 138 306 q 197 281 172 306 q 221 222 221 257 l 221 -137 q 197 -197 221 -172 q 138 -221 172 -221 q 80 -197 104 -221 q 56 -137 56 -172 l 56 222 q 80 281 56 257 q 138 306 104 306 z "},"":{"ha":729,"x_min":56,"x_max":674,"o":"m 674 244 q 646 131 674 183 q 671 28 671 82 q 579 -161 671 -92 q 374 -224 497 -224 q 160 -143 264 -224 q 75 -57 106 -100 q 60 -8 60 -35 q 83 50 60 26 q 142 74 107 74 q 211 40 176 74 l 269 -19 q 374 -58 324 -58 q 506 28 506 -58 q 469 88 506 63 q 357 138 449 103 q 161 233 224 188 q 56 433 56 314 q 85 547 56 494 q 60 650 60 597 q 150 839 60 769 q 357 903 233 903 q 569 821 465 903 q 656 736 624 779 q 671 688 671 714 q 647 628 671 653 q 588 604 622 604 q 519 638 553 604 l 460 697 q 357 738 406 738 q 225 650 225 738 q 261 592 225 618 q 374 540 290 571 q 568 446 511 489 q 674 244 674 365 m 608 28 q 571 132 608 85 q 613 244 613 181 q 538 393 613 338 q 381 468 492 429 q 225 540 269 507 q 163 650 163 586 q 225 764 163 725 q 357 799 278 799 q 510 738 432 799 q 571 675 550 704 q 588 665 578 665 q 608 686 608 665 q 606 699 608 693 q 532 771 582 733 q 357 840 444 840 q 194 794 258 840 q 121 650 121 744 q 158 547 121 594 q 117 433 117 499 q 193 286 117 346 q 351 209 242 249 q 506 138 460 169 q 567 28 567 93 q 506 -87 567 -49 q 374 -121 454 -121 q 221 -60 297 -121 q 158 4 179 -26 q 142 13 153 13 q 121 -8 121 13 q 125 -21 121 -15 q 197 -93 153 -58 q 374 -162 282 -162 q 535 -117 471 -162 q 608 28 608 -67 m 497 369 q 571 244 571 319 q 542 161 571 197 q 389 238 497 200 q 233 308 275 279 q 158 433 158 358 q 188 517 158 482 q 340 443 226 486 q 497 369 453 400 m 414 293 q 508 254 481 268 q 450 326 503 294 q 315 385 414 347 q 222 424 265 404 q 301 340 228 378 q 414 293 333 324 z "},"":{"ha":317,"x_min":56,"x_max":261,"o":"m 131 835 q 94 797 131 797 q 56 835 56 797 q 94 874 56 874 q 131 835 131 874 m 261 835 q 224 797 261 797 q 186 835 186 797 q 224 874 186 874 q 261 835 261 874 z "},"":{"ha":1039,"x_min":56,"x_max":983,"o":"m 519 56 q 804 172 688 56 q 921 457 921 288 q 804 742 921 625 q 519 858 688 858 q 233 742 350 858 q 117 457 117 625 q 233 172 117 288 q 519 56 350 56 m 519 919 q 849 785 714 919 q 983 457 983 651 q 848 128 983 263 q 519 -7 713 -7 q 190 128 325 -7 q 56 457 56 263 q 190 785 56 650 q 519 919 325 919 m 519 158 q 731 244 646 158 q 817 457 817 331 q 731 669 817 583 q 519 756 646 756 q 307 669 393 756 q 221 457 221 582 q 307 245 221 332 q 519 158 393 158 m 519 817 q 774 713 669 817 q 879 457 879 608 q 774 201 879 306 q 519 96 669 96 q 263 201 368 96 q 158 457 158 306 q 263 713 158 608 q 519 817 368 817 m 708 344 q 711 354 711 349 q 690 375 711 375 q 674 365 681 375 q 533 290 626 290 q 417 339 465 290 q 368 457 368 388 q 417 574 368 525 q 533 624 465 624 q 674 547 626 624 q 690 538 681 538 q 711 558 711 538 q 708 569 711 564 q 533 664 647 664 q 387 603 447 664 q 326 457 326 543 q 388 310 326 371 q 533 249 449 249 q 708 344 647 249 m 774 354 q 761 310 774 329 q 533 188 682 188 q 342 265 419 188 q 264 457 264 343 q 342 649 264 571 q 533 726 419 726 q 761 604 682 726 q 774 558 774 585 q 750 499 774 522 q 690 476 726 476 q 622 513 646 476 q 533 561 590 561 q 461 530 492 561 q 431 457 431 499 q 461 383 431 414 q 533 353 492 353 q 622 400 592 353 q 690 438 647 438 q 750 414 726 438 q 774 354 774 390 z "},"":{"ha":643,"x_min":56,"x_max":588,"o":"m 524 447 l 524 803 q 504 824 524 824 q 483 803 483 824 l 483 744 q 321 825 422 825 q 176 765 236 825 q 117 621 117 706 q 177 476 117 536 q 321 417 238 417 q 483 497 422 417 l 483 447 q 504 426 483 426 q 524 447 524 426 m 504 886 q 563 862 538 886 q 588 803 588 838 l 588 447 q 563 388 588 413 q 504 363 538 363 q 447 386 471 363 q 321 354 388 354 q 133 431 210 354 q 56 621 56 508 q 133 810 56 733 q 321 888 210 888 q 442 858 383 888 q 504 886 467 886 m 321 521 q 392 550 363 521 q 421 621 421 579 q 392 692 421 663 q 321 721 364 721 q 249 692 278 721 q 221 621 221 663 q 250 550 221 579 q 321 521 279 521 m 321 782 q 435 735 388 782 q 483 621 483 688 q 435 506 483 553 q 321 458 388 458 q 206 506 254 458 q 158 621 158 554 q 206 735 158 688 q 321 782 253 782 z "},"":{"ha":642,"x_min":56,"x_max":586,"o":"m 261 69 q 260 78 261 75 l 158 315 l 158 346 l 260 582 q 261 590 261 585 q 242 611 261 611 q 222 599 228 611 l 118 357 q 117 349 117 354 l 117 310 q 118 303 117 306 l 222 63 q 242 50 228 50 q 261 69 261 50 m 221 328 l 317 103 q 324 69 324 86 q 299 12 324 36 q 242 -12 275 -12 q 164 38 185 -12 l 63 278 q 56 310 56 294 l 56 349 q 63 382 56 365 l 164 622 q 242 672 186 672 q 299 649 275 672 q 324 590 324 625 q 317 557 324 574 l 221 328 m 524 71 q 522 79 524 76 l 422 315 l 422 347 l 522 583 q 524 590 524 586 q 504 613 524 613 q 485 599 490 613 l 382 358 q 381 350 381 354 l 381 311 q 382 303 381 307 l 485 64 q 504 51 490 51 q 524 71 524 51 m 485 329 l 579 104 q 586 71 586 88 q 562 13 586 38 q 504 -11 538 -11 q 428 39 449 -11 l 325 279 q 318 311 318 296 l 318 350 q 325 383 318 367 l 428 624 q 504 674 450 674 q 563 649 539 674 q 586 590 586 625 q 579 558 586 575 l 485 329 z "},"":{"ha":704,"x_min":56,"x_max":649,"o":"m 586 358 l 586 508 q 565 529 586 529 l 138 529 q 117 508 117 529 q 138 488 117 488 l 544 488 l 544 358 q 565 339 544 339 q 586 358 586 339 m 565 592 q 624 567 600 592 q 649 508 649 543 l 649 358 q 624 300 649 325 q 565 275 600 275 q 506 300 531 275 q 482 358 482 325 l 482 425 l 138 425 q 80 450 104 425 q 56 508 56 475 q 80 567 56 543 q 138 592 104 592 l 565 592 z "},"":{"ha":542,"x_min":56,"x_max":486,"o":"m 401 379 q 424 400 424 379 q 401 421 424 421 l 138 421 q 117 400 117 421 q 138 379 117 379 l 401 379 m 401 483 q 461 459 436 483 q 486 400 486 435 q 461 341 486 365 q 401 317 436 317 l 138 317 q 80 341 104 317 q 56 400 56 365 q 80 459 56 435 q 138 483 104 483 l 401 483 z "},"":{"ha":1039,"x_min":56,"x_max":983,"o":"m 519 915 q 848 781 713 915 q 983 453 983 646 q 849 122 983 257 q 519 -12 714 -12 q 190 123 325 -12 q 56 453 56 258 q 190 781 56 646 q 519 915 325 915 m 519 51 q 804 167 688 51 q 921 453 921 283 q 803 738 921 621 q 519 854 686 854 q 234 738 351 854 q 117 453 117 621 q 233 167 117 283 q 519 51 350 51 m 519 813 q 774 708 669 813 q 879 453 879 604 q 775 196 879 300 q 519 92 671 92 q 263 197 368 92 q 158 453 158 301 q 263 708 158 604 q 519 813 368 813 m 382 638 l 382 267 q 403 244 382 244 q 424 267 424 244 l 424 415 l 507 415 l 615 254 q 632 244 622 244 q 653 267 653 244 q 650 278 653 272 l 554 418 q 628 458 599 425 q 657 538 657 492 q 621 624 657 589 q 533 658 585 658 l 403 658 q 382 638 382 658 m 693 210 q 817 453 817 300 q 731 664 817 578 q 519 750 644 750 q 388 719 450 750 q 403 721 394 721 l 533 721 q 665 668 611 721 q 718 538 718 615 q 647 392 718 449 l 700 313 q 714 267 714 292 q 693 210 714 233 m 221 453 q 338 215 221 307 q 321 267 321 239 l 321 638 q 338 688 321 665 q 221 453 221 597 m 615 538 q 591 481 615 504 q 533 458 567 458 l 424 458 l 424 618 l 533 618 q 591 594 567 618 q 615 538 615 571 m 519 154 q 653 185 589 154 q 632 183 642 183 q 563 219 588 183 l 486 335 l 486 267 q 462 208 486 232 q 403 183 438 183 q 389 183 394 183 q 519 154 450 154 m 486 556 l 486 519 l 533 519 q 551 538 551 519 q 533 556 551 556 l 486 556 z "},"":{"ha":494,"x_min":74,"x_max":417,"o":"m 108 896 q 74 929 74 896 q 108 964 74 964 l 381 964 q 417 929 417 964 q 381 896 417 896 l 108 896 z "},"":{"ha":263,"x_min":56,"x_max":207,"o":"m 56 826 q 78 881 56 858 q 131 903 100 903 q 185 881 163 903 q 207 826 207 858 q 185 773 207 794 q 131 751 163 751 q 78 773 100 751 q 56 826 56 794 m 83 826 q 97 792 83 807 q 131 778 111 778 q 179 826 179 778 q 131 875 179 875 q 83 826 83 875 z "},"":{"ha":753,"x_min":56,"x_max":697,"o":"m 611 447 q 632 468 632 447 q 611 488 632 488 l 394 488 l 394 704 q 375 725 394 725 q 354 704 354 725 l 354 488 l 138 488 q 117 468 117 488 q 138 447 117 447 l 354 447 l 354 231 q 375 210 354 210 q 394 231 394 210 l 394 447 l 611 447 m 611 550 q 670 526 646 550 q 694 468 694 501 q 670 409 694 433 q 611 385 646 385 l 458 385 l 458 231 q 433 173 458 197 q 375 149 408 149 q 316 173 340 149 q 292 231 292 197 l 292 385 l 138 385 q 80 409 104 385 q 56 468 56 433 q 80 526 56 501 q 138 550 104 550 l 292 550 l 292 704 q 316 763 292 739 q 375 786 340 786 q 433 763 408 786 q 458 704 458 739 l 458 550 l 611 550 m 614 1 q 635 22 635 1 q 614 43 635 43 l 140 43 q 119 22 119 43 q 140 1 119 1 l 614 1 m 614 104 q 673 81 649 104 q 697 22 697 57 q 673 -37 697 -12 q 614 -61 649 -61 l 140 -61 q 83 -37 107 -61 q 58 22 58 -12 q 83 81 58 57 q 140 104 107 104 l 614 104 z "},"":{"ha":482,"x_min":56,"x_max":426,"o":"m 344 440 q 365 461 365 440 q 344 482 365 482 l 188 482 q 290 592 204 497 q 360 721 360 665 q 351 764 360 743 q 239 851 319 851 q 153 812 188 851 q 117 721 118 772 q 138 700 117 701 q 158 719 157 700 q 182 783 160 756 q 239 810 204 810 q 294 782 271 810 q 318 721 318 754 q 260 619 318 681 l 124 475 q 118 461 118 469 q 139 440 118 440 l 344 440 m 344 543 q 403 519 379 543 q 426 461 426 494 q 403 401 426 426 q 344 376 379 376 l 139 376 q 81 401 104 376 q 57 461 57 426 q 79 517 57 493 l 104 544 l 215 661 q 256 721 256 706 q 249 738 256 728 q 239 749 243 749 q 219 713 229 749 q 196 658 208 671 q 138 636 172 636 l 133 636 q 78 662 101 636 q 56 721 56 688 l 56 725 q 110 856 56 800 q 239 913 164 913 q 368 855 314 913 q 422 721 422 797 q 336 549 422 635 l 331 543 l 344 543 z "},"":{"ha":499,"x_min":56,"x_max":443,"o":"m 243 738 l 249 739 l 251 739 l 249 740 q 243 738 246 740 m 218 579 q 224 549 224 550 q 249 536 229 536 q 276 554 276 536 q 250 572 276 572 l 249 572 q 218 579 235 571 m 249 433 q 342 467 303 433 q 381 554 381 501 q 318 657 381 622 q 358 739 358 689 q 326 813 358 782 q 249 843 293 843 q 172 813 206 843 q 139 739 139 782 q 160 718 139 718 q 181 739 181 718 q 201 783 181 765 q 249 801 222 801 q 297 783 276 801 q 317 739 317 765 q 297 693 317 711 q 250 675 278 675 l 249 675 q 229 654 229 675 q 249 633 229 633 l 250 633 q 313 611 286 633 q 339 554 339 589 q 312 497 339 519 q 249 475 285 475 q 186 497 214 475 q 158 554 158 519 q 138 575 158 575 q 117 554 117 575 q 156 467 117 501 q 249 433 196 433 m 403 665 q 443 554 443 617 q 386 423 443 476 q 249 369 329 369 q 113 423 169 369 q 56 554 56 476 q 80 613 56 589 q 138 636 104 636 q 169 631 154 636 q 167 654 165 644 l 167 656 l 160 656 q 101 680 125 656 q 78 739 78 704 q 128 856 78 808 q 249 904 179 904 q 370 856 319 904 q 421 739 421 808 q 403 665 421 700 z "},"":{"ha":215,"x_min":56,"x_max":160,"o":"m 56 754 q 61 768 56 761 l 111 839 q 132 851 118 851 q 160 824 160 851 q 156 807 160 813 l 106 738 q 83 726 97 726 q 56 754 56 726 z "},"":{"ha":764,"x_min":56,"x_max":708,"o":"m 647 74 l 647 596 q 626 617 647 617 q 606 596 606 617 l 606 310 q 540 151 606 217 q 382 86 475 86 q 224 151 289 86 q 158 310 158 215 l 158 599 q 138 619 158 619 q 117 599 117 619 l 117 -135 q 138 -156 117 -156 q 158 -135 158 -156 l 158 168 q 382 46 238 46 q 606 168 526 46 l 606 74 q 626 54 606 54 q 647 74 647 54 m 626 678 q 684 653 660 678 q 708 596 708 629 l 708 74 q 684 16 708 40 q 626 -8 660 -8 q 554 33 579 -8 q 382 -18 475 -18 q 221 25 296 -18 l 221 -135 q 197 -194 221 -169 q 138 -218 172 -218 q 80 -194 104 -218 q 56 -135 56 -169 l 56 599 q 80 656 56 632 q 138 681 104 681 q 197 656 172 681 q 221 599 221 632 l 221 310 q 268 195 221 242 q 382 149 315 149 q 496 196 449 149 q 543 310 543 243 l 543 596 q 567 653 543 629 q 626 678 592 678 z "},"":{"ha":807,"x_min":56,"x_max":751,"o":"m 667 803 q 688 824 688 803 q 667 844 688 844 l 361 844 q 188 774 258 844 q 117 601 117 703 q 181 433 117 503 q 343 357 246 364 l 343 -142 q 364 -162 343 -162 q 383 -142 383 -162 l 383 803 l 553 803 l 553 -142 q 574 -162 553 -162 q 594 -142 594 -162 l 594 803 l 667 803 m 667 906 q 726 882 701 906 q 751 824 751 858 q 726 765 751 789 q 667 742 701 742 l 657 742 l 657 -142 q 633 -200 657 -176 q 574 -224 608 -224 q 515 -200 539 -224 q 490 -142 490 -176 l 490 742 l 447 742 l 447 -142 q 422 -200 447 -176 q 364 -224 397 -224 q 305 -200 329 -224 q 281 -142 281 -176 l 281 306 q 118 415 181 333 q 56 601 56 496 q 144 818 56 731 q 361 906 232 906 l 667 906 m 281 717 q 221 601 221 674 q 281 486 221 528 l 281 717 m 158 601 q 211 738 158 681 q 343 801 264 796 l 343 400 q 211 463 264 406 q 158 601 158 521 z "},"":{"ha":289,"x_min":56,"x_max":233,"o":"m 110 528 q 144 496 110 496 q 178 528 178 496 q 144 563 178 563 q 110 528 110 563 m 56 528 q 81 592 56 565 q 144 618 107 618 q 208 592 182 618 q 233 528 233 565 q 207 467 233 493 q 144 440 181 440 q 81 466 107 440 q 56 528 56 492 z "},"":{"ha":242,"x_min":21,"x_max":221,"o":"m 69 -28 q 94 -6 72 -6 q 122 -33 122 -6 l 122 -39 l 118 -61 q 142 -58 131 -58 q 198 -78 175 -58 q 221 -131 221 -97 q 215 -157 221 -142 q 63 -233 189 -233 l 49 -233 q 21 -207 21 -233 q 49 -179 21 -179 l 61 -179 q 165 -131 165 -179 q 142 -114 165 -114 q 110 -120 131 -114 q 82 -126 90 -126 q 56 -99 56 -126 l 56 -94 l 69 -28 z "},"":{"ha":324,"x_min":56,"x_max":268,"o":"m 207 444 l 207 815 q 186 836 207 836 l 138 836 q 117 815 117 836 q 138 794 117 794 l 165 794 l 165 444 q 186 424 165 424 q 207 444 207 424 m 186 900 q 244 875 221 900 q 268 815 268 850 l 268 444 q 244 385 268 410 q 186 361 221 361 q 128 385 151 361 q 104 444 104 410 l 104 742 q 56 815 56 764 q 80 875 56 850 q 138 900 104 900 l 186 900 z "},"":{"ha":643,"x_min":56,"x_max":588,"o":"m 321 417 q 465 476 406 417 q 524 622 524 536 q 465 766 524 707 q 321 825 406 825 q 177 765 238 825 q 117 622 117 706 q 176 476 117 536 q 321 417 236 417 m 321 888 q 510 810 432 888 q 588 622 588 733 q 510 431 588 508 q 321 354 433 354 q 133 431 210 354 q 56 622 56 508 q 133 810 56 733 q 321 888 210 888 m 321 521 q 392 550 364 521 q 421 622 421 579 q 392 692 421 663 q 321 721 363 721 q 250 692 279 721 q 221 622 221 663 q 249 550 221 579 q 321 521 278 521 m 321 783 q 435 736 388 783 q 483 622 483 689 q 435 507 483 554 q 321 460 388 460 q 206 507 253 460 q 158 622 158 554 q 206 735 158 688 q 321 783 254 783 z "},"":{"ha":642,"x_min":56,"x_max":586,"o":"m 381 69 q 401 50 381 50 q 419 63 414 50 l 522 303 q 524 310 524 306 l 524 349 q 522 357 524 354 l 419 599 q 401 611 414 611 q 381 590 381 611 q 382 582 381 586 l 483 346 l 483 315 l 382 78 q 381 69 381 74 m 325 557 q 318 590 318 574 q 343 649 318 625 q 401 672 368 672 q 478 622 456 672 l 579 382 q 586 349 586 365 l 586 310 q 579 278 586 294 l 478 38 q 401 -12 457 -12 q 343 12 368 -12 q 318 69 318 36 q 325 103 318 86 l 421 328 l 325 557 m 117 71 q 138 51 117 51 q 157 64 151 51 l 260 303 q 261 311 261 306 l 261 350 q 260 358 261 356 l 157 599 q 138 613 151 613 q 117 590 117 613 q 118 583 117 586 l 221 347 l 221 315 l 118 79 q 117 71 117 76 m 63 558 q 56 590 56 575 q 79 649 56 625 q 138 674 103 674 q 215 624 193 674 l 317 383 q 324 350 324 367 l 324 311 q 317 279 324 296 l 215 39 q 138 -11 194 -11 q 80 13 104 -11 q 56 71 56 38 q 63 104 56 88 l 158 329 l 63 558 z "},"":{"ha":1028,"x_min":56,"x_max":972,"o":"m 207 431 l 207 801 q 186 822 207 822 l 138 822 q 117 801 117 822 q 138 781 117 781 l 165 781 l 165 431 q 186 408 165 408 q 207 431 207 408 m 186 885 q 244 860 221 885 q 268 801 268 836 l 268 431 q 244 372 268 396 q 186 347 221 347 q 128 372 151 347 q 104 431 104 396 l 104 726 q 56 801 56 750 q 80 860 56 836 q 138 885 104 885 l 186 885 m 343 79 q 364 60 343 60 q 382 74 379 60 l 594 819 q 596 825 596 822 q 575 846 596 846 q 554 831 558 846 l 343 85 l 343 79 m 496 849 q 575 907 513 907 q 634 883 610 907 q 658 825 658 860 q 656 803 658 813 l 443 58 q 364 -3 425 -3 q 305 22 329 -3 q 281 79 281 46 q 283 101 281 92 l 496 849 m 889 186 q 910 207 910 186 q 889 226 910 226 l 860 226 l 860 467 q 839 486 860 486 q 822 478 829 486 l 647 217 q 643 207 643 211 q 663 186 643 186 l 818 186 l 818 94 q 839 74 818 74 q 860 94 860 74 l 860 186 l 889 186 m 922 282 q 972 207 972 260 q 922 131 972 151 l 922 94 q 898 37 922 61 q 839 13 874 13 q 781 37 804 13 q 757 94 757 61 l 757 124 l 663 124 q 605 148 629 124 q 581 207 581 172 q 596 253 581 231 l 771 513 q 839 549 794 549 q 898 524 874 549 q 922 467 922 500 l 922 282 m 818 226 l 703 226 l 818 399 l 818 226 z "},"":{"ha":1039,"x_min":56,"x_max":983,"o":"m 901 69 q 922 90 922 69 q 901 111 922 111 l 744 111 q 847 221 763 131 q 917 351 917 294 q 908 394 917 371 q 796 483 876 483 q 710 443 744 483 q 674 350 675 403 q 694 331 674 331 q 715 349 714 331 q 739 413 717 385 q 796 440 761 440 q 851 412 828 440 q 875 350 875 383 q 817 250 875 313 l 681 106 q 675 90 675 100 q 696 69 675 69 l 901 69 m 901 174 q 960 149 936 174 q 983 90 983 125 q 960 33 983 57 q 901 8 936 8 l 696 8 q 637 33 661 8 q 613 90 613 57 q 636 149 613 124 l 661 176 l 771 293 q 811 351 811 338 q 796 378 811 378 q 776 343 786 378 q 753 290 764 301 q 694 268 729 268 l 690 268 q 635 293 658 268 q 613 350 613 318 l 613 354 q 665 488 613 432 q 796 544 718 544 q 924 486 871 544 q 978 351 978 428 q 893 181 978 286 l 888 174 l 901 174 m 207 431 l 207 801 q 186 822 207 822 l 138 822 q 117 801 117 822 q 138 781 117 781 l 165 781 l 165 431 q 186 408 165 408 q 207 431 207 408 m 186 885 q 244 860 221 885 q 268 801 268 836 l 268 431 q 244 372 268 396 q 186 347 221 347 q 128 372 151 347 q 104 431 104 396 l 104 726 q 56 801 56 750 q 80 860 56 836 q 138 885 104 885 l 186 885 m 343 79 q 364 60 343 60 q 382 74 379 60 l 594 819 q 596 825 596 822 q 575 846 596 846 q 554 831 558 846 l 343 85 l 343 79 m 496 849 q 575 907 513 907 q 634 883 610 907 q 658 825 658 860 q 656 803 658 813 l 443 58 q 364 -3 425 -3 q 305 22 329 -3 q 281 79 281 46 q 283 101 281 92 l 496 849 z "},"":{"ha":1160,"x_min":56,"x_max":1104,"o":"m 475 79 q 496 60 475 60 q 515 74 511 60 l 726 819 q 728 825 728 822 q 707 846 728 846 q 686 831 690 846 l 475 85 l 475 79 m 628 849 q 707 907 644 907 q 766 883 742 907 q 790 825 790 860 q 788 803 790 813 l 575 58 q 496 -3 557 -3 q 437 22 461 -3 q 413 79 413 46 q 415 101 413 92 l 628 849 m 1021 186 q 1042 207 1042 186 q 1021 226 1042 226 l 992 226 l 992 467 q 971 486 992 486 q 953 478 960 486 l 779 217 q 775 207 775 211 q 796 186 775 186 l 950 186 l 950 94 q 971 74 950 74 q 992 94 992 74 l 992 186 l 1021 186 m 1054 282 q 1104 207 1104 260 q 1054 131 1104 151 l 1054 94 q 1030 37 1054 61 q 971 13 1006 13 q 913 37 938 13 q 889 94 889 61 l 889 124 l 796 124 q 737 148 761 124 q 713 207 713 172 q 726 253 713 232 l 903 513 q 971 549 928 549 q 1030 524 1006 549 q 1054 467 1054 500 l 1054 282 m 950 226 l 835 226 l 950 399 l 950 226 m 243 726 l 249 728 l 251 728 l 249 729 q 243 726 246 729 m 218 568 q 224 538 224 539 q 249 525 229 525 q 276 543 276 525 q 250 561 276 561 l 249 561 q 218 568 235 560 m 249 422 q 342 456 303 422 q 381 543 381 490 q 318 646 381 611 q 358 728 358 678 q 326 801 358 771 q 249 832 293 832 q 172 801 206 832 q 139 728 139 771 q 160 707 139 707 q 181 728 181 707 q 201 773 181 756 q 249 790 222 790 q 297 773 276 790 q 317 728 317 756 q 297 682 317 700 q 250 664 278 664 l 249 664 q 229 643 229 664 q 249 624 229 624 l 250 624 q 313 601 286 624 q 339 543 339 578 q 312 486 339 508 q 249 464 285 464 q 186 486 214 464 q 158 543 158 508 q 138 564 158 564 q 117 543 117 564 q 156 456 117 490 q 249 422 196 422 m 403 654 q 443 543 443 606 q 386 412 443 465 q 249 358 329 358 q 113 412 169 358 q 56 543 56 465 q 80 601 56 578 q 138 625 104 625 q 169 621 154 625 q 167 643 165 633 l 167 644 l 160 644 q 101 669 125 644 q 78 728 78 693 q 128 846 78 797 q 249 894 179 894 q 370 846 319 894 q 421 728 421 797 q 403 654 421 689 z "},"":{"ha":632,"x_min":56,"x_max":576,"o":"m 393 567 q 360 600 393 600 q 326 567 326 600 q 360 532 326 532 q 393 567 393 532 m 449 567 q 422 503 449 529 q 360 478 396 478 q 297 503 322 478 q 271 567 271 529 q 297 630 271 604 q 360 656 322 656 q 422 630 396 656 q 449 567 449 604 m 182 115 q 117 -11 117 67 q 171 -132 117 -86 q 301 -178 225 -178 l 310 -178 q 467 -114 401 -178 q 515 -42 515 -68 q 494 -21 515 -21 q 475 -33 481 -21 q 438 -85 464 -61 q 308 -136 383 -136 l 301 -136 q 201 -102 243 -136 q 158 -11 158 -68 q 208 82 158 47 q 243 108 213 86 q 335 194 310 158 q 376 350 376 254 q 356 371 376 371 q 333 350 333 371 q 300 218 333 268 q 218 143 283 194 l 182 115 m 56 -11 q 143 165 56 100 l 181 193 q 250 254 238 233 q 271 350 271 285 q 296 410 271 385 q 356 435 321 435 q 413 410 389 435 q 438 350 438 385 q 385 160 438 233 q 278 60 356 117 l 244 35 q 221 -11 221 15 q 301 -74 221 -75 l 307 -72 q 418 -8 388 -72 q 494 42 442 42 q 552 17 528 42 q 576 -42 576 -7 q 482 -183 576 -119 q 313 -239 396 -239 l 301 -239 q 128 -175 200 -239 q 56 -11 56 -111 z "},"":{"ha":897,"x_min":28,"x_max":869,"o":"m 807 82 q 806 90 807 88 l 493 835 q 475 847 489 847 l 424 847 q 404 835 410 847 l 90 90 q 89 82 89 88 q 110 63 89 63 q 129 74 124 63 l 249 358 q 257 357 253 357 l 632 357 q 646 363 640 357 l 768 74 q 786 63 772 63 q 807 82 807 63 m 864 115 q 869 82 869 103 q 845 24 869 49 q 786 0 821 0 q 711 51 733 0 l 608 296 l 290 296 l 188 51 q 110 0 165 0 q 52 24 76 0 q 28 82 28 49 q 35 115 28 99 l 347 860 q 424 910 368 910 l 475 910 q 550 860 528 910 l 864 115 m 358 461 l 538 461 l 449 674 l 358 461 m 438 806 l 461 806 l 632 399 l 265 399 l 438 806 m 496 974 q 469 946 496 946 q 447 957 456 946 l 397 1028 q 392 1043 392 1036 q 419 1071 392 1071 q 442 1058 432 1071 l 493 989 q 496 974 496 983 z "},"":{"ha":897,"x_min":28,"x_max":869,"o":"m 807 82 q 806 90 807 88 l 493 835 q 475 847 489 847 l 424 847 q 404 835 410 847 l 90 90 q 89 82 89 88 q 110 63 89 63 q 129 74 124 63 l 249 358 q 257 357 253 357 l 632 357 q 646 363 640 357 l 768 74 q 786 63 772 63 q 807 82 807 63 m 864 115 q 869 82 869 103 q 845 24 869 49 q 786 0 821 0 q 711 51 733 0 l 608 296 l 290 296 l 188 51 q 110 0 165 0 q 52 24 76 0 q 28 82 28 49 q 35 115 28 99 l 347 860 q 424 910 368 910 l 475 910 q 550 860 528 910 l 864 115 m 358 461 l 538 461 l 449 674 l 358 461 m 438 806 l 461 806 l 632 399 l 265 399 l 438 806 m 392 974 q 397 989 392 981 l 447 1058 q 469 1071 456 1071 q 496 1043 496 1071 q 493 1028 496 1033 l 442 957 q 419 946 433 946 q 392 974 392 946 z "},"":{"ha":897,"x_min":28,"x_max":869,"o":"m 807 82 q 806 90 807 88 l 493 835 q 475 847 489 847 l 424 847 q 404 835 410 847 l 90 90 q 89 82 89 88 q 110 63 89 63 q 129 74 124 63 l 249 358 q 257 357 253 357 l 632 357 q 646 363 640 357 l 768 74 q 786 63 772 63 q 807 82 807 63 m 864 115 q 869 82 869 103 q 845 24 869 49 q 786 0 821 0 q 711 51 733 0 l 608 296 l 290 296 l 188 51 q 110 0 165 0 q 52 24 76 0 q 28 82 28 49 q 35 115 28 99 l 347 860 q 424 910 368 910 l 475 910 q 550 860 528 910 l 864 115 m 358 461 l 538 461 l 449 674 l 358 461 m 438 806 l 461 806 l 632 399 l 265 399 l 438 806 m 456 1072 l 464 1072 q 486 1064 476 1072 l 535 1022 q 546 996 546 1013 q 511 961 546 961 q 490 969 499 961 l 460 996 l 429 969 q 406 961 419 961 q 371 996 371 961 q 383 1022 371 1011 l 432 1064 q 456 1072 442 1072 z "},"":{"ha":897,"x_min":28,"x_max":869,"o":"m 864 115 q 869 82 869 103 q 845 24 869 49 q 786 0 821 0 q 711 51 733 0 l 608 296 l 290 296 l 188 51 q 110 0 165 0 q 52 24 76 0 q 28 82 28 49 q 35 115 28 99 l 347 860 q 424 910 368 910 l 475 910 q 550 860 528 910 l 864 115 m 807 82 q 806 90 807 88 l 493 835 q 475 847 489 847 l 424 847 q 404 835 410 847 l 90 90 q 89 82 89 88 q 110 63 89 63 q 129 74 124 63 l 249 358 q 257 357 253 357 l 632 357 q 646 363 640 357 l 768 74 q 786 63 772 63 q 807 82 807 63 m 438 806 l 461 806 l 632 399 l 265 399 l 438 806 m 358 461 l 538 461 l 449 674 l 358 461 m 335 999 q 404 1042 358 1042 l 406 1042 q 449 1028 422 1042 q 478 1015 476 1015 q 488 1022 482 1015 q 517 1040 496 1040 q 551 1006 551 1040 q 547 989 551 996 q 478 946 524 946 q 432 960 460 946 l 404 974 q 394 964 399 971 q 364 946 383 946 q 331 981 331 946 q 335 999 331 992 z "},"":{"ha":897,"x_min":28,"x_max":869,"o":"m 807 82 q 806 90 807 88 l 493 835 q 475 847 489 847 l 424 847 q 404 835 410 847 l 90 90 q 89 82 89 88 q 110 63 89 63 q 129 74 124 63 l 249 358 q 257 357 253 357 l 632 357 q 646 363 640 357 l 768 74 q 786 63 772 63 q 807 82 807 63 m 864 115 q 869 82 869 103 q 845 24 869 49 q 786 0 821 0 q 711 51 733 0 l 608 296 l 290 296 l 188 51 q 110 0 165 0 q 52 24 76 0 q 28 82 28 49 q 35 115 28 99 l 347 860 q 424 910 368 910 l 475 910 q 550 860 528 910 l 864 115 m 358 461 l 538 461 l 449 674 l 358 461 m 438 806 l 461 806 l 632 399 l 265 399 l 438 806 m 419 1014 q 382 976 419 976 q 344 1014 344 976 q 382 1051 344 1051 q 419 1014 419 1051 m 550 1014 q 511 976 550 976 q 475 1014 475 976 q 511 1051 475 1051 q 550 1014 550 1051 z "},"":{"ha":897,"x_min":28,"x_max":869,"o":"m 807 82 q 806 90 807 88 l 493 835 q 475 847 489 847 l 424 847 q 404 835 410 847 l 90 90 q 89 82 89 88 q 110 63 89 63 q 129 74 124 63 l 249 358 q 257 357 253 357 l 632 357 q 646 363 640 357 l 768 74 q 786 63 772 63 q 807 82 807 63 m 864 115 q 869 82 869 103 q 845 24 869 49 q 786 0 821 0 q 711 51 733 0 l 608 296 l 290 296 l 188 51 q 110 0 165 0 q 52 24 76 0 q 28 82 28 49 q 35 115 28 99 l 347 860 q 424 910 368 910 l 475 910 q 550 860 528 910 l 864 115 m 358 461 l 538 461 l 449 674 l 358 461 m 438 806 l 461 806 l 632 399 l 265 399 l 438 806 m 371 992 q 393 1046 371 1024 q 447 1068 415 1068 q 501 1046 479 1068 q 522 992 522 1024 q 501 938 522 960 q 447 915 479 915 q 393 938 415 915 q 371 992 371 960 m 399 992 q 413 958 399 972 q 447 943 428 943 q 494 992 494 943 q 447 1040 494 1040 q 399 992 399 1040 z "},"":{"ha":1232,"x_min":28,"x_max":1204,"o":"m 1122 61 q 1143 82 1143 61 q 1122 103 1143 103 l 710 103 l 710 429 l 975 429 q 996 450 996 429 q 975 471 996 471 l 710 471 l 710 797 l 1122 797 q 1143 818 1143 797 q 1122 839 1143 839 l 635 839 q 619 831 625 839 l 93 90 q 89 79 89 85 q 110 60 89 60 q 128 68 122 60 l 332 354 l 335 353 l 664 353 q 667 354 665 354 l 667 82 q 689 61 667 61 l 1122 61 m 1122 165 q 1181 141 1157 165 q 1204 82 1204 117 q 1181 24 1204 49 q 1122 -1 1157 -1 l 689 -1 q 629 23 653 -1 q 606 82 606 47 l 606 292 l 363 292 l 178 32 q 110 -4 151 -4 q 51 20 75 -4 q 28 79 28 44 q 43 126 28 106 l 568 867 q 635 901 593 901 l 1122 901 q 1181 877 1157 901 q 1204 818 1204 853 q 1181 760 1204 783 q 1122 736 1157 736 l 771 736 l 771 533 l 975 533 q 1033 509 1010 533 q 1057 450 1057 485 q 1033 391 1057 415 q 975 367 1010 367 l 771 367 l 771 165 l 1122 165 m 606 458 l 606 633 l 481 458 l 606 458 m 360 396 l 646 797 l 667 797 l 667 394 q 664 396 665 396 l 360 396 z "},"":{"ha":978,"x_min":63,"x_max":915,"o":"m 850 240 q 853 251 853 246 q 832 272 853 272 q 814 263 821 272 q 519 101 710 101 q 268 204 371 101 q 165 456 165 307 q 268 706 165 604 q 519 808 371 808 q 814 646 710 808 q 832 638 821 638 q 853 658 853 638 q 850 669 853 664 q 708 802 796 754 q 519 850 619 850 q 239 735 354 850 q 124 456 124 621 q 238 175 124 289 q 519 61 353 61 q 708 109 619 61 q 850 240 796 157 m 528 -1 l 528 -10 l 524 -32 q 546 -29 535 -29 q 626 -100 626 -29 q 621 -126 626 -111 q 467 -206 593 -206 l 453 -206 q 425 -178 425 -206 l 425 -176 q 453 -150 425 -150 l 467 -150 q 529 -140 500 -150 q 571 -101 571 -128 q 546 -83 571 -83 q 515 -90 535 -83 q 488 -97 496 -97 q 460 -69 460 -97 l 460 -65 l 474 1 q 179 147 296 18 q 63 456 63 276 q 195 778 63 646 q 519 911 328 911 q 901 703 765 911 q 915 658 915 682 q 892 599 915 624 q 832 575 868 575 q 763 614 788 575 q 519 746 676 746 q 312 662 396 746 q 228 456 228 578 q 311 248 228 332 q 519 164 394 164 q 763 297 675 164 q 832 335 786 335 q 892 311 868 335 q 915 251 915 288 q 901 207 915 226 q 740 56 839 111 q 528 -1 642 1 z "},"":{"ha":760,"x_min":132,"x_max":732,"o":"m 647 61 q 668 81 668 61 q 647 101 668 101 l 235 101 l 235 429 l 501 429 q 522 450 522 429 q 501 471 522 471 l 235 471 l 235 796 l 647 796 q 668 818 668 796 q 647 839 668 839 l 214 839 q 193 818 193 839 l 193 81 q 214 61 193 61 l 647 61 m 647 164 q 707 140 682 164 q 732 81 732 115 q 707 23 732 47 q 647 -1 682 -1 l 214 -1 q 156 23 181 -1 q 132 81 132 47 l 132 818 q 156 877 132 853 q 214 901 181 901 l 647 901 q 707 877 682 901 q 732 818 732 853 q 707 759 732 783 q 647 735 682 735 l 297 735 l 297 532 l 501 532 q 560 508 536 532 q 585 450 585 485 q 560 390 585 415 q 501 365 536 365 l 297 365 l 297 164 l 647 164 m 476 960 q 450 932 476 932 q 428 943 436 932 l 378 1014 q 372 1031 372 1022 q 400 1057 372 1057 q 422 1044 413 1057 l 472 975 q 476 960 476 969 z "},"":{"ha":760,"x_min":132,"x_max":732,"o":"m 647 61 q 668 81 668 61 q 647 101 668 101 l 235 101 l 235 429 l 501 429 q 522 450 522 429 q 501 471 522 471 l 235 471 l 235 796 l 647 796 q 668 818 668 796 q 647 839 668 839 l 214 839 q 193 818 193 839 l 193 81 q 214 61 193 61 l 647 61 m 647 164 q 707 140 682 164 q 732 81 732 115 q 707 23 732 47 q 647 -1 682 -1 l 214 -1 q 156 23 181 -1 q 132 81 132 47 l 132 818 q 156 877 132 853 q 214 901 181 901 l 647 901 q 707 877 682 901 q 732 818 732 853 q 707 759 732 783 q 647 735 682 735 l 297 735 l 297 532 l 501 532 q 560 508 536 532 q 585 450 585 485 q 560 390 585 415 q 501 365 536 365 l 297 365 l 297 164 l 647 164 m 400 960 q 406 975 400 967 l 456 1044 q 476 1057 463 1057 q 504 1031 504 1057 q 500 1014 504 1019 l 450 943 q 428 932 442 932 q 400 960 400 932 z "},"":{"ha":760,"x_min":132,"x_max":732,"o":"m 647 61 q 668 81 668 61 q 647 101 668 101 l 235 101 l 235 429 l 501 429 q 522 450 522 429 q 501 471 522 471 l 235 471 l 235 796 l 647 796 q 668 818 668 796 q 647 839 668 839 l 214 839 q 193 818 193 839 l 193 81 q 214 61 193 61 l 647 61 m 647 164 q 707 140 682 164 q 732 81 732 115 q 707 23 732 47 q 647 -1 682 -1 l 214 -1 q 156 23 181 -1 q 132 81 132 47 l 132 818 q 156 877 132 853 q 214 901 181 901 l 647 901 q 707 877 682 901 q 732 818 732 853 q 707 759 732 783 q 647 735 682 735 l 297 735 l 297 532 l 501 532 q 560 508 536 532 q 585 450 585 485 q 560 390 585 415 q 501 365 536 365 l 297 365 l 297 164 l 647 164 m 422 1058 l 431 1058 q 453 1050 443 1058 l 501 1008 q 513 982 513 999 q 478 947 513 947 q 457 956 465 947 l 426 982 l 396 956 q 372 947 386 947 q 338 982 338 947 q 350 1008 338 997 l 399 1050 q 422 1058 408 1058 z "},"":{"ha":760,"x_min":132,"x_max":732,"o":"m 647 61 q 668 81 668 61 q 647 101 668 101 l 235 101 l 235 429 l 501 429 q 522 450 522 429 q 501 471 522 471 l 235 471 l 235 796 l 647 796 q 668 818 668 796 q 647 839 668 839 l 214 839 q 193 818 193 839 l 193 81 q 214 61 193 61 l 647 61 m 647 164 q 707 140 682 164 q 732 81 732 115 q 707 23 732 47 q 647 -1 682 -1 l 214 -1 q 156 23 181 -1 q 132 81 132 47 l 132 818 q 156 877 132 853 q 214 901 181 901 l 647 901 q 707 877 682 901 q 732 818 732 853 q 707 759 732 783 q 647 735 682 735 l 297 735 l 297 532 l 501 532 q 560 508 536 532 q 585 450 585 485 q 560 390 585 415 q 501 365 536 365 l 297 365 l 297 164 l 647 164 m 400 986 q 363 949 400 949 q 324 986 324 949 q 363 1025 324 1025 q 400 986 400 1025 m 531 986 q 492 949 531 949 q 456 986 456 949 q 492 1025 456 1025 q 531 986 531 1025 z "},"":{"ha":360,"x_min":97,"x_max":263,"o":"m 200 82 l 200 825 q 179 847 200 847 q 158 825 158 847 l 158 82 q 179 63 158 63 q 200 82 200 63 m 179 908 q 238 884 214 908 q 263 825 263 860 l 263 82 q 238 24 263 49 q 179 0 214 0 q 122 24 146 0 q 97 82 97 49 l 97 825 q 122 884 97 860 q 179 908 146 908 m 222 974 q 194 946 222 946 q 172 957 181 946 l 124 1028 q 118 1043 118 1036 q 146 1071 118 1071 q 167 1058 157 1071 l 218 989 q 222 974 222 983 z "},"":{"ha":360,"x_min":97,"x_max":263,"o":"m 200 82 l 200 825 q 179 847 200 847 q 158 825 158 847 l 158 82 q 179 63 158 63 q 200 82 200 63 m 179 908 q 238 884 214 908 q 263 825 263 860 l 263 82 q 238 24 263 49 q 179 0 214 0 q 122 24 146 0 q 97 82 97 49 l 97 825 q 122 884 97 860 q 179 908 146 908 m 132 974 q 138 989 132 981 l 186 1058 q 208 1071 194 1071 q 236 1043 236 1071 q 232 1028 236 1033 l 181 957 q 158 946 172 946 q 132 974 132 946 z "},"":{"ha":369,"x_min":97,"x_max":272,"o":"m 200 82 l 200 825 q 179 847 200 847 q 158 825 158 847 l 158 82 q 179 63 158 63 q 200 82 200 63 m 179 908 q 238 884 214 908 q 263 825 263 860 l 263 82 q 238 24 263 49 q 179 0 214 0 q 122 24 146 0 q 97 82 97 49 l 97 825 q 122 884 97 860 q 179 908 146 908 m 181 1086 l 189 1086 q 211 1078 201 1086 l 261 1036 q 272 1010 272 1026 q 238 975 272 975 q 215 983 225 975 l 185 1010 l 154 983 q 132 975 146 975 q 97 1010 97 975 q 110 1036 97 1025 l 157 1078 q 181 1086 167 1086 z "},"":{"ha":400,"x_min":97,"x_max":303,"o":"m 214 82 l 214 825 q 193 847 214 847 q 172 825 172 847 l 172 82 q 193 63 172 63 q 214 82 214 63 m 193 908 q 252 884 228 908 q 276 825 276 860 l 276 82 q 252 24 276 49 q 193 0 228 0 q 135 24 160 0 q 111 82 111 49 l 111 825 q 135 884 111 860 q 193 908 160 908 m 172 972 q 136 935 172 935 q 97 972 97 935 q 136 1011 97 1011 q 172 972 172 1011 m 303 972 q 265 935 303 935 q 228 972 228 935 q 265 1011 228 1011 q 303 972 303 1011 z "},"":{"ha":944,"x_min":132,"x_max":882,"o":"m 431 64 q 708 178 594 64 q 821 456 821 292 q 708 733 821 619 q 431 846 594 846 l 272 846 q 251 825 251 846 l 251 486 l 214 486 q 193 465 193 486 q 214 443 193 443 l 251 443 l 251 83 q 272 64 251 64 l 431 64 m 431 907 q 751 776 619 907 q 882 456 882 644 q 751 133 882 265 q 431 1 619 1 l 272 1 q 213 26 238 1 q 189 83 189 50 l 189 385 q 132 465 132 403 q 189 543 132 525 l 189 825 q 213 883 189 860 q 272 907 238 907 l 431 907 m 431 168 q 635 251 551 168 q 718 456 718 335 q 635 660 718 576 q 431 743 551 743 l 356 743 l 356 547 l 503 547 q 562 523 538 547 q 586 465 586 499 q 562 406 586 431 q 503 381 538 381 l 356 381 l 356 168 l 431 168 m 431 804 q 678 703 578 804 q 779 456 779 603 q 678 206 779 308 q 431 104 578 104 l 293 104 l 293 443 l 503 443 q 524 465 524 443 q 503 486 524 486 l 293 486 l 293 804 l 431 804 z "},"":{"ha":908,"x_min":132,"x_max":776,"o":"m 694 899 q 753 874 729 899 q 776 814 776 849 l 776 79 q 753 21 776 46 q 694 -4 729 -4 l 656 -4 q 583 40 606 -4 l 297 571 l 297 74 q 273 15 297 40 q 214 -10 249 -10 q 156 15 181 -10 q 132 74 132 40 l 132 808 q 156 868 132 843 q 214 893 181 893 l 263 893 q 335 849 313 893 l 611 338 l 611 814 q 635 874 611 849 q 694 899 660 899 m 715 79 l 715 814 q 694 835 715 835 q 674 814 674 835 l 674 100 l 668 100 l 282 818 q 263 829 276 829 l 214 829 q 193 808 193 829 l 193 74 q 214 53 193 53 q 235 74 235 53 l 235 788 l 250 788 l 638 69 q 656 58 643 58 l 694 58 q 715 79 715 58 m 356 971 q 426 1015 381 1015 l 428 1015 q 471 1001 444 1015 q 499 988 497 988 q 508 994 503 988 q 539 1013 518 1013 q 574 978 574 1013 q 569 961 574 968 q 499 918 546 918 q 454 932 481 918 l 426 946 q 417 936 421 943 q 386 918 406 918 q 351 953 351 918 q 356 971 351 964 z "},"":{"ha":1031,"x_min":63,"x_max":968,"o":"m 517 53 q 793 166 679 53 q 907 443 907 279 q 793 721 907 607 q 517 835 679 835 q 238 722 351 835 q 124 443 124 608 q 238 166 124 279 q 517 53 353 53 m 517 897 q 837 765 706 897 q 968 443 968 632 q 837 122 968 253 q 517 -10 706 -10 q 194 122 326 -10 q 63 443 63 253 q 194 765 63 632 q 517 897 326 897 m 517 156 q 721 239 638 156 q 804 443 804 322 q 721 647 804 564 q 517 731 638 731 q 310 648 393 731 q 228 443 228 565 q 311 239 228 322 q 517 156 394 156 m 517 793 q 765 692 664 793 q 865 443 865 590 q 765 194 865 296 q 517 93 664 93 q 267 194 369 93 q 165 443 165 296 q 267 692 165 590 q 517 793 369 793 m 572 946 q 544 918 572 918 q 524 929 531 918 l 474 1000 q 468 1017 468 1008 q 496 1043 468 1043 q 518 1032 508 1043 l 568 961 q 572 946 572 956 z "},"":{"ha":1031,"x_min":63,"x_max":968,"o":"m 517 53 q 793 166 679 53 q 907 443 907 279 q 793 721 907 607 q 517 835 679 835 q 238 722 351 835 q 124 443 124 608 q 238 166 124 279 q 517 53 353 53 m 517 897 q 837 765 706 897 q 968 443 968 632 q 837 122 968 253 q 517 -10 706 -10 q 194 122 326 -10 q 63 443 63 253 q 194 765 63 632 q 517 897 326 897 m 517 156 q 721 239 638 156 q 804 443 804 322 q 721 647 804 564 q 517 731 638 731 q 310 648 393 731 q 228 443 228 565 q 311 239 228 322 q 517 156 394 156 m 517 793 q 765 692 664 793 q 865 443 865 590 q 765 194 865 296 q 517 93 664 93 q 267 194 369 93 q 165 443 165 296 q 267 692 165 590 q 517 793 369 793 m 468 960 q 474 975 468 967 l 524 1044 q 544 1057 531 1057 q 572 1031 572 1057 q 568 1014 572 1019 l 518 943 q 496 932 510 932 q 468 960 468 932 z "},"":{"ha":1031,"x_min":63,"x_max":968,"o":"m 517 53 q 793 166 679 53 q 907 443 907 279 q 793 721 907 607 q 517 835 679 835 q 238 722 351 835 q 124 443 124 608 q 238 166 124 279 q 517 53 353 53 m 517 897 q 837 765 706 897 q 968 443 968 632 q 837 122 968 253 q 517 -10 706 -10 q 194 122 326 -10 q 63 443 63 253 q 194 765 63 632 q 517 897 326 897 m 517 156 q 721 239 638 156 q 804 443 804 322 q 721 647 804 564 q 517 731 638 731 q 310 648 393 731 q 228 443 228 565 q 311 239 228 322 q 517 156 394 156 m 517 793 q 765 692 664 793 q 865 443 865 590 q 765 194 865 296 q 517 93 664 93 q 267 194 369 93 q 165 443 165 296 q 267 692 165 590 q 517 793 369 793 m 518 1044 l 526 1044 q 547 1038 538 1044 l 597 994 q 608 968 608 985 q 574 933 608 933 q 551 942 561 933 l 522 968 l 492 942 q 468 933 482 933 q 433 968 433 933 q 446 994 433 983 l 494 1038 q 518 1044 504 1044 z "},"":{"ha":1031,"x_min":63,"x_max":968,"o":"m 517 897 q 837 765 706 897 q 968 443 968 632 q 837 122 968 253 q 517 -10 706 -10 q 194 122 326 -10 q 63 443 63 253 q 194 765 63 632 q 517 897 326 897 m 517 53 q 793 166 679 53 q 907 443 907 279 q 793 721 907 607 q 517 835 679 835 q 238 722 351 835 q 124 443 124 608 q 238 166 124 279 q 517 53 353 53 m 517 793 q 765 692 664 793 q 865 443 865 590 q 765 194 865 296 q 517 93 664 93 q 267 194 369 93 q 165 443 165 296 q 267 692 165 590 q 517 793 369 793 m 517 156 q 721 239 638 156 q 804 443 804 322 q 721 647 804 564 q 517 731 638 731 q 310 648 393 731 q 228 443 228 565 q 311 239 228 322 q 517 156 394 156 m 396 985 q 467 1029 421 1029 l 468 1029 q 511 1015 485 1029 q 539 1001 538 1001 q 549 1008 543 1001 q 579 1026 558 1026 q 614 992 614 1026 q 610 975 614 982 q 539 932 586 932 q 494 946 522 932 l 467 960 q 457 950 461 957 q 426 932 446 932 q 392 967 392 932 q 396 985 392 978 z "},"":{"ha":1031,"x_min":63,"x_max":968,"o":"m 517 53 q 793 166 679 53 q 907 443 907 279 q 793 721 907 607 q 517 835 679 835 q 238 722 351 835 q 124 443 124 608 q 238 166 124 279 q 517 53 353 53 m 517 897 q 837 765 706 897 q 968 443 968 632 q 837 122 968 253 q 517 -10 706 -10 q 194 122 326 -10 q 63 443 63 253 q 194 765 63 632 q 517 897 326 897 m 517 156 q 721 239 638 156 q 804 443 804 322 q 721 647 804 564 q 517 731 638 731 q 310 648 393 731 q 228 443 228 565 q 311 239 228 322 q 517 156 394 156 m 517 793 q 765 692 664 793 q 865 443 865 590 q 765 194 865 296 q 517 93 664 93 q 267 194 369 93 q 165 443 165 296 q 267 692 165 590 q 517 793 369 793 m 496 986 q 458 949 496 949 q 419 986 419 949 q 458 1025 419 1025 q 496 986 496 1025 m 626 986 q 588 949 626 949 q 550 986 550 949 q 588 1025 550 1025 q 626 986 626 1025 z "},"":{"ha":611,"x_min":56,"x_max":556,"o":"m 488 628 q 494 643 494 635 q 488 658 494 651 q 458 658 472 672 l 306 506 l 153 658 q 124 658 139 672 q 117 643 117 651 q 124 628 117 635 l 276 476 l 124 324 q 117 310 117 317 q 124 294 117 303 q 153 294 138 279 l 306 447 l 458 294 q 488 294 474 279 q 494 310 494 303 q 488 324 494 317 l 335 476 l 488 628 m 414 701 q 474 726 439 726 q 532 702 508 726 q 556 643 556 678 q 531 585 556 610 l 422 476 l 531 367 q 556 310 556 343 q 532 250 556 275 q 474 225 508 225 q 414 250 439 225 l 306 358 l 197 250 q 138 225 172 225 q 80 250 104 225 q 56 310 56 275 q 81 367 56 343 l 189 476 l 81 585 q 56 643 56 610 q 80 702 56 678 q 138 726 104 726 q 197 701 172 726 l 306 593 l 414 701 z "},"":{"ha":1031,"x_min":63,"x_max":968,"o":"m 517 60 q 793 174 679 60 q 907 451 907 288 q 779 740 907 624 l 839 814 q 843 826 843 819 q 822 849 843 849 q 806 840 813 849 l 746 765 q 517 842 644 842 q 238 728 353 842 q 124 451 124 615 q 251 161 124 278 l 193 88 q 188 74 188 82 q 208 54 188 54 q 225 63 218 54 l 285 135 q 517 60 389 60 m 861 744 q 968 451 968 617 q 837 129 968 261 q 517 -3 706 -3 q 297 54 399 -3 l 272 22 q 208 -8 250 -8 q 149 16 174 -8 q 125 74 125 40 q 144 126 125 101 l 169 158 q 63 451 63 285 q 194 772 63 640 q 517 903 326 903 q 733 849 632 903 l 758 881 q 822 910 782 910 q 881 885 857 910 q 906 826 906 861 q 888 774 906 794 l 861 744 m 276 290 l 626 717 q 517 739 572 739 q 311 656 394 739 q 228 451 228 572 q 276 290 228 363 m 517 800 q 719 735 629 800 l 278 194 q 165 451 165 299 q 267 699 165 599 q 517 800 369 800 m 517 164 q 721 247 638 164 q 804 451 804 331 q 754 613 804 539 l 406 186 q 517 164 458 164 m 753 708 q 865 451 865 604 q 765 203 865 304 q 517 101 664 101 q 311 168 401 101 l 753 708 z "},"":{"ha":936,"x_min":132,"x_max":804,"o":"m 804 324 q 704 92 804 186 q 467 -1 604 -1 q 232 89 328 -1 q 132 321 132 183 l 132 335 l 133 357 l 133 828 q 157 886 133 863 q 215 910 181 910 q 275 886 250 910 q 300 828 300 863 l 299 328 q 349 211 299 258 q 467 164 399 164 q 588 211 538 164 q 638 329 638 258 l 638 828 q 662 886 638 863 q 721 910 686 910 q 778 886 754 910 q 803 828 803 863 l 804 324 m 467 61 q 660 136 581 61 q 740 325 740 211 l 740 828 q 721 849 740 849 q 700 828 700 849 l 700 335 q 632 169 700 238 q 467 101 564 101 q 301 169 368 101 q 236 335 235 236 l 236 828 q 215 849 236 849 q 194 828 194 849 l 193 322 q 274 135 193 210 q 467 61 354 61 m 504 960 q 476 932 504 932 q 456 943 463 932 l 406 1014 q 400 1031 400 1022 q 428 1057 400 1057 q 450 1044 440 1057 l 500 975 q 504 960 504 969 z "},"":{"ha":936,"x_min":132,"x_max":804,"o":"m 804 324 q 704 92 804 186 q 467 -1 604 -1 q 232 89 328 -1 q 132 321 132 183 l 132 335 l 133 357 l 133 828 q 157 886 133 863 q 215 910 181 910 q 275 886 250 910 q 300 828 300 863 l 299 328 q 349 211 299 258 q 467 164 399 164 q 588 211 538 164 q 638 329 638 258 l 638 828 q 662 886 638 863 q 721 910 686 910 q 778 886 754 910 q 803 828 803 863 l 804 324 m 467 61 q 660 136 581 61 q 740 325 740 211 l 740 828 q 721 849 740 849 q 700 828 700 849 l 700 335 q 632 169 700 238 q 467 101 564 101 q 301 169 368 101 q 236 335 235 236 l 236 828 q 215 849 236 849 q 194 828 194 849 l 193 322 q 274 135 193 210 q 467 61 354 61 m 414 960 q 419 975 414 967 l 468 1044 q 490 1057 476 1057 q 518 1031 518 1057 q 514 1014 518 1019 l 463 943 q 442 932 456 932 q 414 960 414 932 z "},"":{"ha":936,"x_min":132,"x_max":804,"o":"m 804 324 q 704 92 804 186 q 467 -1 604 -1 q 232 89 328 -1 q 132 321 132 183 l 132 335 l 133 357 l 133 828 q 157 886 133 863 q 215 910 181 910 q 275 886 250 910 q 300 828 300 863 l 299 328 q 349 211 299 258 q 467 164 399 164 q 588 211 538 164 q 638 329 638 258 l 638 828 q 662 886 638 863 q 721 910 686 910 q 778 886 754 910 q 803 828 803 863 l 804 324 m 467 61 q 660 136 581 61 q 740 325 740 211 l 740 828 q 721 849 740 849 q 700 828 700 849 l 700 335 q 632 169 700 238 q 467 101 564 101 q 301 169 368 101 q 236 335 235 236 l 236 828 q 215 849 236 849 q 194 828 194 849 l 193 322 q 274 135 193 210 q 467 61 354 61 m 463 1044 l 471 1044 q 493 1038 483 1044 l 543 994 q 554 968 554 985 q 519 933 554 933 q 497 942 507 933 l 467 968 l 438 942 q 414 933 428 933 q 379 968 379 933 q 392 994 379 983 l 440 1038 q 463 1044 450 1044 z "},"":{"ha":936,"x_min":132,"x_max":804,"o":"m 804 324 q 704 92 804 186 q 467 -1 604 -1 q 232 89 328 -1 q 132 321 132 183 l 132 335 l 133 357 l 133 828 q 157 886 133 863 q 215 910 181 910 q 275 886 250 910 q 300 828 300 863 l 299 328 q 349 211 299 258 q 467 164 399 164 q 588 211 538 164 q 638 329 638 258 l 638 828 q 662 886 638 863 q 721 910 686 910 q 778 886 754 910 q 803 828 803 863 l 804 324 m 467 61 q 660 136 581 61 q 740 325 740 211 l 740 828 q 721 849 740 849 q 700 828 700 849 l 700 335 q 632 169 700 238 q 467 101 564 101 q 301 169 368 101 q 236 335 235 236 l 236 828 q 215 849 236 849 q 194 828 194 849 l 193 322 q 274 135 193 210 q 467 61 354 61 m 442 1000 q 404 963 442 963 q 365 1000 365 963 q 404 1039 365 1039 q 442 1000 442 1039 m 572 1000 q 533 963 572 963 q 496 1000 496 963 q 533 1039 496 1039 q 572 1000 572 1039 z "},"":{"ha":724,"x_min":28,"x_max":696,"o":"m 631 807 q 633 818 633 813 q 614 839 633 839 q 596 829 601 839 l 361 444 l 128 829 q 110 839 122 839 q 89 818 89 839 q 92 807 89 811 l 335 408 q 342 403 338 406 l 342 74 q 361 54 342 54 q 382 74 382 54 l 382 403 q 389 408 386 406 l 631 807 m 656 889 q 696 818 696 865 q 683 775 696 796 l 444 381 l 444 74 q 420 16 444 40 q 361 -8 396 -8 q 303 16 328 -8 q 279 74 279 40 l 279 381 l 40 775 q 28 818 28 796 q 68 889 28 864 q 110 901 88 901 q 182 861 157 901 l 361 564 l 542 861 q 614 901 567 901 q 656 889 635 901 m 310 946 q 315 961 310 953 l 364 1032 q 386 1043 372 1043 q 414 1017 414 1043 q 410 1000 414 1006 l 358 929 q 338 918 351 918 q 310 946 310 918 z "},"":{"ha":819,"x_min":132,"x_max":799,"o":"m 517 243 q 672 307 607 243 q 736 463 736 371 q 672 617 736 553 q 517 681 607 681 l 235 681 l 235 819 q 214 840 235 840 q 193 819 193 840 l 193 74 q 214 54 193 54 q 235 74 235 54 l 235 243 l 517 243 m 517 743 q 717 662 635 743 q 799 463 799 581 q 717 262 799 343 q 517 181 636 181 l 297 181 l 297 74 q 273 15 297 40 q 214 -10 249 -10 q 156 15 181 -10 q 132 74 132 40 l 132 819 q 156 878 132 854 q 214 903 181 903 q 273 878 249 903 q 297 819 297 854 l 297 743 l 517 743 m 517 347 q 599 381 565 347 q 632 463 632 414 q 599 544 632 510 q 517 578 565 578 l 297 578 l 297 347 l 517 347 m 517 639 q 643 588 592 639 q 694 463 694 536 q 643 336 694 388 q 517 285 592 285 l 235 285 l 235 639 l 517 639 z "},"":{"ha":738,"x_min":132,"x_max":718,"o":"m 546 67 q 656 224 656 104 q 501 432 656 364 l 469 446 q 460 451 463 450 q 436 488 436 468 q 468 538 435 511 l 499 561 q 538 663 538 597 q 432 821 538 782 q 363 833 397 833 q 229 750 274 833 q 193 585 193 682 l 193 79 q 214 60 193 60 q 235 79 235 60 l 235 586 q 261 719 235 664 q 364 792 296 792 q 481 726 449 792 q 496 663 496 696 q 469 592 496 614 l 447 572 q 394 486 394 529 q 483 393 394 433 q 579 332 551 363 q 614 224 614 290 q 532 104 614 133 q 490 97 513 97 q 407 142 436 97 q 389 150 400 150 q 368 129 368 150 q 372 118 368 124 q 490 57 414 57 q 546 67 518 57 m 718 224 q 653 60 718 126 q 490 -6 588 -6 q 319 83 381 -6 q 307 129 307 104 q 330 189 307 165 q 389 213 353 213 q 458 176 433 213 q 490 160 468 160 q 511 164 500 160 q 551 224 551 179 l 551 232 q 526 299 551 275 q 453 340 508 315 q 378 383 399 364 q 332 486 332 425 l 332 488 q 411 625 332 569 l 414 625 q 433 663 433 639 q 399 722 433 710 q 364 731 376 731 q 331 715 344 731 q 297 597 296 676 l 299 586 l 299 79 q 274 22 299 46 q 214 -3 249 -3 q 156 22 181 -3 q 132 79 132 46 l 132 597 q 186 799 132 717 q 363 896 249 896 q 488 863 429 896 q 575 772 546 829 q 599 663 599 724 q 542 515 599 563 l 514 493 l 526 488 q 718 224 718 403 z "},"":{"ha":849,"x_min":56,"x_max":751,"o":"m 689 81 l 689 599 q 668 619 689 619 q 649 599 649 619 l 649 482 q 403 619 564 619 q 199 537 282 619 q 117 333 117 454 q 199 129 117 211 q 403 47 282 47 q 649 186 564 47 l 649 81 q 668 60 649 60 q 689 81 689 60 m 668 681 q 727 656 703 681 q 751 599 751 632 l 751 81 q 727 22 751 47 q 668 -3 703 -3 q 596 43 618 -3 q 403 -15 508 -15 q 156 86 257 -15 q 56 333 56 188 q 156 581 56 481 q 403 682 256 682 q 592 625 506 682 q 668 681 611 681 m 403 151 q 533 204 479 151 q 586 333 586 257 q 533 462 586 408 q 403 515 479 515 q 274 462 328 515 q 221 333 221 408 q 274 204 221 257 q 403 151 328 151 m 403 578 q 577 506 506 578 q 649 333 649 435 q 577 159 649 231 q 403 88 506 88 q 230 159 301 88 q 158 333 158 231 q 230 506 158 435 q 403 578 301 578 m 442 740 q 414 713 442 713 q 392 724 400 713 l 343 793 q 338 810 338 801 q 365 838 338 838 q 386 825 378 838 l 438 756 q 442 740 442 750 z "},"":{"ha":849,"x_min":56,"x_max":751,"o":"m 689 81 l 689 599 q 668 619 689 619 q 649 599 649 619 l 649 482 q 403 619 564 619 q 199 537 282 619 q 117 333 117 454 q 199 129 117 211 q 403 47 282 47 q 649 186 564 47 l 649 81 q 668 60 649 60 q 689 81 689 60 m 668 681 q 727 656 703 681 q 751 599 751 632 l 751 81 q 727 22 751 47 q 668 -3 703 -3 q 596 43 618 -3 q 403 -15 508 -15 q 156 86 257 -15 q 56 333 56 188 q 156 581 56 481 q 403 682 256 682 q 592 625 506 682 q 668 681 611 681 m 403 151 q 533 204 479 151 q 586 333 586 257 q 533 462 586 408 q 403 515 479 515 q 274 462 328 515 q 221 333 221 408 q 274 204 221 257 q 403 151 328 151 m 403 578 q 577 506 506 578 q 649 333 649 435 q 577 159 649 231 q 403 88 506 88 q 230 159 301 88 q 158 333 158 231 q 230 506 158 435 q 403 578 301 578 m 351 740 q 357 756 351 747 l 406 825 q 428 838 414 838 q 456 810 456 838 q 451 793 456 799 l 400 724 q 379 713 392 713 q 351 740 351 713 z "},"":{"ha":849,"x_min":56,"x_max":751,"o":"m 689 81 l 689 599 q 668 619 689 619 q 649 599 649 619 l 649 482 q 403 619 564 619 q 199 537 282 619 q 117 333 117 454 q 199 129 117 211 q 403 47 282 47 q 649 186 564 47 l 649 81 q 668 60 649 60 q 689 81 689 60 m 668 681 q 727 656 703 681 q 751 599 751 632 l 751 81 q 727 22 751 47 q 668 -3 703 -3 q 596 43 618 -3 q 403 -15 508 -15 q 156 86 257 -15 q 56 333 56 188 q 156 581 56 481 q 403 682 256 682 q 592 625 506 682 q 668 681 611 681 m 403 151 q 533 204 479 151 q 586 333 586 257 q 533 462 586 408 q 403 515 479 515 q 274 462 328 515 q 221 333 221 408 q 274 204 221 257 q 403 151 328 151 m 403 578 q 577 506 506 578 q 649 333 649 435 q 577 159 649 231 q 403 88 506 88 q 230 159 301 88 q 158 333 158 231 q 230 506 158 435 q 403 578 301 578 m 400 839 l 408 839 q 431 831 421 839 l 481 788 q 492 763 492 778 q 457 728 492 728 q 435 736 444 728 l 404 763 l 375 736 q 351 728 365 728 q 317 763 317 728 q 329 788 317 776 l 378 831 q 400 839 386 839 z "},"":{"ha":849,"x_min":56,"x_max":751,"o":"m 668 681 q 727 656 703 681 q 751 599 751 632 l 751 81 q 727 22 751 47 q 668 -3 703 -3 q 596 43 618 -3 q 403 -15 508 -15 q 156 86 257 -15 q 56 333 56 188 q 156 581 56 481 q 403 682 256 682 q 592 625 506 682 q 668 681 611 681 m 689 81 l 689 599 q 668 619 689 619 q 649 599 649 619 l 649 482 q 403 619 564 619 q 199 537 282 619 q 117 333 117 454 q 199 129 117 211 q 403 47 282 47 q 649 186 564 47 l 649 81 q 668 60 649 60 q 689 81 689 60 m 403 578 q 577 506 506 578 q 649 333 649 435 q 577 159 649 231 q 403 88 506 88 q 230 159 301 88 q 158 333 158 231 q 230 506 158 435 q 403 578 301 578 m 403 151 q 533 204 479 151 q 586 333 586 257 q 533 462 586 408 q 403 515 479 515 q 274 462 328 515 q 221 333 221 408 q 274 204 221 257 q 403 151 328 151 m 293 764 q 364 808 318 808 l 365 808 q 408 794 382 808 q 436 781 435 781 q 446 788 440 781 q 476 806 456 806 q 511 771 511 806 q 507 756 511 763 q 436 713 483 713 q 390 726 418 713 l 364 740 q 354 731 358 738 q 324 713 343 713 q 289 747 289 713 q 293 764 289 758 z "},"":{"ha":849,"x_min":56,"x_max":751,"o":"m 689 81 l 689 599 q 668 619 689 619 q 649 599 649 619 l 649 482 q 403 619 564 619 q 199 537 282 619 q 117 333 117 454 q 199 129 117 211 q 403 47 282 47 q 649 186 564 47 l 649 81 q 668 60 649 60 q 689 81 689 60 m 668 681 q 727 656 703 681 q 751 599 751 632 l 751 81 q 727 22 751 47 q 668 -3 703 -3 q 596 43 618 -3 q 403 -15 508 -15 q 156 86 257 -15 q 56 333 56 188 q 156 581 56 481 q 403 682 256 682 q 592 625 506 682 q 668 681 611 681 m 403 151 q 533 204 479 151 q 586 333 586 257 q 533 462 586 408 q 403 515 479 515 q 274 462 328 515 q 221 333 221 408 q 274 204 221 257 q 403 151 328 151 m 403 578 q 577 506 506 578 q 649 333 649 435 q 577 159 649 231 q 403 88 506 88 q 230 159 301 88 q 158 333 158 231 q 230 506 158 435 q 403 578 301 578 m 351 765 q 314 729 351 729 q 275 765 275 729 q 314 804 275 804 q 351 765 351 804 m 482 765 q 443 729 482 729 q 406 765 406 729 q 443 804 406 804 q 482 765 482 804 z "},"":{"ha":849,"x_min":56,"x_max":751,"o":"m 317 758 q 339 812 317 789 q 392 835 361 835 q 446 812 424 835 q 468 758 468 789 q 446 704 468 726 q 399 682 426 685 l 403 682 q 592 625 506 682 q 668 681 611 681 q 727 656 703 681 q 751 599 751 632 l 751 81 q 727 22 751 47 q 668 -3 703 -3 q 596 43 618 -3 q 403 -15 508 -15 q 156 86 257 -15 q 56 333 56 188 q 156 581 56 481 q 388 682 250 676 q 339 704 360 683 q 317 758 317 726 m 689 81 l 689 599 q 668 619 689 619 q 649 599 649 619 l 649 482 q 403 619 564 619 q 199 537 282 619 q 117 333 117 454 q 199 129 117 211 q 403 47 282 47 q 649 186 564 47 l 649 81 q 668 60 649 60 q 689 81 689 60 m 403 578 q 577 506 506 578 q 649 333 649 435 q 577 159 649 231 q 403 88 506 88 q 230 159 301 88 q 158 333 158 231 q 230 506 158 435 q 403 578 301 578 m 403 151 q 533 204 479 151 q 586 333 586 257 q 533 462 586 408 q 403 515 479 515 q 274 462 328 515 q 221 333 221 408 q 274 204 221 257 q 403 151 328 151 m 344 758 q 359 724 344 739 q 392 710 374 710 q 440 758 440 710 q 392 806 440 806 q 344 758 344 806 z "},"":{"ha":1335,"x_min":56,"x_max":1279,"o":"m 933 92 q 769 156 838 92 q 692 315 700 219 q 697 314 693 314 l 1197 314 q 1217 335 1217 314 q 1135 536 1217 454 q 933 618 1053 618 q 689 481 774 618 l 689 592 q 668 613 689 613 q 649 592 649 613 l 649 475 q 403 614 564 614 q 199 531 282 614 q 117 328 117 449 q 199 124 117 207 q 403 42 282 42 q 649 181 564 42 l 649 74 q 668 54 649 54 q 689 74 689 54 l 689 189 q 933 50 774 50 q 1133 133 1051 50 q 1140 149 1140 139 q 1119 169 1140 169 q 1104 163 1110 169 q 933 92 1033 92 m 1279 335 q 1255 276 1279 300 q 1197 251 1231 251 l 774 251 q 933 154 824 154 q 1061 207 1008 154 q 1119 231 1085 231 q 1178 207 1154 231 q 1203 149 1203 183 q 1178 89 1203 114 q 933 -12 1076 -12 q 746 43 831 -12 q 668 -8 725 -8 q 596 38 618 -8 q 403 -21 508 -21 q 156 80 256 -21 q 56 328 56 181 q 156 575 56 475 q 403 675 256 675 q 592 621 506 675 q 668 674 611 674 q 744 625 724 674 q 933 681 831 681 q 1178 581 1078 681 q 1279 335 1279 481 m 933 514 q 774 417 824 514 l 1092 417 q 933 514 1042 514 m 1174 354 l 697 354 q 692 353 696 354 q 769 513 700 449 q 933 576 838 576 q 1097 513 1028 576 q 1174 354 1165 450 m 403 144 q 533 198 479 144 q 586 328 586 251 q 533 456 586 403 q 403 510 479 510 q 274 456 328 510 q 221 328 221 403 q 274 198 221 251 q 403 144 328 144 m 403 572 q 577 501 506 572 q 649 328 649 429 q 577 153 649 225 q 403 82 506 82 q 230 153 301 82 q 158 328 158 225 q 230 501 158 429 q 403 572 301 572 z "},"":{"ha":750,"x_min":56,"x_max":694,"o":"m 631 182 q 633 193 633 188 q 613 213 633 213 q 596 206 601 213 q 397 99 524 99 q 228 168 297 99 q 158 339 158 238 q 228 508 158 439 q 397 576 297 576 q 596 472 525 576 q 613 463 603 463 q 633 483 633 463 q 631 494 633 489 q 397 618 546 618 q 198 538 279 618 q 117 339 117 457 q 198 139 117 219 q 397 58 279 58 q 631 182 546 58 m 419 -3 l 421 -6 q 419 -11 421 -8 l 415 -33 q 439 -31 428 -31 q 496 -50 472 -31 q 519 -103 519 -69 q 360 -207 519 -207 l 346 -207 q 318 -181 318 -207 l 318 -179 q 346 -151 318 -151 l 360 -151 q 464 -103 464 -151 q 439 -86 464 -86 q 408 -93 428 -86 q 381 -100 388 -100 q 353 -71 353 -100 l 353 -68 l 365 -3 q 144 108 232 10 q 56 339 56 206 q 154 582 56 483 q 397 681 253 681 q 681 529 579 681 q 694 483 694 508 q 672 424 694 447 q 613 400 649 400 q 543 438 568 400 q 397 514 492 514 q 273 463 325 514 q 221 339 221 411 q 273 214 221 265 q 397 163 325 163 q 543 239 492 163 q 613 276 568 276 q 671 251 647 276 q 694 193 694 226 q 681 147 694 168 q 419 -3 588 8 z "},"":{"ha":807,"x_min":56,"x_max":751,"o":"m 403 103 q 229 174 300 103 q 158 347 158 244 l 158 349 l 668 349 q 689 369 689 349 l 689 371 q 674 442 689 399 q 570 581 644 528 q 403 633 496 633 q 199 551 282 633 q 117 347 117 469 q 199 144 117 226 q 403 63 282 63 q 640 189 554 63 q 644 200 644 193 q 624 219 644 219 q 606 210 613 219 q 403 103 532 103 m 668 288 l 233 288 q 299 199 251 232 q 403 167 346 167 q 554 246 500 167 q 624 282 579 282 q 683 258 660 282 q 706 200 706 235 q 692 153 706 174 q 403 0 588 0 q 156 101 257 0 q 56 347 56 203 q 156 595 56 494 q 403 696 256 696 q 607 631 517 696 q 733 461 697 567 q 751 376 751 408 l 751 369 q 727 312 751 336 q 668 288 703 288 m 254 453 l 553 453 q 403 531 499 531 q 254 453 308 531 m 644 390 l 163 390 q 246 536 178 479 q 403 593 314 593 q 561 536 493 593 q 644 390 629 479 m 442 740 q 414 713 442 713 q 392 724 400 713 l 343 793 q 338 810 338 801 q 365 838 338 838 q 386 825 378 838 l 438 756 q 442 740 442 750 z "},"":{"ha":807,"x_min":56,"x_max":751,"o":"m 403 103 q 229 174 300 103 q 158 347 158 244 l 158 349 l 668 349 q 689 369 689 349 l 689 371 q 674 442 689 399 q 570 581 644 528 q 403 633 496 633 q 199 551 282 633 q 117 347 117 469 q 199 144 117 226 q 403 63 282 63 q 640 189 554 63 q 644 200 644 193 q 624 219 644 219 q 606 210 613 219 q 403 103 532 103 m 668 288 l 233 288 q 299 199 251 232 q 403 167 346 167 q 554 246 500 167 q 624 282 579 282 q 683 258 660 282 q 706 200 706 235 q 692 153 706 174 q 403 0 588 0 q 156 101 257 0 q 56 347 56 203 q 156 595 56 494 q 403 696 256 696 q 607 631 517 696 q 733 461 697 567 q 751 376 751 408 l 751 369 q 727 312 751 336 q 668 288 703 288 m 254 453 l 553 453 q 403 531 499 531 q 254 453 308 531 m 644 390 l 163 390 q 246 536 178 479 q 403 593 314 593 q 561 536 493 593 q 644 390 629 479 m 351 754 q 357 768 351 761 l 406 839 q 428 851 414 851 q 456 824 456 851 q 451 807 456 813 l 400 738 q 379 726 392 726 q 351 754 351 726 z "},"":{"ha":807,"x_min":56,"x_max":751,"o":"m 403 103 q 229 174 300 103 q 158 347 158 244 l 158 349 l 668 349 q 689 369 689 349 l 689 371 q 674 442 689 399 q 570 581 644 528 q 403 633 496 633 q 199 551 282 633 q 117 347 117 469 q 199 144 117 226 q 403 63 282 63 q 640 189 554 63 q 644 200 644 193 q 624 219 644 219 q 606 210 613 219 q 403 103 532 103 m 668 288 l 233 288 q 299 199 251 232 q 403 167 346 167 q 554 246 500 167 q 624 282 579 282 q 683 258 660 282 q 706 200 706 235 q 692 153 706 174 q 403 0 588 0 q 156 101 257 0 q 56 347 56 203 q 156 595 56 494 q 403 696 256 696 q 607 631 517 696 q 733 461 697 567 q 751 376 751 408 l 751 369 q 727 312 751 336 q 668 288 703 288 m 254 453 l 553 453 q 403 531 499 531 q 254 453 308 531 m 644 390 l 163 390 q 246 536 178 479 q 403 593 314 593 q 561 536 493 593 q 644 390 629 479 m 386 839 l 394 839 q 417 831 407 839 l 467 788 q 478 763 478 778 q 443 728 478 728 q 421 736 431 728 l 390 763 l 361 736 q 338 728 351 728 q 303 763 303 728 q 315 788 303 776 l 364 831 q 386 839 374 839 z "},"":{"ha":807,"x_min":56,"x_max":751,"o":"m 403 103 q 229 174 300 103 q 158 347 158 244 l 158 349 l 668 349 q 689 369 689 349 l 689 371 q 674 442 689 399 q 570 581 644 528 q 403 633 496 633 q 199 551 282 633 q 117 347 117 469 q 199 144 117 226 q 403 63 282 63 q 640 189 554 63 q 644 200 644 193 q 624 219 644 219 q 606 210 613 219 q 403 103 532 103 m 668 288 l 233 288 q 299 199 251 232 q 403 167 346 167 q 554 246 500 167 q 624 282 579 282 q 683 258 660 282 q 706 200 706 235 q 692 153 706 174 q 403 0 588 0 q 156 101 257 0 q 56 347 56 203 q 156 595 56 494 q 403 696 256 696 q 607 631 517 696 q 733 461 697 567 q 751 376 751 408 l 751 369 q 727 312 751 336 q 668 288 703 288 m 254 453 l 553 453 q 403 531 499 531 q 254 453 308 531 m 644 390 l 163 390 q 246 536 178 479 q 403 593 314 593 q 561 536 493 593 q 644 390 629 479 m 365 765 q 328 729 365 729 q 289 765 289 729 q 328 804 289 804 q 365 765 365 804 m 496 765 q 457 729 496 729 q 419 765 419 729 q 457 804 419 804 q 496 765 496 804 z "},"":{"ha":360,"x_min":97,"x_max":263,"o":"m 200 79 l 200 600 q 179 621 200 621 q 158 600 158 621 l 158 79 q 179 60 158 60 q 200 79 200 60 m 179 682 q 238 658 214 682 q 263 600 263 633 l 263 79 q 238 22 263 46 q 179 -3 214 -3 q 121 22 144 -3 q 97 79 97 46 l 97 600 q 121 658 97 633 q 179 682 144 682 m 222 754 q 194 726 222 726 q 172 738 181 726 l 124 807 q 118 824 118 815 q 144 851 118 851 q 167 839 157 851 l 218 768 q 222 754 222 764 z "},"":{"ha":360,"x_min":97,"x_max":263,"o":"m 200 79 l 200 600 q 179 621 200 621 q 158 600 158 621 l 158 79 q 179 60 158 60 q 200 79 200 60 m 179 682 q 238 658 214 682 q 263 600 263 633 l 263 79 q 238 22 263 46 q 179 -3 214 -3 q 121 22 144 -3 q 97 79 97 46 l 97 600 q 121 658 97 633 q 179 682 144 682 m 132 740 q 136 756 132 747 l 186 825 q 208 838 194 838 q 236 810 236 838 q 232 793 236 799 l 181 724 q 158 713 172 713 q 132 740 132 713 z "},"":{"ha":374,"x_min":97,"x_max":276,"o":"m 214 79 l 214 600 q 193 621 214 621 q 172 600 172 621 l 172 79 q 193 60 172 60 q 214 79 214 60 m 193 682 q 252 658 228 682 q 276 600 276 633 l 276 79 q 252 22 276 46 q 193 -3 228 -3 q 135 22 158 -3 q 111 79 111 46 l 111 600 q 135 658 111 633 q 193 682 158 682 m 181 853 l 189 853 q 211 844 201 853 l 261 801 q 272 775 272 792 q 238 742 272 742 q 215 750 225 742 l 185 775 l 154 750 q 132 742 146 742 q 97 775 97 742 q 110 801 97 790 l 157 844 q 181 853 167 853 z "},"":{"ha":400,"x_min":97,"x_max":303,"o":"m 214 79 l 214 600 q 193 621 214 621 q 172 600 172 621 l 172 79 q 193 60 172 60 q 214 79 214 60 m 193 682 q 252 658 228 682 q 276 600 276 633 l 276 79 q 252 22 276 46 q 193 -3 228 -3 q 135 22 158 -3 q 111 79 111 46 l 111 600 q 135 658 111 633 q 193 682 158 682 m 172 765 q 136 729 172 729 q 97 765 97 729 q 136 804 97 804 q 172 765 172 804 m 303 765 q 265 729 303 729 q 228 765 228 729 q 265 804 228 804 q 303 765 303 804 z "},"":{"ha":803,"x_min":56,"x_max":747,"o":"m 400 60 q 603 141 521 60 q 685 343 685 222 q 656 471 685 410 q 571 624 653 517 q 449 761 500 717 l 503 796 q 513 814 513 803 q 492 835 513 835 q 481 831 485 835 l 415 788 q 318 843 360 828 q 311 844 315 844 q 290 824 290 844 q 378 764 290 806 l 286 703 q 276 685 276 696 q 297 664 276 664 q 310 668 304 664 l 413 738 q 547 586 489 675 q 400 626 481 626 q 199 544 281 626 q 117 343 117 463 q 199 141 117 222 q 400 60 281 60 m 714 490 q 747 343 747 428 q 647 97 747 197 q 400 -3 546 -3 q 155 97 254 -3 q 56 343 56 197 q 228 642 56 539 q 215 685 215 661 q 251 754 215 729 l 260 760 q 229 824 229 783 q 253 882 229 858 q 313 906 278 906 q 414 863 342 906 l 446 883 q 492 897 467 897 q 549 873 525 897 q 574 814 574 849 q 547 753 574 776 q 643 628 593 704 q 714 490 704 533 m 400 163 q 529 215 476 163 q 582 343 582 267 q 529 470 582 418 q 400 522 476 522 q 274 469 326 522 q 221 343 221 417 q 274 215 221 268 q 400 163 326 163 m 400 585 q 574 515 503 585 q 644 343 644 444 q 574 170 644 240 q 400 100 503 100 q 229 171 300 100 q 158 343 158 242 q 229 514 158 443 q 400 585 300 585 z "},"":{"ha":847,"x_min":97,"x_max":750,"o":"m 424 693 q 656 599 561 693 q 750 367 750 504 l 750 82 q 726 24 750 49 q 668 -1 701 -1 q 609 24 633 -1 q 585 82 585 49 l 585 367 q 538 481 585 435 q 424 528 490 528 q 310 481 357 528 q 263 367 263 433 l 263 78 q 238 20 263 44 q 179 -4 214 -4 q 122 20 146 -4 q 97 78 97 44 l 97 601 q 122 660 97 635 q 179 685 146 685 q 251 643 226 685 q 424 693 331 693 m 689 82 l 689 367 q 612 555 689 479 q 424 631 535 631 q 200 508 279 631 l 200 601 q 179 622 200 622 q 158 601 158 622 l 158 78 q 179 58 158 58 q 200 78 200 58 l 200 367 q 265 525 200 460 q 424 590 331 590 q 582 526 517 590 q 647 367 647 461 l 647 82 q 668 63 647 63 q 689 82 689 63 m 321 778 q 392 822 346 822 l 393 822 q 436 808 410 822 q 464 794 463 794 q 474 801 468 794 q 504 819 483 819 q 539 785 539 819 q 535 768 539 775 q 464 726 511 726 q 419 740 446 726 l 392 754 q 382 744 386 751 q 351 726 371 726 q 317 761 317 726 q 321 778 317 771 z "},"":{"ha":807,"x_min":56,"x_max":751,"o":"m 403 56 q 606 138 524 56 q 689 342 689 219 q 606 544 689 463 q 403 626 524 626 q 199 544 282 626 q 117 342 117 463 q 199 138 117 219 q 403 56 282 56 m 403 689 q 651 588 550 689 q 751 342 751 488 q 651 94 751 194 q 403 -7 550 -7 q 156 94 256 -7 q 56 342 56 194 q 156 588 56 488 q 403 689 256 689 m 403 158 q 533 212 479 158 q 586 342 586 265 q 533 470 586 417 q 403 524 479 524 q 274 470 328 524 q 221 342 221 417 q 274 212 221 265 q 403 158 328 158 m 403 586 q 577 515 506 586 q 649 342 649 443 q 577 167 649 239 q 403 96 506 96 q 230 167 301 96 q 158 342 158 239 q 230 515 158 443 q 403 586 301 586 m 456 754 q 428 726 456 726 q 406 738 414 726 l 357 807 q 351 824 351 815 q 379 851 351 851 q 400 839 390 851 l 451 768 q 456 754 456 764 z "},"":{"ha":807,"x_min":56,"x_max":751,"o":"m 403 56 q 606 138 524 56 q 689 342 689 219 q 606 544 689 463 q 403 626 524 626 q 199 544 282 626 q 117 342 117 463 q 199 138 117 219 q 403 56 282 56 m 403 689 q 651 588 550 689 q 751 342 751 488 q 651 94 751 194 q 403 -7 550 -7 q 156 94 256 -7 q 56 342 56 194 q 156 588 56 488 q 403 689 256 689 m 403 158 q 533 212 479 158 q 586 342 586 265 q 533 470 586 417 q 403 524 479 524 q 274 470 328 524 q 221 342 221 417 q 274 212 221 265 q 403 158 328 158 m 403 586 q 577 515 506 586 q 649 342 649 443 q 577 167 649 239 q 403 96 506 96 q 230 167 301 96 q 158 342 158 239 q 230 515 158 443 q 403 586 301 586 m 351 740 q 357 756 351 747 l 406 825 q 428 838 414 838 q 456 810 456 838 q 451 793 456 799 l 400 724 q 379 713 392 713 q 351 740 351 713 z "},"":{"ha":807,"x_min":56,"x_max":751,"o":"m 403 56 q 606 138 524 56 q 689 342 689 219 q 606 544 689 463 q 403 626 524 626 q 199 544 282 626 q 117 342 117 463 q 199 138 117 219 q 403 56 282 56 m 403 689 q 651 588 550 689 q 751 342 751 488 q 651 94 751 194 q 403 -7 550 -7 q 156 94 256 -7 q 56 342 56 194 q 156 588 56 488 q 403 689 256 689 m 403 158 q 533 212 479 158 q 586 342 586 265 q 533 470 586 417 q 403 524 479 524 q 274 470 328 524 q 221 342 221 417 q 274 212 221 265 q 403 158 328 158 m 403 586 q 577 515 506 586 q 649 342 649 443 q 577 167 649 239 q 403 96 506 96 q 230 167 301 96 q 158 342 158 239 q 230 515 158 443 q 403 586 301 586 m 386 825 l 394 825 q 417 817 407 825 l 467 774 q 478 749 478 764 q 443 714 478 714 q 421 722 431 714 l 390 749 l 361 722 q 338 714 351 714 q 303 749 303 714 q 315 774 303 764 l 364 817 q 386 825 374 825 z "},"":{"ha":807,"x_min":56,"x_max":751,"o":"m 403 689 q 651 588 550 689 q 751 342 751 488 q 651 94 751 194 q 403 -7 550 -7 q 156 94 256 -7 q 56 342 56 194 q 156 588 56 488 q 403 689 256 689 m 403 56 q 606 138 524 56 q 689 342 689 219 q 606 544 689 463 q 403 626 524 626 q 199 544 282 626 q 117 342 117 463 q 199 138 117 219 q 403 56 282 56 m 403 586 q 577 515 506 586 q 649 342 649 443 q 577 167 649 239 q 403 96 506 96 q 230 167 301 96 q 158 342 158 239 q 230 515 158 443 q 403 586 301 586 m 403 158 q 533 212 479 158 q 586 342 586 265 q 533 470 586 417 q 403 524 479 524 q 274 470 328 524 q 221 342 221 417 q 274 212 221 265 q 403 158 328 158 m 279 778 q 350 822 304 822 l 351 822 q 394 808 368 822 q 422 794 421 794 q 432 801 426 794 q 463 819 442 819 q 497 785 497 819 q 493 768 497 775 q 422 726 469 726 q 378 740 404 726 l 350 754 q 340 744 344 751 q 310 726 329 726 q 275 761 275 726 q 279 778 275 771 z "},"":{"ha":807,"x_min":56,"x_max":751,"o":"m 403 56 q 606 138 524 56 q 689 342 689 219 q 606 544 689 463 q 403 626 524 626 q 199 544 282 626 q 117 342 117 463 q 199 138 117 219 q 403 56 282 56 m 403 689 q 651 588 550 689 q 751 342 751 488 q 651 94 751 194 q 403 -7 550 -7 q 156 94 256 -7 q 56 342 56 194 q 156 588 56 488 q 403 689 256 689 m 403 158 q 533 212 479 158 q 586 342 586 265 q 533 470 586 417 q 403 524 479 524 q 274 470 328 524 q 221 342 221 417 q 274 212 221 265 q 403 158 328 158 m 403 586 q 577 515 506 586 q 649 342 649 443 q 577 167 649 239 q 403 96 506 96 q 230 167 301 96 q 158 342 158 239 q 230 515 158 443 q 403 586 301 586 m 379 765 q 342 729 379 729 q 303 765 303 729 q 342 804 303 804 q 379 765 379 804 m 510 765 q 471 729 510 729 q 433 765 433 729 q 471 804 433 804 q 510 765 510 804 z "},"":{"ha":750,"x_min":56,"x_max":694,"o":"m 611 493 q 670 469 646 493 q 694 411 694 446 q 670 352 694 376 q 611 328 646 328 l 138 328 q 80 352 104 328 q 56 411 56 376 q 80 469 56 446 q 138 493 104 493 l 611 493 m 611 390 q 632 411 632 390 q 611 432 632 432 l 138 432 q 117 411 117 432 q 138 390 117 390 l 611 390 m 286 618 q 312 681 286 654 q 375 707 338 707 q 438 681 411 707 q 464 618 464 654 q 438 555 464 581 q 375 529 411 529 q 312 555 338 529 q 286 618 286 581 m 342 618 q 375 585 342 585 q 408 618 408 585 q 375 651 408 651 q 342 618 342 651 m 286 204 q 312 267 286 240 q 375 293 338 293 q 438 267 411 293 q 464 204 464 240 q 438 140 464 167 q 375 114 411 114 q 312 140 338 114 q 286 204 286 167 m 342 204 q 375 169 342 169 q 408 204 408 169 q 375 236 408 236 q 342 204 342 236 z "},"":{"ha":801,"x_min":56,"x_max":746,"o":"m 400 51 q 602 132 521 51 q 683 333 683 213 q 604 529 683 447 l 644 575 q 650 589 650 582 q 629 610 650 610 q 613 603 618 610 l 572 557 q 400 617 497 617 q 199 535 281 617 q 117 333 117 453 q 200 133 117 215 l 157 85 q 151 71 151 78 q 172 51 151 51 q 189 58 183 51 l 232 107 q 400 51 307 51 m 685 528 q 746 333 746 440 q 645 88 746 189 q 400 -12 544 -12 q 243 26 318 -12 l 236 17 q 172 -12 211 -12 q 114 13 138 -12 q 90 71 90 38 q 110 125 90 101 l 118 135 q 56 333 56 224 q 155 578 56 479 q 400 678 254 678 q 561 638 486 678 l 565 643 q 629 671 590 671 q 686 647 661 671 q 711 589 711 622 q 690 533 711 554 l 685 528 m 400 154 q 527 206 475 154 q 579 333 579 258 q 568 396 579 364 l 361 158 q 400 154 382 154 m 258 138 l 576 497 q 643 333 643 429 q 573 162 643 232 q 400 92 503 92 q 258 138 322 92 m 221 333 q 235 267 221 299 l 446 506 q 400 513 422 513 q 274 460 326 513 q 221 333 221 407 m 400 575 q 544 526 481 575 l 228 165 q 158 333 158 235 q 229 504 158 433 q 400 575 300 575 z "},"":{"ha":847,"x_min":97,"x_max":750,"o":"m 689 78 l 689 600 q 668 621 689 621 q 647 600 647 621 l 647 313 q 582 153 647 218 q 424 89 517 89 q 265 154 331 89 q 200 313 200 219 l 200 600 q 179 621 200 621 q 158 600 158 621 l 158 313 q 235 125 158 201 q 424 49 311 49 q 647 172 568 49 l 647 78 q 668 58 647 58 q 689 78 689 58 m 668 682 q 726 658 701 682 q 750 600 750 633 l 750 78 q 726 20 750 44 q 668 -4 701 -4 q 596 36 621 -4 q 424 -14 517 -14 q 191 81 285 -14 q 97 313 97 175 l 97 600 q 122 658 97 633 q 179 682 146 682 q 238 658 214 682 q 263 600 263 633 l 263 313 q 310 199 263 246 q 424 151 357 151 q 538 198 490 151 q 585 313 585 244 l 585 600 q 609 658 585 633 q 668 682 633 682 m 456 740 q 428 713 456 713 q 407 724 415 713 l 357 793 q 351 810 351 801 q 379 838 351 838 q 401 825 392 838 l 451 756 q 456 740 456 750 z "},"":{"ha":847,"x_min":97,"x_max":750,"o":"m 689 78 l 689 600 q 668 621 689 621 q 647 600 647 621 l 647 313 q 582 153 647 218 q 424 89 517 89 q 265 154 331 89 q 200 313 200 219 l 200 600 q 179 621 200 621 q 158 600 158 621 l 158 313 q 235 125 158 201 q 424 49 311 49 q 647 172 568 49 l 647 78 q 668 58 647 58 q 689 78 689 58 m 668 682 q 726 658 701 682 q 750 600 750 633 l 750 78 q 726 20 750 44 q 668 -4 701 -4 q 596 36 621 -4 q 424 -14 517 -14 q 191 81 285 -14 q 97 313 97 175 l 97 600 q 122 658 97 633 q 179 682 146 682 q 238 658 214 682 q 263 600 263 633 l 263 313 q 310 199 263 246 q 424 151 357 151 q 538 198 490 151 q 585 313 585 244 l 585 600 q 609 658 585 633 q 668 682 633 682 m 365 726 q 371 742 365 733 l 421 811 q 442 824 428 824 q 469 796 469 824 q 465 779 469 785 l 415 710 q 393 699 407 699 q 365 726 365 699 z "},"":{"ha":847,"x_min":97,"x_max":750,"o":"m 689 78 l 689 600 q 668 621 689 621 q 647 600 647 621 l 647 313 q 582 153 647 218 q 424 89 517 89 q 265 154 331 89 q 200 313 200 219 l 200 600 q 179 621 200 621 q 158 600 158 621 l 158 313 q 235 125 158 201 q 424 49 311 49 q 647 172 568 49 l 647 78 q 668 58 647 58 q 689 78 689 58 m 668 682 q 726 658 701 682 q 750 600 750 633 l 750 78 q 726 20 750 44 q 668 -4 701 -4 q 596 36 621 -4 q 424 -14 517 -14 q 191 81 285 -14 q 97 313 97 175 l 97 600 q 122 658 97 633 q 179 682 146 682 q 238 658 214 682 q 263 600 263 633 l 263 313 q 310 199 263 246 q 424 151 357 151 q 538 198 490 151 q 585 313 585 244 l 585 600 q 609 658 585 633 q 668 682 633 682 m 401 825 l 410 825 q 431 817 422 825 l 481 774 q 492 749 492 764 q 457 714 492 714 q 435 722 444 714 l 406 749 l 375 722 q 351 714 365 714 q 317 749 317 714 q 329 774 317 764 l 378 817 q 401 825 388 825 z "},"":{"ha":847,"x_min":97,"x_max":750,"o":"m 689 78 l 689 600 q 668 621 689 621 q 647 600 647 621 l 647 313 q 582 153 647 218 q 424 89 517 89 q 265 154 331 89 q 200 313 200 219 l 200 600 q 179 621 200 621 q 158 600 158 621 l 158 313 q 235 125 158 201 q 424 49 311 49 q 647 172 568 49 l 647 78 q 668 58 647 58 q 689 78 689 58 m 668 682 q 726 658 701 682 q 750 600 750 633 l 750 78 q 726 20 750 44 q 668 -4 701 -4 q 596 36 621 -4 q 424 -14 517 -14 q 191 81 285 -14 q 97 313 97 175 l 97 600 q 122 658 97 633 q 179 682 146 682 q 238 658 214 682 q 263 600 263 633 l 263 313 q 310 199 263 246 q 424 151 357 151 q 538 198 490 151 q 585 313 585 244 l 585 600 q 609 658 585 633 q 668 682 633 682 m 393 765 q 356 729 393 729 q 317 765 317 729 q 356 804 317 804 q 393 765 393 804 m 524 765 q 485 729 524 729 q 447 765 447 729 q 485 804 447 804 q 524 765 524 804 z "},"":{"ha":847,"x_min":97,"x_max":750,"o":"m 689 39 l 689 596 q 668 617 689 617 q 647 596 647 617 l 647 311 q 582 151 647 217 q 424 86 517 86 q 265 151 329 86 q 200 311 200 217 l 200 596 q 179 617 200 617 q 158 596 158 617 l 158 311 q 235 123 158 200 q 424 46 311 46 q 647 169 568 46 l 647 39 q 547 -87 647 -47 q 376 -118 474 -118 l 217 -118 q 194 -139 194 -118 q 217 -160 194 -160 l 378 -160 q 578 -118 493 -160 q 689 39 689 -65 m 668 678 q 726 653 701 678 q 750 596 750 629 l 750 39 q 621 -165 750 -94 q 372 -221 517 -221 l 217 -221 q 158 -197 182 -221 q 133 -139 133 -174 q 158 -81 133 -104 q 217 -57 182 -57 l 376 -57 q 579 24 543 -57 q 424 -17 507 -17 q 191 78 285 -17 q 97 311 97 174 l 97 596 q 122 653 97 629 q 179 678 146 678 q 238 653 214 678 q 263 596 263 629 l 263 311 q 309 197 263 243 q 424 150 356 150 q 538 197 490 150 q 585 311 585 243 l 585 596 q 609 653 585 629 q 668 678 633 678 m 365 740 q 371 756 365 747 l 421 825 q 442 838 428 838 q 469 810 469 838 q 465 793 469 799 l 415 724 q 393 713 407 713 q 365 740 365 713 z "},"":{"ha":849,"x_min":97,"x_max":793,"o":"m 444 42 q 648 124 565 42 q 731 328 731 207 q 648 531 731 449 q 444 614 565 614 q 200 476 285 614 l 200 814 q 179 835 200 835 q 158 814 158 835 l 158 -140 q 179 -161 158 -161 q 200 -140 200 -161 l 200 181 q 444 42 285 42 m 444 676 q 692 576 592 676 q 793 328 793 475 q 692 81 793 182 q 444 -21 590 -21 q 263 32 346 -21 l 263 -140 q 238 -199 263 -175 q 179 -222 214 -222 q 122 -199 146 -222 q 97 -140 97 -175 l 97 814 q 122 873 97 849 q 179 897 146 897 q 238 873 214 897 q 263 814 263 849 l 263 625 q 444 676 346 676 m 444 146 q 574 199 521 146 q 628 328 628 251 q 574 456 628 403 q 444 510 521 510 q 316 456 369 510 q 263 328 263 403 q 316 199 263 251 q 444 146 369 146 m 444 572 q 619 501 547 572 q 690 328 690 429 q 619 154 690 225 q 444 83 549 83 q 272 154 343 83 q 200 328 200 225 q 272 501 200 429 q 444 572 343 572 z "},"":{"ha":847,"x_min":97,"x_max":750,"o":"m 689 39 l 689 596 q 668 617 689 617 q 647 596 647 617 l 647 311 q 582 151 647 217 q 424 86 517 86 q 265 151 329 86 q 200 311 200 217 l 200 596 q 179 617 200 617 q 158 596 158 617 l 158 311 q 235 123 158 200 q 424 46 311 46 q 647 169 568 46 l 647 39 q 547 -87 647 -47 q 376 -118 474 -118 l 217 -118 q 194 -139 194 -118 q 217 -160 194 -160 l 378 -160 q 578 -118 493 -160 q 689 39 689 -65 m 668 678 q 726 653 701 678 q 750 596 750 629 l 750 39 q 621 -165 750 -94 q 372 -221 517 -221 l 217 -221 q 158 -197 182 -221 q 133 -139 133 -174 q 158 -81 133 -104 q 217 -57 182 -57 l 376 -57 q 579 24 543 -57 q 424 -17 507 -17 q 191 78 285 -17 q 97 311 97 174 l 97 596 q 122 653 97 629 q 179 678 146 678 q 238 653 214 678 q 263 596 263 629 l 263 311 q 309 197 263 243 q 424 150 356 150 q 538 197 490 150 q 585 311 585 243 l 585 596 q 609 653 585 629 q 668 678 633 678 m 393 753 q 356 715 393 715 q 317 753 317 715 q 356 790 317 790 q 393 753 393 790 m 524 753 q 485 715 524 715 q 447 753 447 715 q 485 790 447 790 q 524 753 524 790 z "},"":{"ha":360,"x_min":97,"x_max":263,"o":"m 200 79 l 200 600 q 179 621 200 621 q 158 600 158 621 l 158 79 q 179 60 158 60 q 200 79 200 60 m 179 682 q 238 658 214 682 q 263 600 263 633 l 263 79 q 238 22 263 46 q 179 -3 214 -3 q 122 22 146 -3 q 97 79 97 46 l 97 600 q 122 658 97 633 q 179 682 146 682 z "},"":{"ha":772,"x_min":14,"x_max":747,"o":"m 343 682 q 403 705 368 706 q 463 679 439 704 q 485 619 486 654 q 458 561 483 585 l 313 424 l 313 165 l 663 165 q 722 140 697 165 q 747 81 747 115 q 722 23 747 47 q 663 -1 697 -1 l 229 -1 q 172 23 196 -1 q 147 81 147 47 l 147 267 q 96 250 125 250 q 38 276 61 251 q 15 336 14 301 q 39 393 15 371 l 147 496 l 147 818 q 172 877 147 853 q 229 901 196 901 q 288 877 264 901 q 313 818 313 853 l 313 653 l 343 682 m 421 603 q 422 633 438 618 q 392 633 408 649 l 256 504 l 256 815 q 235 836 256 836 q 214 815 214 836 l 214 465 l 88 346 q 88 317 74 332 q 117 315 101 301 l 214 407 l 214 78 q 235 58 214 58 l 668 58 q 689 78 689 58 q 668 99 689 99 l 256 99 l 256 446 l 421 603 z "},"":{"ha":413,"x_min":6,"x_max":407,"o":"m 203 918 q 262 894 238 918 q 286 836 286 871 l 286 683 q 313 690 299 689 q 374 672 347 694 q 404 615 401 650 q 385 554 407 581 l 286 433 l 286 78 q 262 20 286 44 q 203 -4 238 -4 q 145 20 169 -4 q 121 78 121 44 l 121 247 q 100 243 111 244 q 39 263 65 240 q 9 319 13 285 q 26 379 6 353 l 121 494 l 121 836 q 145 894 121 871 q 203 918 169 918 m 225 78 l 225 456 l 338 593 q 336 624 351 611 q 306 619 319 638 l 225 521 l 225 836 q 204 857 225 857 q 183 836 183 857 l 183 469 l 76 339 q 79 310 63 324 q 108 313 96 297 l 183 404 l 183 78 q 204 58 183 58 q 225 78 225 58 z "},"":{"ha":1388,"x_min":21,"x_max":1367,"o":"m 1285 63 q 1306 82 1306 63 q 1285 103 1306 103 l 872 103 l 872 431 l 1138 431 q 1158 451 1158 431 q 1138 472 1158 472 l 872 472 l 872 799 l 1285 799 q 1306 819 1306 799 q 1285 840 1306 840 l 851 840 q 831 819 831 840 l 831 613 q 686 780 782 718 q 475 842 590 842 q 197 728 311 842 q 82 451 82 615 q 196 173 82 286 q 475 60 310 60 q 686 122 590 60 q 831 290 782 185 l 831 82 q 851 63 831 63 l 1285 63 m 1285 165 q 1343 141 1319 165 q 1367 82 1367 117 q 1343 24 1367 49 q 1285 0 1319 0 l 851 0 q 792 24 817 0 q 768 82 768 49 l 768 106 q 475 -3 640 -3 q 152 128 283 -3 q 21 451 21 260 q 153 772 21 640 q 475 903 285 903 q 768 794 640 903 l 768 819 q 792 878 768 854 q 851 903 817 903 l 1285 903 q 1343 878 1319 903 q 1367 819 1367 854 q 1343 760 1367 785 q 1285 736 1319 736 l 933 736 l 933 533 l 1138 533 q 1197 510 1172 533 q 1221 451 1221 486 q 1197 392 1221 417 q 1138 367 1172 367 l 933 367 l 933 165 l 1285 165 m 475 164 q 679 247 596 164 q 763 451 763 331 q 679 656 763 572 q 475 739 596 739 q 269 656 353 739 q 186 451 186 572 q 269 247 186 329 q 475 164 351 164 m 475 800 q 723 699 622 800 q 824 451 824 599 q 723 202 824 304 q 475 100 622 100 q 226 202 328 100 q 124 451 124 304 q 226 699 124 599 q 475 800 328 800 z "},"":{"ha":1265,"x_min":21,"x_max":1244,"o":"m 899 92 q 734 156 803 92 q 657 315 665 219 q 663 314 658 314 l 1163 314 q 1182 335 1182 314 q 1100 536 1182 454 q 899 618 1018 618 q 654 481 739 618 l 654 592 q 633 613 654 613 q 614 592 614 613 l 614 475 q 368 614 529 614 q 165 531 247 614 q 82 328 82 449 q 165 124 82 207 q 368 42 247 42 q 614 181 529 42 l 614 74 q 633 54 614 54 q 654 74 654 54 l 654 189 q 899 50 739 50 q 1099 133 1017 50 q 1106 149 1106 139 q 1085 169 1106 169 q 1069 163 1075 169 q 899 92 999 92 m 1244 335 q 1220 276 1244 300 q 1163 251 1196 251 l 739 251 q 899 154 789 154 q 1026 207 974 154 q 1085 231 1050 231 q 1144 207 1119 231 q 1168 149 1168 183 q 1143 89 1168 114 q 899 -12 1042 -12 q 711 43 796 -12 q 633 -8 690 -8 q 561 38 583 -8 q 368 -21 474 -21 q 121 80 221 -21 q 21 328 21 181 q 121 575 21 475 q 368 675 221 675 q 557 621 471 675 q 633 674 576 674 q 710 625 689 674 q 899 681 796 681 q 1144 581 1043 681 q 1244 335 1244 481 m 899 514 q 739 417 789 514 l 1057 417 q 899 514 1007 514 m 1139 354 l 663 354 q 657 353 661 354 q 734 513 665 449 q 899 576 803 576 q 1062 513 993 576 q 1139 354 1131 450 m 368 144 q 498 198 444 144 q 551 328 551 251 q 498 456 551 403 q 368 510 444 510 q 240 456 293 510 q 186 328 186 403 q 240 198 186 251 q 368 144 293 144 m 368 572 q 542 501 471 572 q 614 328 614 429 q 542 153 614 225 q 368 82 471 82 q 195 153 267 82 q 124 328 124 225 q 195 501 124 429 q 368 572 267 572 z "},"":{"ha":778,"x_min":49,"x_max":729,"o":"m 399 61 q 578 101 506 61 q 667 250 667 153 q 582 399 667 342 q 403 474 526 436 q 228 546 279 513 q 156 656 156 592 q 233 772 156 735 q 379 804 294 804 q 556 742 467 804 q 628 678 603 708 q 643 671 633 671 q 663 692 663 671 q 658 706 663 699 q 578 776 633 739 q 379 846 481 846 q 203 804 274 846 q 114 656 114 754 q 206 511 114 568 q 360 449 246 486 q 539 375 490 404 q 626 250 626 324 q 547 132 626 171 q 399 101 488 101 q 219 164 307 101 q 147 226 174 196 q 131 235 140 235 q 110 214 110 235 q 115 201 110 207 q 197 128 147 163 q 399 61 294 61 m 390 547 q 614 451 544 497 q 729 250 729 372 q 622 57 729 124 q 399 -1 532 -1 q 163 76 276 -1 q 68 161 104 117 q 49 213 49 185 q 72 273 49 249 q 131 297 96 297 q 253 215 164 297 q 399 164 328 164 q 564 250 564 164 q 500 328 564 292 q 340 389 456 351 q 249 421 283 407 q 171 458 199 442 q 53 656 53 533 q 158 849 53 779 q 379 907 249 907 q 613 828 499 907 q 707 744 674 785 q 725 692 725 722 q 701 633 725 656 q 643 610 678 610 q 519 690 610 610 q 379 742 449 742 q 279 725 324 742 q 218 656 218 703 q 260 599 218 625 q 390 547 288 581 m 379 933 q 357 942 367 933 l 308 985 q 296 1011 296 996 q 331 1044 296 1044 q 354 1038 344 1044 l 383 1011 l 414 1038 q 436 1044 424 1044 q 471 1011 471 1044 q 460 985 471 994 l 410 942 q 388 933 400 933 l 379 933 z "},"":{"ha":660,"x_min":63,"x_max":597,"o":"m 338 53 q 469 83 414 53 q 535 194 535 121 q 474 304 535 261 q 344 360 433 332 q 217 411 254 388 q 168 485 168 442 q 222 564 168 538 q 322 585 263 585 q 496 496 414 585 q 513 489 503 489 q 532 510 532 489 q 528 522 532 517 q 468 576 506 550 q 322 625 397 625 q 192 594 246 625 q 126 485 126 557 q 194 375 126 418 q 315 326 232 351 q 433 279 397 300 q 494 194 494 243 q 439 114 494 140 q 338 93 396 93 q 161 182 243 93 q 144 189 154 189 q 124 168 124 189 q 129 154 124 161 q 189 101 150 128 q 338 53 261 53 m 339 429 q 507 354 456 390 q 597 194 597 292 q 515 39 597 93 q 338 -10 443 -10 q 158 47 243 -10 q 63 168 63 111 q 86 227 63 204 q 144 250 110 250 q 208 221 182 250 q 338 156 269 156 q 432 194 432 156 q 286 271 432 222 q 161 324 199 300 q 65 485 65 383 q 146 639 65 585 q 322 688 217 688 q 500 629 414 688 q 594 510 594 567 q 570 452 594 476 q 513 428 546 428 q 447 457 474 428 q 322 522 388 522 q 231 485 231 522 q 339 429 231 465 m 297 714 q 274 722 283 714 l 226 764 q 214 790 214 775 q 249 825 214 825 q 271 817 261 825 l 301 790 l 332 817 q 354 825 342 825 q 389 790 389 825 q 378 764 389 774 l 328 722 q 306 714 318 714 l 297 714 z "},"":{"ha":710,"x_min":21,"x_max":689,"o":"m 624 807 q 626 818 626 813 q 607 839 626 839 q 589 829 594 839 l 354 444 l 121 829 q 103 839 115 839 q 82 818 82 839 q 85 807 82 811 l 328 408 q 335 403 331 406 l 335 74 q 354 54 335 54 q 375 74 375 54 l 375 403 q 382 408 379 406 l 624 807 m 649 889 q 689 818 689 865 q 676 775 689 796 l 438 381 l 438 74 q 413 16 438 40 q 354 -8 389 -8 q 297 16 321 -8 q 272 74 272 40 l 272 381 l 33 775 q 21 818 21 796 q 61 889 21 864 q 103 901 81 901 q 175 861 150 901 l 354 564 l 535 861 q 607 901 560 901 q 649 889 628 901 m 317 958 q 279 921 317 921 q 240 958 240 921 q 279 997 240 997 q 317 958 317 997 m 447 958 q 408 921 447 921 q 371 958 371 921 q 408 997 371 997 q 447 958 447 997 z "},"":{"ha":753,"x_min":63,"x_max":690,"o":"m 629 804 l 629 821 q 608 843 629 843 l 147 843 q 126 821 126 843 q 147 800 126 800 l 581 800 l 128 110 q 124 99 124 106 l 124 82 q 144 63 124 63 l 608 63 q 629 82 629 63 q 608 103 629 103 l 172 103 l 626 793 q 629 804 629 799 m 690 804 q 676 760 690 779 l 288 165 l 608 165 q 667 141 643 165 q 690 82 690 117 q 667 24 690 49 q 608 0 643 0 l 144 0 q 87 24 111 0 q 63 82 63 49 l 63 99 q 76 144 63 124 l 465 739 l 147 739 q 89 763 113 739 q 65 821 65 786 q 89 880 65 856 q 147 904 113 904 l 608 904 q 667 880 643 904 q 690 821 690 856 l 690 804 m 353 933 q 329 942 339 933 l 281 985 q 268 1011 268 996 q 303 1044 268 1044 q 326 1038 317 1044 l 357 1011 l 388 1038 q 408 1044 396 1044 q 443 1011 443 1044 q 432 985 443 994 l 383 942 q 361 933 374 933 l 353 933 z "},"":{"ha":658,"x_min":14,"x_max":644,"o":"m 583 585 l 583 596 q 563 617 583 617 l 99 617 q 78 596 78 617 q 99 575 78 575 l 525 575 l 81 107 q 75 93 75 101 l 75 81 q 96 61 75 61 l 563 61 q 583 81 583 61 q 563 103 583 103 l 133 103 l 578 569 q 583 585 583 575 m 644 585 q 622 526 644 550 l 278 165 l 563 165 q 621 140 597 165 q 644 81 644 115 q 621 23 644 47 q 563 -1 597 -1 l 96 -1 q 38 23 63 -1 q 14 81 14 47 l 14 93 q 38 151 14 126 l 381 513 l 99 513 q 40 537 64 513 q 17 596 17 561 q 40 653 17 629 q 99 678 64 678 l 563 678 q 621 653 597 678 q 644 596 644 629 l 644 585 m 318 714 q 294 722 304 714 l 246 764 q 233 790 233 775 q 268 825 233 825 q 292 817 282 825 l 322 790 l 351 817 q 374 825 361 825 q 408 790 408 825 q 397 764 408 774 l 347 722 q 326 714 339 714 l 318 714 z "},"":{"ha":542,"x_min":21,"x_max":521,"o":"m 460 793 q 447 813 460 807 q 350 838 392 838 q 250 710 250 838 l 250 610 l 178 610 q 157 589 157 610 q 178 568 157 568 l 250 568 l 250 -32 q 192 -119 250 -119 q 144 -108 175 -119 q 103 -96 114 -96 q 82 -117 82 -96 q 94 -136 82 -131 q 192 -161 150 -161 q 292 -33 292 -161 l 292 568 l 364 568 q 385 589 385 568 q 364 610 385 610 l 292 610 l 292 710 q 350 796 292 796 q 397 784 367 796 q 439 772 428 772 q 460 793 460 772 m 472 871 q 521 793 521 849 q 497 735 521 760 q 439 711 474 711 q 395 722 424 711 q 354 733 367 732 q 353 711 353 724 l 353 671 l 364 671 q 423 647 399 671 q 447 589 447 624 q 423 529 447 554 q 364 504 399 504 l 353 504 l 353 -33 q 314 -167 353 -114 q 192 -222 271 -222 q 69 -193 138 -222 q 21 -117 21 -171 q 45 -58 21 -82 q 103 -35 69 -35 q 144 -45 117 -35 q 186 -57 172 -56 q 189 -33 189 -47 l 189 504 l 178 504 q 119 529 143 504 q 94 589 94 554 q 119 647 94 624 q 178 671 143 671 l 189 671 l 189 710 q 226 842 189 790 q 349 900 271 900 q 472 871 406 900 z "},"":{"ha":215,"x_min":21,"x_max":196,"o":"m 104 881 l 113 881 q 135 872 125 881 l 185 829 q 196 803 196 819 q 161 768 196 768 q 139 776 149 768 l 108 803 l 78 776 q 56 768 69 768 q 21 803 21 768 q 33 829 21 818 l 81 872 q 104 881 90 881 z "},"":{"ha":215,"x_min":21,"x_max":196,"o":"m 104 768 q 81 776 90 768 l 33 819 q 21 846 21 831 q 56 881 21 881 q 78 872 69 881 l 108 846 l 139 872 q 161 881 149 881 q 196 846 196 881 q 185 819 196 829 l 135 776 q 113 768 125 768 l 104 768 z "},"":{"ha":215,"x_min":21,"x_max":196,"o":"m 104 768 q 81 776 90 768 l 33 819 q 21 846 21 831 q 56 881 21 881 q 78 872 69 881 l 108 846 l 139 872 q 161 881 149 881 q 196 846 196 881 q 185 819 196 829 l 135 776 q 113 768 125 768 l 104 768 z "},"":{"ha":218,"x_min":21,"x_max":199,"o":"m 75 397 q 110 364 75 364 q 143 397 143 364 q 110 432 143 432 q 75 397 75 432 m 21 397 q 47 460 21 435 q 110 486 72 486 q 173 460 147 486 q 199 397 199 435 q 173 334 199 360 q 110 308 147 308 q 47 334 72 308 q 21 397 21 360 z "},"":{"ha":193,"x_min":21,"x_max":172,"o":"m 21 826 q 43 881 21 858 q 96 903 65 903 q 150 881 128 903 q 172 826 172 858 q 150 773 172 794 q 96 751 128 751 q 43 773 65 751 q 21 826 21 794 m 49 826 q 63 792 49 807 q 96 778 76 778 q 144 826 144 778 q 96 875 144 875 q 49 826 49 875 z "},"":{"ha":411,"x_min":85,"x_max":343,"o":"m 231 25 q 199 1 214 17 q 172 -33 183 -15 q 154 -70 161 -51 q 146 -104 147 -89 q 162 -181 143 -156 q 215 -206 181 -206 q 272 -191 235 -206 q 319 -176 308 -176 q 343 -203 343 -176 q 328 -225 343 -219 q 213 -256 263 -256 q 85 -119 92 -246 q 90 -76 85 -99 q 108 -31 94 -54 q 144 15 121 -8 q 204 58 167 38 q 209 55 204 60 q 219 44 214 50 q 228 31 225 38 q 231 25 232 25 z "},"":{"ha":263,"x_min":21,"x_max":242,"o":"m 25 833 q 94 878 50 878 l 96 878 q 140 864 113 878 q 168 850 167 850 q 178 857 172 850 q 208 875 188 875 q 242 840 242 875 q 238 824 242 831 q 168 781 214 781 q 122 794 150 781 l 94 808 q 85 799 89 806 q 56 781 74 781 q 21 815 21 781 q 25 833 21 826 z "},"":{"ha":299,"x_min":26,"x_max":263,"o":"m 26 754 q 32 768 26 761 l 82 839 q 103 851 89 851 q 131 824 131 851 q 126 807 131 813 l 76 738 q 54 726 68 726 q 26 754 26 726 m 158 754 q 164 768 158 761 l 214 839 q 235 851 221 851 q 263 824 263 851 q 258 807 263 813 l 208 738 q 186 726 200 726 q 158 754 158 726 z "},"":{"ha":649,"x_min":56,"x_max":593,"o":"m 519 694 q 531 713 531 700 q 511 733 531 733 q 501 732 506 733 l 342 657 l 342 831 q 321 851 342 851 q 300 831 300 851 l 300 660 l 147 732 q 138 733 143 733 q 117 713 117 733 q 129 694 117 700 l 289 619 l 193 489 q 189 478 189 485 q 210 457 189 457 q 226 465 221 457 l 324 597 l 422 465 q 439 457 428 457 q 460 478 460 457 q 456 489 460 485 l 360 619 l 519 694 m 593 713 q 544 638 593 660 l 454 596 l 507 526 q 521 478 521 507 q 497 419 521 443 q 439 394 474 394 q 374 428 397 394 l 324 493 l 275 428 q 210 394 251 394 q 150 419 175 394 q 125 478 125 443 q 142 526 125 504 l 194 596 l 104 638 q 56 713 56 660 q 80 771 56 747 q 138 794 104 794 q 174 788 158 794 l 239 758 l 239 831 q 263 889 239 865 q 321 913 286 913 q 379 889 356 913 q 403 831 403 865 l 403 756 l 475 788 q 511 794 490 794 q 569 771 544 794 q 593 713 593 747 z "},"":{"ha":649,"x_min":56,"x_max":593,"o":"m 519 694 q 531 713 531 700 q 511 733 531 733 q 501 732 506 733 l 342 657 l 342 831 q 321 851 342 851 q 300 831 300 851 l 300 660 l 147 732 q 138 733 143 733 q 117 713 117 733 q 129 694 117 700 l 289 619 l 193 489 q 189 478 189 485 q 210 457 189 457 q 226 465 221 457 l 324 597 l 422 465 q 439 457 428 457 q 460 478 460 457 q 456 489 460 485 l 360 619 l 519 694 m 593 713 q 544 638 593 660 l 454 596 l 507 526 q 521 478 521 507 q 497 419 521 443 q 439 394 474 394 q 374 428 397 394 l 324 493 l 275 428 q 210 394 251 394 q 150 419 175 394 q 125 478 125 443 q 142 526 125 504 l 194 596 l 104 638 q 56 713 56 660 q 80 771 56 747 q 138 794 104 794 q 174 788 158 794 l 239 758 l 239 831 q 263 889 239 865 q 321 913 286 913 q 379 889 356 913 q 403 831 403 865 l 403 756 l 475 788 q 511 794 490 794 q 569 771 544 794 q 593 713 593 747 z "},"":{"ha":649,"x_min":56,"x_max":593,"o":"m 519 694 q 531 713 531 700 q 511 733 531 733 q 501 732 506 733 l 342 657 l 342 831 q 321 851 342 851 q 300 831 300 851 l 300 660 l 147 732 q 138 733 143 733 q 117 713 117 733 q 129 694 117 700 l 289 619 l 193 489 q 189 478 189 485 q 210 457 189 457 q 226 465 221 457 l 324 597 l 422 465 q 439 457 428 457 q 460 478 460 457 q 456 489 460 485 l 360 619 l 519 694 m 593 713 q 544 638 593 660 l 454 596 l 507 526 q 521 478 521 507 q 497 419 521 443 q 439 394 474 394 q 374 428 397 394 l 324 493 l 275 428 q 210 394 251 394 q 150 419 175 394 q 125 478 125 443 q 142 526 125 504 l 194 596 l 104 638 q 56 713 56 660 q 80 771 56 747 q 138 794 104 794 q 174 788 158 794 l 239 758 l 239 831 q 263 889 239 865 q 321 913 286 913 q 379 889 356 913 q 403 831 403 865 l 403 756 l 475 788 q 511 794 490 794 q 569 771 544 794 q 593 713 593 747 z "},"":{"ha":638,"x_min":60,"x_max":589,"o":"m 504 379 q 526 400 526 379 q 504 421 526 421 l 142 421 q 121 400 121 421 q 142 379 121 379 l 504 379 m 504 483 q 564 459 539 483 q 589 400 589 435 q 564 341 589 365 q 504 317 539 317 l 142 317 q 84 341 108 317 q 60 400 60 365 q 84 459 60 435 q 142 483 108 483 l 504 483 z "},"":{"ha":732,"x_min":60,"x_max":686,"o":"m 601 379 q 624 400 624 379 q 601 421 624 421 l 142 421 q 121 400 121 421 q 142 379 121 379 l 601 379 m 601 483 q 661 459 636 483 q 686 400 686 435 q 661 341 686 365 q 601 317 636 317 l 142 317 q 84 341 108 317 q 60 400 60 365 q 84 459 60 435 q 142 483 108 483 l 601 483 z "},"":{"ha":335,"x_min":56,"x_max":279,"o":"m 117 743 q 140 690 117 690 l 144 690 q 161 711 161 694 l 161 715 q 158 743 158 729 q 206 831 158 810 q 218 849 218 836 q 196 869 218 869 q 138 821 161 869 q 117 743 117 781 m 56 743 q 163 924 56 875 q 196 932 181 932 q 256 908 232 932 q 279 849 279 885 q 261 797 279 811 l 228 769 q 222 742 222 763 q 224 728 222 738 l 224 713 q 200 652 224 676 q 140 628 176 628 q 56 743 56 628 z "},"":{"ha":335,"x_min":56,"x_max":279,"o":"m 217 818 q 193 871 217 871 l 190 869 q 172 850 172 867 l 174 846 q 175 818 175 832 q 129 731 175 751 q 117 711 117 725 q 138 690 117 690 q 196 740 172 690 q 217 818 217 781 m 274 867 q 279 818 279 840 q 172 635 279 685 q 138 628 157 628 q 80 652 104 628 q 56 711 56 676 q 71 758 56 742 q 107 790 74 763 q 113 818 113 797 q 111 833 113 824 q 110 849 110 843 q 135 908 110 883 q 194 932 160 932 q 274 867 260 932 z "},"":{"ha":335,"x_min":56,"x_max":279,"o":"m 217 49 q 193 100 217 100 l 190 100 q 172 79 172 96 l 174 75 q 175 49 175 63 q 129 -40 175 -19 q 117 -60 117 -46 q 138 -79 117 -79 q 196 -31 172 -79 q 217 49 217 11 m 274 96 q 279 49 279 69 q 172 -135 279 -85 q 138 -142 157 -142 q 80 -117 104 -142 q 56 -60 56 -93 q 71 -12 56 -29 q 107 21 74 -8 q 113 49 113 28 q 111 63 113 54 q 110 78 110 72 q 135 138 110 113 q 194 163 160 163 q 274 96 260 163 z "},"":{"ha":564,"x_min":56,"x_max":508,"o":"m 346 736 q 369 683 346 683 l 374 683 q 389 704 389 688 l 389 708 q 386 736 386 722 q 433 824 386 801 q 444 842 444 829 q 424 863 444 863 q 378 833 399 863 q 346 736 346 790 m 283 736 q 389 917 283 869 q 424 925 407 925 q 483 901 458 925 q 508 842 508 876 q 490 790 508 804 l 456 764 q 450 735 450 756 l 450 719 q 451 706 451 710 q 428 646 451 669 q 369 622 404 622 q 283 736 283 622 m 117 743 q 140 690 117 690 l 144 690 q 161 711 161 694 l 161 715 q 158 743 158 729 q 206 831 158 810 q 218 849 218 836 q 196 869 218 869 q 138 821 161 869 q 117 743 117 781 m 56 743 q 163 924 56 875 q 196 932 181 932 q 256 908 232 932 q 279 849 279 885 q 261 797 279 811 l 228 769 q 222 742 222 763 q 224 728 222 738 l 224 713 q 200 652 224 676 q 140 628 176 628 q 56 743 56 628 z "},"":{"ha":564,"x_min":56,"x_max":508,"o":"m 217 818 q 193 871 217 871 l 190 869 q 172 850 172 867 l 174 846 q 175 818 175 832 q 129 731 175 751 q 117 711 117 725 q 138 690 117 690 q 196 740 172 690 q 217 818 217 781 m 274 867 q 279 818 279 840 q 172 635 279 685 q 138 628 157 628 q 80 652 104 628 q 56 711 56 676 q 71 758 56 742 q 107 790 74 763 q 113 818 113 797 q 111 833 113 824 q 110 849 110 843 q 135 908 110 883 q 194 932 160 932 q 274 867 260 932 m 444 811 q 421 864 444 864 l 417 863 q 400 843 400 860 l 401 839 q 403 810 403 825 q 358 724 403 744 q 346 704 346 718 q 367 683 346 683 q 424 733 400 683 q 444 811 444 774 m 503 860 q 508 811 508 833 q 400 628 508 678 q 367 622 385 622 q 308 646 332 622 q 283 704 283 669 q 299 751 283 735 q 336 783 301 756 q 342 811 342 790 q 340 826 342 817 q 339 842 339 836 q 363 901 339 876 q 422 925 388 925 q 503 860 489 925 z "},"":{"ha":564,"x_min":56,"x_max":508,"o":"m 217 49 q 193 100 217 100 l 190 100 q 172 79 172 96 l 174 75 q 175 49 175 63 q 129 -40 175 -19 q 117 -60 117 -46 q 138 -79 117 -79 q 196 -31 172 -79 q 217 49 217 11 m 274 96 q 279 49 279 69 q 172 -135 279 -85 q 138 -142 157 -142 q 80 -117 104 -142 q 56 -60 56 -93 q 71 -12 56 -29 q 107 21 74 -8 q 113 49 113 28 q 111 63 113 54 q 110 78 110 72 q 135 138 110 113 q 194 163 160 163 q 274 96 260 163 m 444 42 q 421 93 444 93 l 417 92 q 400 72 400 89 l 401 69 q 403 40 403 56 q 358 -47 403 -26 q 346 -67 346 -53 q 367 -86 346 -86 q 424 -37 400 -86 q 444 42 444 4 m 503 89 q 508 42 508 64 q 400 -142 508 -92 q 367 -149 385 -149 q 308 -124 332 -149 q 283 -67 283 -100 q 299 -19 283 -36 q 336 14 301 -15 q 342 42 342 21 q 340 57 342 47 q 339 71 339 67 q 363 131 339 106 q 422 156 388 156 q 503 89 489 156 z "},"":{"ha":750,"x_min":56,"x_max":694,"o":"m 611 651 q 670 628 646 651 q 694 569 694 604 q 670 510 694 535 q 611 486 646 486 l 458 486 l 458 -158 q 433 -217 458 -193 q 375 -240 408 -240 q 316 -217 340 -240 q 292 -158 292 -193 l 292 486 l 138 486 q 80 510 104 486 q 56 569 56 535 q 80 628 56 604 q 138 651 104 651 l 292 651 l 292 800 q 316 859 292 835 q 375 883 340 883 q 433 859 408 883 q 458 800 458 835 l 458 651 l 611 651 m 611 549 q 632 569 632 549 q 611 590 632 590 l 394 590 l 394 800 q 375 821 394 821 q 354 800 354 821 l 354 590 l 138 590 q 117 569 117 590 q 138 549 117 549 l 354 549 l 354 -158 q 375 -179 354 -179 q 394 -158 394 -179 l 394 549 l 611 549 z "},"":{"ha":750,"x_min":56,"x_max":694,"o":"m 611 163 q 670 138 646 163 q 694 79 694 114 q 670 21 694 46 q 611 -4 646 -4 l 458 -4 l 458 -158 q 433 -217 458 -193 q 375 -240 408 -240 q 316 -217 340 -240 q 292 -158 292 -193 l 292 -4 l 138 -4 q 80 21 104 -4 q 56 79 56 46 q 80 138 56 114 q 138 163 104 163 l 292 163 l 292 486 l 138 486 q 80 510 104 486 q 56 569 56 535 q 80 628 56 604 q 138 651 104 651 l 292 651 l 292 800 q 316 859 292 835 q 375 883 340 883 q 433 859 408 883 q 458 800 458 835 l 458 651 l 611 651 q 670 628 646 651 q 694 569 694 604 q 670 510 694 535 q 611 486 646 486 l 458 486 l 458 163 l 611 163 m 611 60 q 632 79 632 60 q 611 100 632 100 l 394 100 l 394 549 l 611 549 q 632 569 632 549 q 611 590 632 590 l 394 590 l 394 800 q 375 821 394 821 q 354 800 354 821 l 354 590 l 138 590 q 117 569 117 590 q 138 549 117 549 l 354 549 l 354 100 l 138 100 q 117 79 117 100 q 138 60 117 60 l 354 60 l 354 -158 q 375 -179 354 -179 q 394 -158 394 -179 l 394 60 l 611 60 z "},"":{"ha":289,"x_min":56,"x_max":233,"o":"m 110 397 q 144 364 110 364 q 178 397 178 364 q 144 432 178 432 q 110 397 110 432 m 56 397 q 81 460 56 435 q 144 486 107 486 q 208 460 182 486 q 233 397 233 435 q 208 334 233 360 q 144 308 182 308 q 81 334 107 308 q 56 397 56 360 z "},"":{"ha":725,"x_min":56,"x_max":669,"o":"m 110 75 q 144 43 110 43 q 178 75 178 43 q 144 110 178 110 q 110 75 110 110 m 56 75 q 81 139 56 113 q 144 165 107 165 q 208 139 182 165 q 233 75 233 113 q 207 14 233 40 q 144 -12 181 -12 q 81 13 107 -12 q 56 75 56 39 m 328 75 q 363 43 328 43 q 396 75 396 43 q 363 110 396 110 q 328 75 328 110 m 274 75 q 299 139 274 113 q 363 165 325 165 q 426 139 400 165 q 451 75 451 113 q 425 14 451 40 q 363 -12 399 -12 q 299 13 325 -12 q 274 75 274 39 m 546 75 q 581 43 546 43 q 614 75 614 43 q 581 110 614 110 q 546 75 546 110 m 492 75 q 517 139 492 113 q 581 165 543 165 q 644 139 618 165 q 669 75 669 113 q 643 14 669 40 q 581 -12 617 -12 q 517 13 543 -12 q 492 75 492 39 z "},"":{"ha":1496,"x_min":56,"x_max":1440,"o":"m 586 721 q 592 668 592 694 q 590 638 592 653 l 654 722 q 604 721 626 721 l 586 721 m 285 65 l 872 838 q 876 851 876 843 q 854 872 876 872 q 846 869 850 872 q 604 824 746 824 q 404 857 542 824 q 324 874 367 874 q 178 814 239 874 q 117 668 117 754 q 178 523 117 583 q 324 463 239 463 q 469 523 408 463 q 529 668 529 583 q 488 793 529 738 q 606 782 544 782 q 799 808 703 782 l 251 89 q 247 76 247 83 q 268 57 247 57 q 285 65 278 57 m 799 165 q 872 194 842 165 q 903 267 903 224 q 872 340 903 310 q 799 369 842 369 q 727 340 757 369 q 697 267 697 310 q 728 195 697 225 q 799 165 758 165 m 324 565 q 396 595 367 565 q 425 668 425 625 q 396 740 425 711 q 324 769 367 769 q 251 740 281 769 q 221 668 221 711 q 251 595 221 625 q 324 565 281 565 m 324 832 q 440 784 390 832 q 489 668 489 736 q 440 551 489 600 q 324 503 392 503 q 206 551 254 503 q 158 668 158 600 q 206 785 158 738 q 324 832 254 832 m 799 535 q 983 464 908 535 q 1067 519 1019 499 q 1169 539 1115 539 q 1275 517 1225 539 q 1361 460 1325 496 q 1419 374 1397 424 q 1440 268 1440 324 q 1419 164 1440 213 q 1361 78 1397 115 q 1275 21 1325 42 q 1169 0 1225 0 q 1069 19 1117 0 q 985 71 1021 38 q 799 -1 908 -1 q 608 76 686 -1 q 531 267 531 154 q 532 289 531 275 l 335 28 q 268 -6 310 -6 q 210 18 233 -6 q 186 76 186 42 q 203 128 186 106 l 424 419 q 324 400 376 400 q 133 477 210 400 q 56 668 56 554 q 133 858 56 781 q 324 935 211 935 q 426 915 369 935 q 604 888 514 888 q 821 926 729 888 q 854 933 836 933 q 914 910 890 933 q 938 850 938 886 q 921 800 938 824 l 707 518 q 799 535 753 535 m 1168 60 q 1315 119 1254 60 q 1375 264 1375 179 q 1315 410 1375 349 q 1168 471 1254 471 q 1024 410 1083 471 q 985 357 1000 385 q 944 413 971 386 q 799 474 885 474 q 654 413 714 474 q 594 267 594 351 q 654 122 594 182 q 799 63 714 63 q 944 122 885 63 q 983 174 969 146 q 1024 119 999 144 q 1168 60 1083 60 m 799 432 q 915 383 868 432 q 964 276 960 339 l 964 264 q 915 150 963 197 q 799 103 868 103 q 684 151 732 103 q 636 267 636 200 q 683 384 636 336 q 799 432 731 432 m 1168 429 q 1285 381 1238 429 q 1333 264 1333 333 q 1285 148 1333 196 q 1168 100 1238 100 q 1053 149 1101 100 q 1006 254 1008 193 l 1006 267 q 1053 381 1006 333 q 1168 429 1100 429 m 1171 163 q 1244 192 1214 163 q 1275 264 1275 221 q 1244 337 1275 307 q 1171 367 1214 367 q 1099 337 1129 367 q 1069 264 1069 307 q 1100 192 1069 222 q 1171 163 1131 163 z "},"":{"ha":379,"x_min":56,"x_max":324,"o":"m 261 71 q 260 79 261 76 l 158 315 l 158 347 l 260 583 q 261 590 261 586 q 242 613 261 613 q 222 599 228 613 l 118 358 q 117 350 117 356 l 117 311 q 118 303 117 306 l 222 64 q 242 51 228 51 q 261 71 261 51 m 221 329 l 317 104 q 324 71 324 88 q 299 13 324 38 q 242 -11 275 -11 q 164 39 185 -11 l 63 279 q 56 311 56 296 l 56 350 q 63 383 56 367 l 164 624 q 242 674 186 674 q 300 649 276 674 q 324 590 324 625 q 317 558 324 575 l 221 329 z "},"":{"ha":379,"x_min":56,"x_max":324,"o":"m 117 71 q 138 51 117 51 q 157 64 151 51 l 260 303 q 261 311 261 306 l 261 350 q 260 358 261 356 l 157 599 q 138 613 151 613 q 117 590 117 613 q 118 583 117 586 l 221 347 l 221 315 l 118 79 q 117 71 117 76 m 63 558 q 56 590 56 575 q 79 649 56 625 q 138 674 103 674 q 215 624 193 674 l 317 383 q 324 350 324 367 l 324 311 q 317 279 324 296 l 215 39 q 138 -11 194 -11 q 80 13 104 -11 q 56 71 56 38 q 63 104 56 88 l 158 329 l 63 558 z "},"":{"ha":489,"x_min":56,"x_max":433,"o":"m 118 79 q 139 60 118 60 q 157 74 154 60 l 369 819 q 371 825 371 822 q 350 846 371 846 q 329 831 333 846 l 118 85 l 118 79 m 271 849 q 350 907 288 907 q 409 883 385 907 q 433 825 433 860 q 431 803 433 813 l 218 58 q 139 -3 200 -3 q 80 22 104 -3 q 56 79 56 46 q 58 101 56 92 l 271 849 z "},"":{"ha":1064,"x_min":56,"x_max":1008,"o":"m 925 336 q 985 313 961 336 q 1008 253 1008 289 q 994 208 1008 229 q 830 56 933 111 q 613 0 726 0 q 289 133 424 0 q 181 306 213 208 l 138 306 q 79 328 103 306 q 56 386 56 351 q 78 444 56 421 q 56 503 56 469 q 79 563 56 538 q 138 588 103 588 l 172 588 q 289 778 203 693 q 613 913 425 913 q 830 857 728 913 q 994 704 932 801 q 1008 660 1008 682 q 984 601 1008 625 q 925 576 960 576 q 856 615 882 576 q 613 747 764 747 q 458 704 528 747 q 350 588 389 661 l 610 588 q 668 563 643 588 q 693 503 693 538 q 668 444 693 469 q 693 386 693 421 q 668 328 693 351 q 610 306 643 306 l 363 306 q 613 167 450 167 q 856 299 764 167 q 925 336 882 336 m 611 63 q 799 110 708 63 q 942 242 894 161 q 944 253 944 246 q 924 274 944 274 q 890 246 913 274 q 863 208 876 226 q 611 103 767 103 q 394 176 490 103 q 269 367 299 250 l 611 367 q 631 386 631 367 q 611 406 631 406 l 261 406 q 258 457 258 433 q 260 483 258 468 l 611 483 q 631 503 631 483 q 611 524 631 524 l 264 524 q 385 728 288 647 q 611 810 483 810 q 882 682 776 810 q 899 656 890 669 q 924 639 913 639 q 944 660 944 639 q 942 671 944 665 q 802 802 894 754 q 611 850 710 850 q 333 735 450 850 q 222 524 242 643 l 138 524 q 117 503 117 524 q 138 483 117 483 l 218 483 q 217 457 217 465 q 219 406 217 433 l 138 406 q 117 386 117 406 q 138 367 117 367 l 226 367 q 365 147 256 232 q 611 63 474 63 z "},"":{"ha":971,"x_min":56,"x_max":915,"o":"m 851 447 l 851 451 l 776 819 q 757 836 774 836 l 738 836 q 717 822 721 836 l 614 507 l 511 822 q 490 836 507 836 l 471 836 q 451 819 454 836 l 376 447 q 396 426 376 426 q 415 443 413 426 l 483 771 l 590 446 q 610 432 594 432 l 618 432 q 638 446 633 432 l 744 771 l 811 443 q 831 426 814 426 q 851 447 851 426 m 346 614 l 369 732 l 346 732 l 346 614 m 283 793 l 386 793 q 407 814 407 793 q 386 835 407 835 l 138 835 q 117 814 117 835 q 138 793 117 793 l 243 793 l 243 447 q 263 426 243 426 q 283 447 283 426 l 283 793 m 913 464 q 915 447 915 456 q 890 388 915 413 q 831 364 865 364 q 750 431 763 364 l 731 529 l 696 426 q 618 369 676 369 l 610 369 q 531 426 550 369 l 497 529 l 478 431 q 396 364 465 364 q 329 397 354 364 q 263 364 304 364 q 204 388 229 364 q 179 447 179 413 l 179 732 l 138 732 q 80 756 104 732 q 56 814 56 779 q 80 873 56 849 q 138 897 104 897 l 386 897 q 428 886 408 897 q 471 900 447 900 l 490 900 q 569 842 550 900 l 614 707 l 658 842 q 738 900 676 900 l 757 900 q 838 832 824 900 l 913 464 z "},"":{"ha":649,"x_min":56,"x_max":593,"o":"m 519 694 q 531 713 531 700 q 511 733 531 733 q 501 732 506 733 l 342 657 l 342 831 q 321 851 342 851 q 300 831 300 851 l 300 660 l 147 732 q 138 733 143 733 q 117 713 117 733 q 129 694 117 700 l 289 619 l 193 489 q 189 478 189 485 q 210 457 189 457 q 226 465 221 457 l 324 597 l 422 465 q 439 457 428 457 q 460 478 460 457 q 456 489 460 485 l 360 619 l 519 694 m 593 713 q 544 638 593 660 l 454 596 l 507 526 q 521 478 521 507 q 497 419 521 443 q 439 394 474 394 q 374 428 397 394 l 324 493 l 275 428 q 210 394 251 394 q 150 419 175 394 q 125 478 125 443 q 142 526 125 504 l 194 596 l 104 638 q 56 713 56 660 q 80 771 56 747 q 138 794 104 794 q 174 788 158 794 l 239 758 l 239 831 q 263 889 239 865 q 321 913 286 913 q 379 889 356 913 q 403 831 403 865 l 403 756 l 475 788 q 511 794 490 794 q 569 771 544 794 q 593 713 593 747 z "},"":{"ha":649,"x_min":56,"x_max":593,"o":"m 519 694 q 531 713 531 700 q 511 733 531 733 q 501 732 506 733 l 342 657 l 342 831 q 321 851 342 851 q 300 831 300 851 l 300 660 l 147 732 q 138 733 143 733 q 117 713 117 733 q 129 694 117 700 l 289 619 l 193 489 q 189 478 189 485 q 210 457 189 457 q 226 465 221 457 l 324 597 l 422 465 q 439 457 428 457 q 460 478 460 457 q 456 489 460 485 l 360 619 l 519 694 m 593 713 q 544 638 593 660 l 454 596 l 507 526 q 521 478 521 507 q 497 419 521 443 q 439 394 474 394 q 374 428 397 394 l 324 493 l 275 428 q 210 394 251 394 q 150 419 175 394 q 125 478 125 443 q 142 526 125 504 l 194 596 l 104 638 q 56 713 56 660 q 80 771 56 747 q 138 794 104 794 q 174 788 158 794 l 239 758 l 239 831 q 263 889 239 865 q 321 913 286 913 q 379 889 356 913 q 403 831 403 865 l 403 756 l 475 788 q 511 794 490 794 q 569 771 544 794 q 593 713 593 747 z "},"":{"ha":649,"x_min":56,"x_max":593,"o":"m 519 694 q 531 713 531 700 q 511 733 531 733 q 501 732 506 733 l 342 657 l 342 831 q 321 851 342 851 q 300 831 300 851 l 300 660 l 147 732 q 138 733 143 733 q 117 713 117 733 q 129 694 117 700 l 289 619 l 193 489 q 189 478 189 485 q 210 457 189 457 q 226 465 221 457 l 324 597 l 422 465 q 439 457 428 457 q 460 478 460 457 q 456 489 460 485 l 360 619 l 519 694 m 593 713 q 544 638 593 660 l 454 596 l 507 526 q 521 478 521 507 q 497 419 521 443 q 439 394 474 394 q 374 428 397 394 l 324 493 l 275 428 q 210 394 251 394 q 150 419 175 394 q 125 478 125 443 q 142 526 125 504 l 194 596 l 104 638 q 56 713 56 660 q 80 771 56 747 q 138 794 104 794 q 174 788 158 794 l 239 758 l 239 831 q 263 889 239 865 q 321 913 286 913 q 379 889 356 913 q 403 831 403 865 l 403 756 l 475 788 q 511 794 490 794 q 569 771 544 794 q 593 713 593 747 z "},"":{"ha":750,"x_min":56,"x_max":694,"o":"m 611 413 q 632 433 632 413 q 611 454 632 454 l 138 454 q 117 433 117 454 q 138 413 117 413 l 611 413 m 611 515 q 670 492 646 515 q 694 433 694 468 q 670 374 694 399 q 611 350 646 350 l 138 350 q 80 374 104 350 q 56 433 56 399 q 80 492 56 468 q 138 515 104 515 l 611 515 z "},"":{"ha":649,"x_min":56,"x_max":593,"o":"m 519 694 q 531 713 531 700 q 511 733 531 733 q 501 732 506 733 l 342 657 l 342 831 q 321 851 342 851 q 300 831 300 851 l 300 660 l 147 732 q 138 733 143 733 q 117 713 117 733 q 129 694 117 700 l 289 619 l 193 489 q 189 478 189 485 q 210 457 189 457 q 226 465 221 457 l 324 597 l 422 465 q 439 457 428 457 q 460 478 460 457 q 456 489 460 485 l 360 619 l 519 694 m 593 713 q 544 638 593 660 l 454 596 l 507 526 q 521 478 521 507 q 497 419 521 443 q 439 394 474 394 q 374 428 397 394 l 324 493 l 275 428 q 210 394 251 394 q 150 419 175 394 q 125 478 125 443 q 142 526 125 504 l 194 596 l 104 638 q 56 713 56 660 q 80 771 56 747 q 138 794 104 794 q 174 788 158 794 l 239 758 l 239 831 q 263 889 239 865 q 321 913 286 913 q 379 889 356 913 q 403 831 403 865 l 403 756 l 475 788 q 511 794 490 794 q 569 771 544 794 q 593 713 593 747 z "},"":{"ha":649,"x_min":56,"x_max":593,"o":"m 519 694 q 531 713 531 700 q 511 733 531 733 q 501 732 506 733 l 342 657 l 342 831 q 321 851 342 851 q 300 831 300 851 l 300 660 l 147 732 q 138 733 143 733 q 117 713 117 733 q 129 694 117 700 l 289 619 l 193 489 q 189 478 189 485 q 210 457 189 457 q 226 465 221 457 l 324 597 l 422 465 q 439 457 428 457 q 460 478 460 457 q 456 489 460 485 l 360 619 l 519 694 m 593 713 q 544 638 593 660 l 454 596 l 507 526 q 521 478 521 507 q 497 419 521 443 q 439 394 474 394 q 374 428 397 394 l 324 493 l 275 428 q 210 394 251 394 q 150 419 175 394 q 125 478 125 443 q 142 526 125 504 l 194 596 l 104 638 q 56 713 56 660 q 80 771 56 747 q 138 794 104 794 q 174 788 158 794 l 239 758 l 239 831 q 263 889 239 865 q 321 913 286 913 q 379 889 356 913 q 403 831 403 865 l 403 756 l 475 788 q 511 794 490 794 q 569 771 544 794 q 593 713 593 747 z "},"":{"ha":649,"x_min":56,"x_max":593,"o":"m 519 694 q 531 713 531 700 q 511 733 531 733 q 501 732 506 733 l 342 657 l 342 831 q 321 851 342 851 q 300 831 300 851 l 300 660 l 147 732 q 138 733 143 733 q 117 713 117 733 q 129 694 117 700 l 289 619 l 193 489 q 189 478 189 485 q 210 457 189 457 q 226 465 221 457 l 324 597 l 422 465 q 439 457 428 457 q 460 478 460 457 q 456 489 460 485 l 360 619 l 519 694 m 593 713 q 544 638 593 660 l 454 596 l 507 526 q 521 478 521 507 q 497 419 521 443 q 439 394 474 394 q 374 428 397 394 l 324 493 l 275 428 q 210 394 251 394 q 150 419 175 394 q 125 478 125 443 q 142 526 125 504 l 194 596 l 104 638 q 56 713 56 660 q 80 771 56 747 q 138 794 104 794 q 174 788 158 794 l 239 758 l 239 831 q 263 889 239 865 q 321 913 286 913 q 379 889 356 913 q 403 831 403 865 l 403 756 l 475 788 q 511 794 490 794 q 569 771 544 794 q 593 713 593 747 z "},"":{"ha":649,"x_min":56,"x_max":593,"o":"m 519 694 q 531 713 531 700 q 511 733 531 733 q 501 732 506 733 l 342 657 l 342 831 q 321 851 342 851 q 300 831 300 851 l 300 660 l 147 732 q 138 733 143 733 q 117 713 117 733 q 129 694 117 700 l 289 619 l 193 489 q 189 478 189 485 q 210 457 189 457 q 226 465 221 457 l 324 597 l 422 465 q 439 457 428 457 q 460 478 460 457 q 456 489 460 485 l 360 619 l 519 694 m 593 713 q 544 638 593 660 l 454 596 l 507 526 q 521 478 521 507 q 497 419 521 443 q 439 394 474 394 q 374 428 397 394 l 324 493 l 275 428 q 210 394 251 394 q 150 419 175 394 q 125 478 125 443 q 142 526 125 504 l 194 596 l 104 638 q 56 713 56 660 q 80 771 56 747 q 138 794 104 794 q 174 788 158 794 l 239 758 l 239 831 q 263 889 239 865 q 321 913 286 913 q 379 889 356 913 q 403 831 403 865 l 403 756 l 475 788 q 511 794 490 794 q 569 771 544 794 q 593 713 593 747 z "},"":{"ha":649,"x_min":56,"x_max":593,"o":"m 519 694 q 531 713 531 700 q 511 733 531 733 q 501 732 506 733 l 342 657 l 342 831 q 321 851 342 851 q 300 831 300 851 l 300 660 l 147 732 q 138 733 143 733 q 117 713 117 733 q 129 694 117 700 l 289 619 l 193 489 q 189 478 189 485 q 210 457 189 457 q 226 465 221 457 l 324 597 l 422 465 q 439 457 428 457 q 460 478 460 457 q 456 489 460 485 l 360 619 l 519 694 m 593 713 q 544 638 593 660 l 454 596 l 507 526 q 521 478 521 507 q 497 419 521 443 q 439 394 474 394 q 374 428 397 394 l 324 493 l 275 428 q 210 394 251 394 q 150 419 175 394 q 125 478 125 443 q 142 526 125 504 l 194 596 l 104 638 q 56 713 56 660 q 80 771 56 747 q 138 794 104 794 q 174 788 158 794 l 239 758 l 239 831 q 263 889 239 865 q 321 913 286 913 q 379 889 356 913 q 403 831 403 865 l 403 756 l 475 788 q 511 794 490 794 q 569 771 544 794 q 593 713 593 747 z "},"":{"ha":750,"x_min":56,"x_max":694,"o":"m 597 251 q 585 271 597 265 l 178 454 l 178 458 l 585 640 q 597 658 597 646 q 576 681 597 681 q 568 678 572 681 l 149 490 q 136 471 136 485 l 136 440 q 149 421 136 426 l 568 233 q 576 231 572 231 q 597 251 597 231 m 611 326 q 661 251 661 306 q 636 193 661 217 q 576 169 611 169 q 543 176 558 169 l 124 364 q 75 440 75 386 l 75 471 q 124 547 75 525 l 543 735 q 576 742 561 742 q 636 718 611 742 q 661 660 661 694 q 611 585 661 606 l 325 456 l 611 326 m 611 8 q 632 29 632 8 q 611 50 632 50 l 138 50 q 117 29 117 50 q 138 8 117 8 l 611 8 m 611 111 q 670 88 646 111 q 694 29 694 64 q 670 -30 694 -6 q 611 -54 646 -54 l 138 -54 q 80 -30 104 -54 q 56 29 56 -6 q 80 88 56 64 q 138 111 104 111 l 611 111 z "},"":{"ha":750,"x_min":56,"x_max":694,"o":"m 157 254 q 178 233 157 233 q 186 236 182 233 l 606 424 q 618 443 618 429 l 618 474 q 606 493 618 488 l 186 681 q 178 683 182 683 q 157 661 157 683 q 169 643 157 649 l 576 461 l 576 457 l 169 274 q 157 254 157 268 m 429 458 l 144 588 q 96 663 96 608 q 120 721 96 697 q 178 744 144 744 q 213 738 194 744 l 632 550 q 682 474 682 528 l 682 443 q 632 367 682 389 l 213 179 q 178 172 197 172 q 120 196 144 172 q 96 254 96 219 q 144 329 96 308 l 429 458 m 611 1 q 632 22 632 1 q 611 43 632 43 l 138 43 q 117 22 117 43 q 138 1 117 1 l 611 1 m 611 104 q 670 81 646 104 q 694 22 694 57 q 670 -37 694 -12 q 611 -61 646 -61 l 138 -61 q 80 -37 104 -61 q 56 22 56 -12 q 80 81 56 57 q 138 104 104 104 l 611 104 z "},"":{"ha":649,"x_min":56,"x_max":593,"o":"m 519 694 q 531 713 531 700 q 511 733 531 733 q 501 732 506 733 l 342 657 l 342 831 q 321 851 342 851 q 300 831 300 851 l 300 660 l 147 732 q 138 733 143 733 q 117 713 117 733 q 129 694 117 700 l 289 619 l 193 489 q 189 478 189 485 q 210 457 189 457 q 226 465 221 457 l 324 597 l 422 465 q 439 457 428 457 q 460 478 460 457 q 456 489 460 485 l 360 619 l 519 694 m 593 713 q 544 638 593 660 l 454 596 l 507 526 q 521 478 521 507 q 497 419 521 443 q 439 394 474 394 q 374 428 397 394 l 324 493 l 275 428 q 210 394 251 394 q 150 419 175 394 q 125 478 125 443 q 142 526 125 504 l 194 596 l 104 638 q 56 713 56 660 q 80 771 56 747 q 138 794 104 794 q 174 788 158 794 l 239 758 l 239 831 q 263 889 239 865 q 321 913 286 913 q 379 889 356 913 q 403 831 403 865 l 403 756 l 475 788 q 511 794 490 794 q 569 771 544 794 q 593 713 593 747 z "},"":{"ha":843,"x_min":49,"x_max":746,"o":"m 231 717 q 288 801 231 801 q 335 790 304 801 q 375 778 365 778 q 394 799 394 778 q 382 818 394 813 q 286 843 328 843 q 188 717 188 843 l 188 615 l 131 615 q 110 594 110 615 q 131 572 110 572 l 188 572 l 188 76 q 210 57 188 57 q 231 76 231 57 l 231 572 l 368 572 q 388 594 388 572 q 368 615 388 615 l 231 615 l 231 717 m 342 724 q 293 739 311 738 q 292 717 292 729 l 292 676 l 368 676 q 426 652 401 676 q 450 594 450 628 q 426 535 450 560 q 368 510 401 510 l 292 510 l 292 76 q 267 19 292 43 q 210 -6 243 -6 q 150 19 175 -6 q 125 76 125 43 l 125 510 q 71 537 93 513 q 49 594 49 561 q 72 649 49 625 q 125 676 94 674 l 125 717 q 199 879 125 831 q 286 904 238 904 q 407 875 340 904 q 457 799 457 853 q 433 740 457 764 q 375 717 408 717 q 342 724 357 717 m 622 826 q 657 793 622 793 q 690 826 690 793 q 657 861 690 861 q 622 826 622 861 m 568 826 q 594 890 568 864 q 657 915 619 915 q 720 890 694 915 q 746 826 746 864 q 720 763 746 789 q 657 738 694 738 q 594 763 619 738 q 568 826 568 789 m 671 79 l 671 600 q 650 621 671 621 q 629 600 629 621 l 629 79 q 650 60 629 60 q 671 79 671 60 m 650 682 q 709 658 685 682 q 733 600 733 633 l 733 79 q 709 22 733 46 q 650 -3 685 -3 q 592 22 617 -3 q 568 79 568 46 l 568 600 q 592 658 568 633 q 650 682 617 682 z "},"":{"ha":831,"x_min":49,"x_max":733,"o":"m 231 717 q 288 801 231 801 q 335 790 304 801 q 375 778 365 778 q 394 799 394 778 q 382 818 394 813 q 286 843 328 843 q 188 717 188 843 l 188 615 l 131 615 q 110 594 110 615 q 131 572 110 572 l 188 572 l 188 76 q 210 57 188 57 q 231 76 231 57 l 231 572 l 368 572 q 388 594 388 572 q 368 615 388 615 l 231 615 l 231 717 m 342 724 q 293 739 311 738 q 292 717 292 729 l 292 676 l 368 676 q 426 652 401 676 q 450 594 450 628 q 426 535 450 560 q 368 510 401 510 l 292 510 l 292 76 q 267 19 292 43 q 210 -6 243 -6 q 150 19 175 -6 q 125 76 125 43 l 125 510 q 71 537 93 513 q 49 594 49 561 q 72 649 49 625 q 125 676 94 674 l 125 717 q 199 879 125 831 q 286 904 238 904 q 407 875 340 904 q 457 799 457 853 q 433 740 457 764 q 375 717 408 717 q 342 724 357 717 m 671 78 l 671 836 q 650 857 671 857 q 629 836 629 857 l 629 78 q 650 58 629 58 q 671 78 671 58 m 650 918 q 709 894 685 918 q 733 836 733 871 l 733 78 q 709 20 733 44 q 650 -4 685 -4 q 592 20 617 -4 q 568 78 568 44 l 568 836 q 592 894 568 871 q 650 918 617 918 z "}}}
